<svg class="main-svg" xmlns="http://www.w3.org/2000/svg" xmlns:xlink="http://www.w3.org/1999/xlink" width="850" height="580" style="" viewBox="0 0 850 580"><rect x="0" y="0" width="850" height="580" style="fill: rgb(255, 255, 255); fill-opacity: 1;"/><defs id="defs-ebcb7b"><g class="clips"><clipPath id="clipebcb7bxyplot" class="plotclip"><rect width="364" height="246"/></clipPath><clipPath class="axesclip" id="clipebcb7bx"><rect x="310" y="0" width="364" height="580"/></clipPath><clipPath class="axesclip" id="clipebcb7by"><rect x="0" y="100" width="850" height="246"/></clipPath><clipPath class="axesclip" id="clipebcb7bxy"><rect x="310" y="100" width="364" height="246"/></clipPath></g><g class="gradients"/><g class="patterns"/></defs><g class="bglayer"/><g class="layer-below"><g class="imagelayer"/><g class="shapelayer"/></g><g class="cartesianlayer"><g class="subplot xy"><g class="layer-subplot"><g class="shapelayer"/><g class="imagelayer"/></g><g class="minor-gridlayer"><g class="x"/><g class="y"/></g><g class="gridlayer"><g class="x"><path class="xgrid crisp" transform="translate(343.82,0)" d="M0,100v246" style="stroke: rgb(235, 240, 248); stroke-opacity: 1; stroke-width: 1px;"/><path class="xgrid crisp" transform="translate(380.87,0)" d="M0,100v246" style="stroke: rgb(235, 240, 248); stroke-opacity: 1; stroke-width: 1px;"/><path class="xgrid crisp" transform="translate(417.90999999999997,0)" d="M0,100v246" style="stroke: rgb(235, 240, 248); stroke-opacity: 1; stroke-width: 1px;"/><path class="xgrid crisp" transform="translate(454.96000000000004,0)" d="M0,100v246" style="stroke: rgb(235, 240, 248); stroke-opacity: 1; stroke-width: 1px;"/><path class="xgrid crisp" transform="translate(492,0)" d="M0,100v246" style="stroke: rgb(235, 240, 248); stroke-opacity: 1; stroke-width: 1px;"/><path class="xgrid crisp" transform="translate(529.04,0)" d="M0,100v246" style="stroke: rgb(235, 240, 248); stroke-opacity: 1; stroke-width: 1px;"/><path class="xgrid crisp" transform="translate(566.0899999999999,0)" d="M0,100v246" style="stroke: rgb(235, 240, 248); stroke-opacity: 1; stroke-width: 1px;"/><path class="xgrid crisp" transform="translate(603.13,0)" d="M0,100v246" style="stroke: rgb(235, 240, 248); stroke-opacity: 1; stroke-width: 1px;"/><path class="xgrid crisp" transform="translate(640.1700000000001,0)" d="M0,100v246" style="stroke: rgb(235, 240, 248); stroke-opacity: 1; stroke-width: 1px;"/></g><g class="y"><path class="ygrid crisp" transform="translate(0,318.08000000000004)" d="M310,0h364" style="stroke: rgb(235, 240, 248); stroke-opacity: 1; stroke-width: 1px;"/><path class="ygrid crisp" transform="translate(0,286.38)" d="M310,0h364" style="stroke: rgb(235, 240, 248); stroke-opacity: 1; stroke-width: 1px;"/><path class="ygrid crisp" transform="translate(0,254.69)" d="M310,0h364" style="stroke: rgb(235, 240, 248); stroke-opacity: 1; stroke-width: 1px;"/><path class="ygrid crisp" transform="translate(0,223)" d="M310,0h364" style="stroke: rgb(235, 240, 248); stroke-opacity: 1; stroke-width: 1px;"/><path class="ygrid crisp" transform="translate(0,191.31)" d="M310,0h364" style="stroke: rgb(235, 240, 248); stroke-opacity: 1; stroke-width: 1px;"/><path class="ygrid crisp" transform="translate(0,159.62)" d="M310,0h364" style="stroke: rgb(235, 240, 248); stroke-opacity: 1; stroke-width: 1px;"/><path class="ygrid crisp" transform="translate(0,127.92)" d="M310,0h364" style="stroke: rgb(235, 240, 248); stroke-opacity: 1; stroke-width: 1px;"/></g></g><g class="zerolinelayer"/><path class="xlines-below"/><path class="ylines-below"/><g class="overlines-below"/><g class="xaxislayer-below"/><g class="yaxislayer-below"/><g class="overaxes-below"/><g class="plot" transform="translate(310,100)" clip-path="url(#clipebcb7bxyplot)"><g class="scatterlayer mlayer"><g class="trace scatter trace687fb3" style="stroke-miterlimit: 2; opacity: 1;"><g class="fills"/><g class="errorbars"/><g class="lines"/><g class="points"><path class="point" transform="translate(33.82,218.08)" d="M12.5,0A12.5,12.5 0 1,1 0,-12.5A12.5,12.5 0 0,1 12.5,0Z" style="opacity: 1; stroke-width: 5px; fill: rgb(152, 199, 133); fill-opacity: 1; stroke: rgb(152, 199, 133); stroke-opacity: 1;"/><path class="point" transform="translate(70.87,218.08)" d="M12.5,0A12.5,12.5 0 1,1 0,-12.5A12.5,12.5 0 0,1 12.5,0Z" style="opacity: 1; stroke-width: 5px; fill: rgb(152, 199, 133); fill-opacity: 1; stroke: rgb(152, 199, 133); stroke-opacity: 1;"/><path class="point" transform="translate(107.91,218.08)" d="M12.5,0A12.5,12.5 0 1,1 0,-12.5A12.5,12.5 0 0,1 12.5,0Z" style="opacity: 1; stroke-width: 5px; fill: rgb(152, 199, 133); fill-opacity: 1; stroke: rgb(152, 199, 133); stroke-opacity: 1;"/><path class="point" transform="translate(144.96,218.08)" d="M12.5,0A12.5,12.5 0 1,1 0,-12.5A12.5,12.5 0 0,1 12.5,0Z" style="opacity: 1; stroke-width: 5px; fill: rgb(152, 199, 133); fill-opacity: 1; stroke: rgb(152, 199, 133); stroke-opacity: 1;"/><path class="point" transform="translate(182,218.08)" d="M12.5,0A12.5,12.5 0 1,1 0,-12.5A12.5,12.5 0 0,1 12.5,0Z" style="opacity: 1; stroke-width: 5px; fill: rgb(152, 199, 133); fill-opacity: 1; stroke: rgb(152, 199, 133); stroke-opacity: 1;"/><path class="point" transform="translate(70.87,186.38)" d="M12.5,0A12.5,12.5 0 1,1 0,-12.5A12.5,12.5 0 0,1 12.5,0Z" style="opacity: 1; stroke-width: 5px; fill: rgb(152, 199, 133); fill-opacity: 1; stroke: rgb(152, 199, 133); stroke-opacity: 1;"/><path class="point" transform="translate(144.96,186.38)" d="M12.5,0A12.5,12.5 0 1,1 0,-12.5A12.5,12.5 0 0,1 12.5,0Z" style="opacity: 1; stroke-width: 5px; fill: rgb(152, 199, 133); fill-opacity: 1; stroke: rgb(152, 199, 133); stroke-opacity: 1;"/><path class="point" transform="translate(219.04,186.38)" d="M12.5,0A12.5,12.5 0 1,1 0,-12.5A12.5,12.5 0 0,1 12.5,0Z" style="opacity: 1; stroke-width: 5px; fill: rgb(152, 199, 133); fill-opacity: 1; stroke: rgb(152, 199, 133); stroke-opacity: 1;"/><path class="point" transform="translate(144.96,154.69)" d="M12.5,0A12.5,12.5 0 1,1 0,-12.5A12.5,12.5 0 0,1 12.5,0Z" style="opacity: 1; stroke-width: 5px; fill: rgb(152, 199, 133); fill-opacity: 1; stroke: rgb(152, 199, 133); stroke-opacity: 1;"/><path class="point" transform="translate(219.04,154.69)" d="M12.5,0A12.5,12.5 0 1,1 0,-12.5A12.5,12.5 0 0,1 12.5,0Z" style="opacity: 1; stroke-width: 5px; fill: rgb(152, 199, 133); fill-opacity: 1; stroke: rgb(152, 199, 133); stroke-opacity: 1;"/><path class="point" transform="translate(33.82,123)" d="M12.5,0A12.5,12.5 0 1,1 0,-12.5A12.5,12.5 0 0,1 12.5,0Z" style="opacity: 1; stroke-width: 5px; fill: rgb(152, 199, 133); fill-opacity: 1; stroke: rgb(152, 199, 133); stroke-opacity: 1;"/><path class="point" transform="translate(144.96,123)" d="M12.5,0A12.5,12.5 0 1,1 0,-12.5A12.5,12.5 0 0,1 12.5,0Z" style="opacity: 1; stroke-width: 5px; fill: rgb(152, 199, 133); fill-opacity: 1; stroke: rgb(152, 199, 133); stroke-opacity: 1;"/><path class="point" transform="translate(33.82,91.31)" d="M12.5,0A12.5,12.5 0 1,1 0,-12.5A12.5,12.5 0 0,1 12.5,0Z" style="opacity: 1; stroke-width: 5px; fill: rgb(152, 199, 133); fill-opacity: 1; stroke: rgb(152, 199, 133); stroke-opacity: 1;"/><path class="point" transform="translate(144.96,91.31)" d="M12.5,0A12.5,12.5 0 1,1 0,-12.5A12.5,12.5 0 0,1 12.5,0Z" style="opacity: 1; stroke-width: 5px; fill: rgb(152, 199, 133); fill-opacity: 1; stroke: rgb(152, 199, 133); stroke-opacity: 1;"/><path class="point" transform="translate(182,91.31)" d="M12.5,0A12.5,12.5 0 1,1 0,-12.5A12.5,12.5 0 0,1 12.5,0Z" style="opacity: 1; stroke-width: 5px; fill: rgb(152, 199, 133); fill-opacity: 1; stroke: rgb(152, 199, 133); stroke-opacity: 1;"/><path class="point" transform="translate(144.96,59.62)" d="M12.5,0A12.5,12.5 0 1,1 0,-12.5A12.5,12.5 0 0,1 12.5,0Z" style="opacity: 1; stroke-width: 5px; fill: rgb(152, 199, 133); fill-opacity: 1; stroke: rgb(152, 199, 133); stroke-opacity: 1;"/><path class="point" transform="translate(33.82,27.92)" d="M12.5,0A12.5,12.5 0 1,1 0,-12.5A12.5,12.5 0 0,1 12.5,0Z" style="opacity: 1; stroke-width: 5px; fill: rgb(152, 199, 133); fill-opacity: 1; stroke: rgb(152, 199, 133); stroke-opacity: 1;"/><path class="point" transform="translate(70.87,27.92)" d="M12.5,0A12.5,12.5 0 1,1 0,-12.5A12.5,12.5 0 0,1 12.5,0Z" style="opacity: 1; stroke-width: 5px; fill: rgb(152, 199, 133); fill-opacity: 1; stroke: rgb(152, 199, 133); stroke-opacity: 1;"/><path class="point" transform="translate(107.91,27.92)" d="M12.5,0A12.5,12.5 0 1,1 0,-12.5A12.5,12.5 0 0,1 12.5,0Z" style="opacity: 1; stroke-width: 5px; fill: rgb(152, 199, 133); fill-opacity: 1; stroke: rgb(152, 199, 133); stroke-opacity: 1;"/><path class="point" transform="translate(144.96,27.92)" d="M12.5,0A12.5,12.5 0 1,1 0,-12.5A12.5,12.5 0 0,1 12.5,0Z" style="opacity: 1; stroke-width: 5px; fill: rgb(152, 199, 133); fill-opacity: 1; stroke: rgb(152, 199, 133); stroke-opacity: 1;"/><path class="point" transform="translate(219.04,27.92)" d="M12.5,0A12.5,12.5 0 1,1 0,-12.5A12.5,12.5 0 0,1 12.5,0Z" style="opacity: 1; stroke-width: 5px; fill: rgb(152, 199, 133); fill-opacity: 1; stroke: rgb(152, 199, 133); stroke-opacity: 1;"/></g><g class="text"/></g><g class="trace scatter tracee8500b" style="stroke-miterlimit: 2; opacity: 1;"><g class="fills"/><g class="errorbars"/><g class="lines"/><g class="points"><path class="point" transform="translate(256.09,218.08)" d="M12.5,0A12.5,12.5 0 1,1 0,-12.5A12.5,12.5 0 0,1 12.5,0Z" style="opacity: 1; stroke-width: 5px; fill: rgb(255, 127, 127); fill-opacity: 1; stroke: rgb(255, 127, 127); stroke-opacity: 1;"/><path class="point" transform="translate(219.04,218.08)" d="M12.5,0A12.5,12.5 0 1,1 0,-12.5A12.5,12.5 0 0,1 12.5,0Z" style="opacity: 1; stroke-width: 5px; fill: rgb(255, 127, 127); fill-opacity: 1; stroke: rgb(255, 127, 127); stroke-opacity: 1;"/><path class="point" transform="translate(33.82,186.38)" d="M12.5,0A12.5,12.5 0 1,1 0,-12.5A12.5,12.5 0 0,1 12.5,0Z" style="opacity: 1; stroke-width: 5px; fill: rgb(255, 127, 127); fill-opacity: 1; stroke: rgb(255, 127, 127); stroke-opacity: 1;"/><path class="point" transform="translate(107.91,186.38)" d="M12.5,0A12.5,12.5 0 1,1 0,-12.5A12.5,12.5 0 0,1 12.5,0Z" style="opacity: 1; stroke-width: 5px; fill: rgb(255, 127, 127); fill-opacity: 1; stroke: rgb(255, 127, 127); stroke-opacity: 1;"/><path class="point" transform="translate(256.09,186.38)" d="M12.5,0A12.5,12.5 0 1,1 0,-12.5A12.5,12.5 0 0,1 12.5,0Z" style="opacity: 1; stroke-width: 5px; fill: rgb(255, 127, 127); fill-opacity: 1; stroke: rgb(255, 127, 127); stroke-opacity: 1;"/><path class="point" transform="translate(182,186.38)" d="M12.5,0A12.5,12.5 0 1,1 0,-12.5A12.5,12.5 0 0,1 12.5,0Z" style="opacity: 1; stroke-width: 5px; fill: rgb(255, 127, 127); fill-opacity: 1; stroke: rgb(255, 127, 127); stroke-opacity: 1;"/><path class="point" transform="translate(293.13,154.69)" d="M12.5,0A12.5,12.5 0 1,1 0,-12.5A12.5,12.5 0 0,1 12.5,0Z" style="opacity: 1; stroke-width: 5px; fill: rgb(255, 127, 127); fill-opacity: 1; stroke: rgb(255, 127, 127); stroke-opacity: 1;"/><path class="point" transform="translate(70.87,154.69)" d="M12.5,0A12.5,12.5 0 1,1 0,-12.5A12.5,12.5 0 0,1 12.5,0Z" style="opacity: 1; stroke-width: 5px; fill: rgb(255, 127, 127); fill-opacity: 1; stroke: rgb(255, 127, 127); stroke-opacity: 1;"/><path class="point" transform="translate(107.91,154.69)" d="M12.5,0A12.5,12.5 0 1,1 0,-12.5A12.5,12.5 0 0,1 12.5,0Z" style="opacity: 1; stroke-width: 5px; fill: rgb(255, 127, 127); fill-opacity: 1; stroke: rgb(255, 127, 127); stroke-opacity: 1;"/><path class="point" transform="translate(256.09,154.69)" d="M12.5,0A12.5,12.5 0 1,1 0,-12.5A12.5,12.5 0 0,1 12.5,0Z" style="opacity: 1; stroke-width: 5px; fill: rgb(255, 127, 127); fill-opacity: 1; stroke: rgb(255, 127, 127); stroke-opacity: 1;"/><path class="point" transform="translate(182,154.69)" d="M12.5,0A12.5,12.5 0 1,1 0,-12.5A12.5,12.5 0 0,1 12.5,0Z" style="opacity: 1; stroke-width: 5px; fill: rgb(255, 127, 127); fill-opacity: 1; stroke: rgb(255, 127, 127); stroke-opacity: 1;"/><path class="point" transform="translate(70.87,123)" d="M12.5,0A12.5,12.5 0 1,1 0,-12.5A12.5,12.5 0 0,1 12.5,0Z" style="opacity: 1; stroke-width: 5px; fill: rgb(255, 127, 127); fill-opacity: 1; stroke: rgb(255, 127, 127); stroke-opacity: 1;"/><path class="point" transform="translate(107.91,123)" d="M12.5,0A12.5,12.5 0 1,1 0,-12.5A12.5,12.5 0 0,1 12.5,0Z" style="opacity: 1; stroke-width: 5px; fill: rgb(255, 127, 127); fill-opacity: 1; stroke: rgb(255, 127, 127); stroke-opacity: 1;"/><path class="point" transform="translate(256.09,123)" d="M12.5,0A12.5,12.5 0 1,1 0,-12.5A12.5,12.5 0 0,1 12.5,0Z" style="opacity: 1; stroke-width: 5px; fill: rgb(255, 127, 127); fill-opacity: 1; stroke: rgb(255, 127, 127); stroke-opacity: 1;"/><path class="point" transform="translate(330.17,123)" d="M12.5,0A12.5,12.5 0 1,1 0,-12.5A12.5,12.5 0 0,1 12.5,0Z" style="opacity: 1; stroke-width: 5px; fill: rgb(255, 127, 127); fill-opacity: 1; stroke: rgb(255, 127, 127); stroke-opacity: 1;"/><path class="point" transform="translate(182,123)" d="M12.5,0A12.5,12.5 0 1,1 0,-12.5A12.5,12.5 0 0,1 12.5,0Z" style="opacity: 1; stroke-width: 5px; fill: rgb(255, 127, 127); fill-opacity: 1; stroke: rgb(255, 127, 127); stroke-opacity: 1;"/><path class="point" transform="translate(219.04,123)" d="M12.5,0A12.5,12.5 0 1,1 0,-12.5A12.5,12.5 0 0,1 12.5,0Z" style="opacity: 1; stroke-width: 5px; fill: rgb(255, 127, 127); fill-opacity: 1; stroke: rgb(255, 127, 127); stroke-opacity: 1;"/><path class="point" transform="translate(70.87,91.31)" d="M12.5,0A12.5,12.5 0 1,1 0,-12.5A12.5,12.5 0 0,1 12.5,0Z" style="opacity: 1; stroke-width: 5px; fill: rgb(255, 127, 127); fill-opacity: 1; stroke: rgb(255, 127, 127); stroke-opacity: 1;"/><path class="point" transform="translate(107.91,91.31)" d="M12.5,0A12.5,12.5 0 1,1 0,-12.5A12.5,12.5 0 0,1 12.5,0Z" style="opacity: 1; stroke-width: 5px; fill: rgb(255, 127, 127); fill-opacity: 1; stroke: rgb(255, 127, 127); stroke-opacity: 1;"/><path class="point" transform="translate(256.09,91.31)" d="M12.5,0A12.5,12.5 0 1,1 0,-12.5A12.5,12.5 0 0,1 12.5,0Z" style="opacity: 1; stroke-width: 5px; fill: rgb(255, 127, 127); fill-opacity: 1; stroke: rgb(255, 127, 127); stroke-opacity: 1;"/><path class="point" transform="translate(219.04,91.31)" d="M12.5,0A12.5,12.5 0 1,1 0,-12.5A12.5,12.5 0 0,1 12.5,0Z" style="opacity: 1; stroke-width: 5px; fill: rgb(255, 127, 127); fill-opacity: 1; stroke: rgb(255, 127, 127); stroke-opacity: 1;"/><path class="point" transform="translate(33.82,59.62)" d="M12.5,0A12.5,12.5 0 1,1 0,-12.5A12.5,12.5 0 0,1 12.5,0Z" style="opacity: 1; stroke-width: 5px; fill: rgb(255, 127, 127); fill-opacity: 1; stroke: rgb(255, 127, 127); stroke-opacity: 1;"/><path class="point" transform="translate(70.87,59.62)" d="M12.5,0A12.5,12.5 0 1,1 0,-12.5A12.5,12.5 0 0,1 12.5,0Z" style="opacity: 1; stroke-width: 5px; fill: rgb(255, 127, 127); fill-opacity: 1; stroke: rgb(255, 127, 127); stroke-opacity: 1;"/><path class="point" transform="translate(107.91,59.62)" d="M12.5,0A12.5,12.5 0 1,1 0,-12.5A12.5,12.5 0 0,1 12.5,0Z" style="opacity: 1; stroke-width: 5px; fill: rgb(255, 127, 127); fill-opacity: 1; stroke: rgb(255, 127, 127); stroke-opacity: 1;"/><path class="point" transform="translate(256.09,59.62)" d="M12.5,0A12.5,12.5 0 1,1 0,-12.5A12.5,12.5 0 0,1 12.5,0Z" style="opacity: 1; stroke-width: 5px; fill: rgb(255, 127, 127); fill-opacity: 1; stroke: rgb(255, 127, 127); stroke-opacity: 1;"/><path class="point" transform="translate(330.17,59.62)" d="M12.5,0A12.5,12.5 0 1,1 0,-12.5A12.5,12.5 0 0,1 12.5,0Z" style="opacity: 1; stroke-width: 5px; fill: rgb(255, 127, 127); fill-opacity: 1; stroke: rgb(255, 127, 127); stroke-opacity: 1;"/><path class="point" transform="translate(182,59.62)" d="M12.5,0A12.5,12.5 0 1,1 0,-12.5A12.5,12.5 0 0,1 12.5,0Z" style="opacity: 1; stroke-width: 5px; fill: rgb(255, 127, 127); fill-opacity: 1; stroke: rgb(255, 127, 127); stroke-opacity: 1;"/><path class="point" transform="translate(219.04,59.62)" d="M12.5,0A12.5,12.5 0 1,1 0,-12.5A12.5,12.5 0 0,1 12.5,0Z" style="opacity: 1; stroke-width: 5px; fill: rgb(255, 127, 127); fill-opacity: 1; stroke: rgb(255, 127, 127); stroke-opacity: 1;"/><path class="point" transform="translate(256.09,27.92)" d="M12.5,0A12.5,12.5 0 1,1 0,-12.5A12.5,12.5 0 0,1 12.5,0Z" style="opacity: 1; stroke-width: 5px; fill: rgb(255, 127, 127); fill-opacity: 1; stroke: rgb(255, 127, 127); stroke-opacity: 1;"/></g><g class="text"/></g><g class="trace scatter trace1a5605" style="stroke-miterlimit: 2; opacity: 1;"><g class="fills"/><g class="errorbars"/><g class="lines"/><g class="points"><path class="point" transform="translate(182,27.92)" d="M12.5,0A12.5,12.5 0 1,1 0,-12.5A12.5,12.5 0 0,1 12.5,0Z" style="opacity: 1; stroke-width: 5px; fill: rgb(228, 228, 228); fill-opacity: 1; stroke: rgb(152, 199, 133); stroke-opacity: 1;"/></g><g class="text"/></g><g class="trace scatter tracebc6707" style="stroke-miterlimit: 2; opacity: 1;"><g class="fills"/><g class="errorbars"/><g class="lines"/><g class="points"><path class="point" transform="translate(330.17,218.08)" d="M12.5,0A12.5,12.5 0 1,1 0,-12.5A12.5,12.5 0 0,1 12.5,0Z" style="opacity: 1; stroke-width: 5px; fill: rgb(228, 228, 228); fill-opacity: 1; stroke: rgb(255, 127, 127); stroke-opacity: 1;"/><path class="point" transform="translate(330.17,186.38)" d="M12.5,0A12.5,12.5 0 1,1 0,-12.5A12.5,12.5 0 0,1 12.5,0Z" style="opacity: 1; stroke-width: 5px; fill: rgb(228, 228, 228); fill-opacity: 1; stroke: rgb(255, 127, 127); stroke-opacity: 1;"/><path class="point" transform="translate(330.17,154.69)" d="M12.5,0A12.5,12.5 0 1,1 0,-12.5A12.5,12.5 0 0,1 12.5,0Z" style="opacity: 1; stroke-width: 5px; fill: rgb(228, 228, 228); fill-opacity: 1; stroke: rgb(255, 127, 127); stroke-opacity: 1;"/><path class="point" transform="translate(330.17,91.31)" d="M12.5,0A12.5,12.5 0 1,1 0,-12.5A12.5,12.5 0 0,1 12.5,0Z" style="opacity: 1; stroke-width: 5px; fill: rgb(228, 228, 228); fill-opacity: 1; stroke: rgb(255, 127, 127); stroke-opacity: 1;"/><path class="point" transform="translate(330.17,27.92)" d="M12.5,0A12.5,12.5 0 1,1 0,-12.5A12.5,12.5 0 0,1 12.5,0Z" style="opacity: 1; stroke-width: 5px; fill: rgb(228, 228, 228); fill-opacity: 1; stroke: rgb(255, 127, 127); stroke-opacity: 1;"/></g><g class="text"/></g></g></g><g class="overplot"/><path class="xlines-above crisp" d="M0,0" style="fill: none;"/><path class="ylines-above crisp" d="M0,0" style="fill: none;"/><g class="overlines-above"/><g class="xaxislayer-above"><g class="xtick"><text text-anchor="start" x="2.0999999999999996" y="353" transform="translate(343.82,0) rotate(90,2.0999999999999996,347)" style="font-family: 'Open Sans', verdana, arial, sans-serif; font-size: 12px; fill: rgb(42, 63, 95); fill-opacity: 1; white-space: pre; opacity: 1;">Chlorophyll-<tspan style="font-style:italic">a</tspan></text></g><g class="xtick"><text text-anchor="start" x="2.0999999999999996" y="353" transform="translate(380.87,0) rotate(90,2.0999999999999996,347)" style="font-family: 'Open Sans', verdana, arial, sans-serif; font-size: 12px; fill: rgb(42, 63, 95); fill-opacity: 1; white-space: pre; opacity: 1;">Dissolved Oxygen Saturation</text></g><g class="xtick"><text text-anchor="start" x="2.0999999999999996" y="353" transform="translate(417.90999999999997,0) rotate(90,2.0999999999999996,347)" style="font-family: 'Open Sans', verdana, arial, sans-serif; font-size: 12px; fill: rgb(42, 63, 95); fill-opacity: 1; white-space: pre; opacity: 1;">Dissolved Reactive Phosphorus</text></g><g class="xtick"><text text-anchor="start" x="2.0999999999999996" y="353" transform="translate(454.96000000000004,0) rotate(90,2.0999999999999996,347)" style="font-family: 'Open Sans', verdana, arial, sans-serif; font-size: 12px; fill: rgb(42, 63, 95); fill-opacity: 1; white-space: pre; opacity: 1;">Ammoniacal Nitrogen</text></g><g class="xtick"><text text-anchor="start" x="2.0999999999999996" y="353" transform="translate(492,0) rotate(90,2.0999999999999996,347)" style="font-family: 'Open Sans', verdana, arial, sans-serif; font-size: 12px; fill: rgb(42, 63, 95); fill-opacity: 1; white-space: pre; opacity: 1;">Soluble Inorganic Nitrogen</text></g><g class="xtick"><text text-anchor="start" x="2.0999999999999996" y="353" transform="translate(529.04,0) rotate(90,2.0999999999999996,347)" style="font-family: 'Open Sans', verdana, arial, sans-serif; font-size: 12px; fill: rgb(42, 63, 95); fill-opacity: 1; white-space: pre; opacity: 1;">Temperature</text></g><g class="xtick"><text text-anchor="start" x="2.0999999999999996" y="353" transform="translate(566.0899999999999,0) rotate(90,2.0999999999999996,347)translate(0,-7.800000000000001)" style="font-family: 'Open Sans', verdana, arial, sans-serif; font-size: 12px; fill: rgb(42, 63, 95); fill-opacity: 1; white-space: pre; opacity: 1;"><tspan class="line" dy="0em" x="2.0999999999999996" y="353"><tspan style="font-style:italic">E. coli</tspan> </tspan><tspan class="line" dy="1.3em" x="2.0999999999999996" y="353">(all year)</tspan></text></g><g class="xtick"><text text-anchor="start" x="2.0999999999999996" y="353" transform="translate(603.13,0) rotate(90,2.0999999999999996,347)" style="font-family: 'Open Sans', verdana, arial, sans-serif; font-size: 12px; fill: rgb(42, 63, 95); fill-opacity: 1; white-space: pre; opacity: 1;">Visual Clarity</text></g><g class="xtick"><text text-anchor="start" x="2.0999999999999996" y="353" transform="translate(640.1700000000001,0) rotate(90,2.0999999999999996,347)translate(0,-7.800000000000001)" style="font-family: 'Open Sans', verdana, arial, sans-serif; font-size: 12px; fill: rgb(42, 63, 95); fill-opacity: 1; white-space: pre; opacity: 1;"><tspan class="line" dy="0em" x="2.0999999999999996" y="353"><tspan style="font-style:italic">E. coli</tspan> </tspan><tspan class="line" dy="1.3em" x="2.0999999999999996" y="353">(bathing season)</tspan></text></g></g><g class="yaxislayer-above"><g class="ytick"><text text-anchor="end" x="309" y="4.199999999999999" transform="translate(0,318.08000000000004)" style="font-family: 'Open Sans', verdana, arial, sans-serif; font-size: 12px; fill: rgb(42, 63, 95); fill-opacity: 1; white-space: pre; opacity: 1;">Akitio Estuary at Coast Rd Bridge</text></g><g class="ytick"><text text-anchor="end" x="309" y="4.199999999999999" transform="translate(0,286.38)" style="font-family: 'Open Sans', verdana, arial, sans-serif; font-size: 12px; fill: rgb(42, 63, 95); fill-opacity: 1; white-space: pre; opacity: 1;">Manawatu at Foxton</text></g><g class="ytick"><text text-anchor="end" x="309" y="4.199999999999999" transform="translate(0,254.69)" style="font-family: 'Open Sans', verdana, arial, sans-serif; font-size: 12px; fill: rgb(42, 63, 95); fill-opacity: 1; white-space: pre; opacity: 1;">Mowhanau Stream at Footbridge</text></g><g class="ytick"><text text-anchor="end" x="309" y="4.199999999999999" transform="translate(0,223)" style="font-family: 'Open Sans', verdana, arial, sans-serif; font-size: 12px; fill: rgb(42, 63, 95); fill-opacity: 1; white-space: pre; opacity: 1;">Ohau at Estuary</text></g><g class="ytick"><text text-anchor="end" x="309" y="4.199999999999999" transform="translate(0,191.31)" style="font-family: 'Open Sans', verdana, arial, sans-serif; font-size: 12px; fill: rgb(42, 63, 95); fill-opacity: 1; white-space: pre; opacity: 1;">Rangitikei Estuary at River Mouth</text></g><g class="ytick"><text text-anchor="end" x="309" y="4.199999999999999" transform="translate(0,159.62)" style="font-family: 'Open Sans', verdana, arial, sans-serif; font-size: 12px; fill: rgb(42, 63, 95); fill-opacity: 1; white-space: pre; opacity: 1;">Waikawa Estuary at Footbridge</text></g><g class="ytick"><text text-anchor="end" x="309" y="4.199999999999999" transform="translate(0,127.92)" style="font-family: 'Open Sans', verdana, arial, sans-serif; font-size: 12px; fill: rgb(42, 63, 95); fill-opacity: 1; white-space: pre; opacity: 1;">Whanganui Estuary at Wharf St Boat Ramp</text></g></g><g class="overaxes-above"/></g></g><g class="polarlayer"/><g class="smithlayer"/><g class="ternarylayer"/><g class="geolayer"/><g class="funnelarealayer"/><g class="pielayer"/><g class="iciclelayer"/><g class="treemaplayer"/><g class="sunburstlayer"/><g class="glimages"/><defs id="topdefs-ebcb7b"><g class="clips"/><clipPath id="legendebcb7b"><rect width="146" height="86" x="0" y="0"/></clipPath></defs><g class="layer-above"><g class="imagelayer"/><g class="shapelayer"/></g><g class="infolayer"><g class="legend" pointer-events="all" transform="translate(692.2,100)"><rect class="bg" shape-rendering="crispEdges" width="146" height="86" x="0" y="0" style="stroke: rgb(68, 68, 68); stroke-opacity: 1; fill: rgb(255, 255, 255); fill-opacity: 1; stroke-width: 0px;"/><g class="scrollbox" transform="" clip-path="url(#legendebcb7b)"><g class="groups"><g class="traces" transform="translate(0,14.5)" style="opacity: 1;"><text class="legendtext" text-anchor="start" x="50" y="4.680000000000001" style="font-family: 'Open Sans', verdana, arial, sans-serif; font-size: 12px; fill: rgb(42, 63, 95); fill-opacity: 1; white-space: pre;">PASS (Final)</text><g class="layers" style="opacity: 1;"><g class="legendfill"/><g class="legendlines"/><g class="legendsymbols"><g class="legendpoints"><path class="scatterpts" transform="translate(25,0)" d="M6,0A6,6 0 1,1 0,-6A6,6 0 0,1 6,0Z" style="opacity: 1; stroke-width: 2px; fill: rgb(152, 199, 133); fill-opacity: 1; stroke: rgb(152, 199, 133); stroke-opacity: 1;"/></g></g></g><rect class="legendtoggle" x="0" y="-9.5" width="141" height="19" style="fill: rgb(0, 0, 0); fill-opacity: 0;"/></g><g class="traces" transform="translate(0,33.5)" style="opacity: 1;"><text class="legendtext" text-anchor="start" x="50" y="4.680000000000001" style="font-family: 'Open Sans', verdana, arial, sans-serif; font-size: 12px; fill: rgb(42, 63, 95); fill-opacity: 1; white-space: pre;">FAIL (Final)</text><g class="layers" style="opacity: 1;"><g class="legendfill"/><g class="legendlines"/><g class="legendsymbols"><g class="legendpoints"><path class="scatterpts" transform="translate(25,0)" d="M6,0A6,6 0 1,1 0,-6A6,6 0 0,1 6,0Z" style="opacity: 1; stroke-width: 2px; fill: rgb(255, 127, 127); fill-opacity: 1; stroke: rgb(255, 127, 127); stroke-opacity: 1;"/></g></g></g><rect class="legendtoggle" x="0" y="-9.5" width="141" height="19" style="fill: rgb(0, 0, 0); fill-opacity: 0;"/></g><g class="traces" transform="translate(0,52.5)" style="opacity: 1;"><text class="legendtext" text-anchor="start" x="50" y="4.680000000000001" style="font-family: 'Open Sans', verdana, arial, sans-serif; font-size: 12px; fill: rgb(42, 63, 95); fill-opacity: 1; white-space: pre;">PASS (Interim)</text><g class="layers" style="opacity: 1;"><g class="legendfill"/><g class="legendlines"/><g class="legendsymbols"><g class="legendpoints"><path class="scatterpts" transform="translate(25,0)" d="M6,0A6,6 0 1,1 0,-6A6,6 0 0,1 6,0Z" style="opacity: 1; stroke-width: 2px; fill: rgb(228, 228, 228); fill-opacity: 1; stroke: rgb(152, 199, 133); stroke-opacity: 1;"/></g></g></g><rect class="legendtoggle" x="0" y="-9.5" width="141" height="19" style="fill: rgb(0, 0, 0); fill-opacity: 0;"/></g><g class="traces" transform="translate(0,71.5)" style="opacity: 1;"><text class="legendtext" text-anchor="start" x="50" y="4.680000000000001" style="font-family: 'Open Sans', verdana, arial, sans-serif; font-size: 12px; fill: rgb(42, 63, 95); fill-opacity: 1; white-space: pre;">FAIL (Interim)</text><g class="layers" style="opacity: 1;"><g class="legendfill"/><g class="legendlines"/><g class="legendsymbols"><g class="legendpoints"><path class="scatterpts" transform="translate(25,0)" d="M6,0A6,6 0 1,1 0,-6A6,6 0 0,1 6,0Z" style="opacity: 1; stroke-width: 2px; fill: rgb(228, 228, 228); fill-opacity: 1; stroke: rgb(255, 127, 127); stroke-opacity: 1;"/></g></g></g><rect class="legendtoggle" x="0" y="-9.5" width="141" height="19" style="fill: rgb(0, 0, 0); fill-opacity: 0;"/></g></g></g><rect class="scrollbar" rx="20" ry="3" width="0" height="0" x="0" y="0" style="fill: rgb(128, 139, 164); fill-opacity: 1;"/></g><g class="g-gtitle"/><g class="g-xtitle"/><g class="g-ytitle"/></g></svg>