<svg class="main-svg" xmlns="http://www.w3.org/2000/svg" xmlns:xlink="http://www.w3.org/1999/xlink" width="820" height="410" style="" viewBox="0 0 820 410"><rect x="0" y="0" width="820" height="410" style="fill: rgb(255, 255, 255); fill-opacity: 1;"/><defs id="defs-112022"><g class="clips"><clipPath id="clip112022xyplot" class="plotclip"><rect width="349" height="140"/></clipPath><clipPath class="axesclip" id="clip112022x"><rect x="296" y="0" width="349" height="410"/></clipPath><clipPath class="axesclip" id="clip112022y"><rect x="0" y="100" width="820" height="140"/></clipPath><clipPath class="axesclip" id="clip112022xy"><rect x="296" y="100" width="349" height="140"/></clipPath></g><g class="gradients"/><g class="patterns"/></defs><g class="bglayer"/><g class="layer-below"><g class="imagelayer"/><g class="shapelayer"/></g><g class="cartesianlayer"><g class="subplot xy"><g class="layer-subplot"><g class="shapelayer"/><g class="imagelayer"/></g><g class="minor-gridlayer"><g class="x"/><g class="y"/></g><g class="gridlayer"><g class="x"><path class="xgrid crisp" transform="translate(329.08,0)" d="M0,100v140" style="stroke: rgb(235, 240, 248); stroke-opacity: 1; stroke-width: 1px;"/><path class="xgrid crisp" transform="translate(369.48,0)" d="M0,100v140" style="stroke: rgb(235, 240, 248); stroke-opacity: 1; stroke-width: 1px;"/><path class="xgrid crisp" transform="translate(409.89,0)" d="M0,100v140" style="stroke: rgb(235, 240, 248); stroke-opacity: 1; stroke-width: 1px;"/><path class="xgrid crisp" transform="translate(450.3,0)" d="M0,100v140" style="stroke: rgb(235, 240, 248); stroke-opacity: 1; stroke-width: 1px;"/><path class="xgrid crisp" transform="translate(490.7,0)" d="M0,100v140" style="stroke: rgb(235, 240, 248); stroke-opacity: 1; stroke-width: 1px;"/><path class="xgrid crisp" transform="translate(531.11,0)" d="M0,100v140" style="stroke: rgb(235, 240, 248); stroke-opacity: 1; stroke-width: 1px;"/><path class="xgrid crisp" transform="translate(571.52,0)" d="M0,100v140" style="stroke: rgb(235, 240, 248); stroke-opacity: 1; stroke-width: 1px;"/><path class="xgrid crisp" transform="translate(611.9300000000001,0)" d="M0,100v140" style="stroke: rgb(235, 240, 248); stroke-opacity: 1; stroke-width: 1px;"/></g><g class="y"><path class="ygrid crisp" transform="translate(0,217.38)" d="M296,0h349" style="stroke: rgb(235, 240, 248); stroke-opacity: 1; stroke-width: 1px;"/><path class="ygrid crisp" transform="translate(0,185.79000000000002)" d="M296,0h349" style="stroke: rgb(235, 240, 248); stroke-opacity: 1; stroke-width: 1px;"/><path class="ygrid crisp" transform="translate(0,154.21)" d="M296,0h349" style="stroke: rgb(235, 240, 248); stroke-opacity: 1; stroke-width: 1px;"/><path class="ygrid crisp" transform="translate(0,122.63)" d="M296,0h349" style="stroke: rgb(235, 240, 248); stroke-opacity: 1; stroke-width: 1px;"/></g></g><g class="zerolinelayer"/><path class="xlines-below"/><path class="ylines-below"/><g class="overlines-below"/><g class="xaxislayer-below"/><g class="yaxislayer-below"/><g class="overaxes-below"/><g class="plot" transform="translate(296,100)" clip-path="url(#clip112022xyplot)"><g class="scatterlayer mlayer"><g class="trace scatter trace187399" style="stroke-miterlimit: 2; opacity: 1;"><g class="fills"/><g class="errorbars"/><g class="lines"/><g class="points"><path class="point" transform="translate(33.08,117.38)" d="M12.5,0A12.5,12.5 0 1,1 0,-12.5A12.5,12.5 0 0,1 12.5,0Z" style="opacity: 1; stroke-width: 5px; fill: rgb(152, 199, 133); fill-opacity: 1; stroke: rgb(152, 199, 133); stroke-opacity: 1;"/><path class="point" transform="translate(73.48,117.38)" d="M12.5,0A12.5,12.5 0 1,1 0,-12.5A12.5,12.5 0 0,1 12.5,0Z" style="opacity: 1; stroke-width: 5px; fill: rgb(152, 199, 133); fill-opacity: 1; stroke: rgb(152, 199, 133); stroke-opacity: 1;"/><path class="point" transform="translate(113.89,117.38)" d="M12.5,0A12.5,12.5 0 1,1 0,-12.5A12.5,12.5 0 0,1 12.5,0Z" style="opacity: 1; stroke-width: 5px; fill: rgb(152, 199, 133); fill-opacity: 1; stroke: rgb(152, 199, 133); stroke-opacity: 1;"/><path class="point" transform="translate(154.3,117.38)" d="M12.5,0A12.5,12.5 0 1,1 0,-12.5A12.5,12.5 0 0,1 12.5,0Z" style="opacity: 1; stroke-width: 5px; fill: rgb(152, 199, 133); fill-opacity: 1; stroke: rgb(152, 199, 133); stroke-opacity: 1;"/><path class="point" transform="translate(154.3,85.79)" d="M12.5,0A12.5,12.5 0 1,1 0,-12.5A12.5,12.5 0 0,1 12.5,0Z" style="opacity: 1; stroke-width: 5px; fill: rgb(152, 199, 133); fill-opacity: 1; stroke: rgb(152, 199, 133); stroke-opacity: 1;"/><path class="point" transform="translate(33.08,54.21)" d="M12.5,0A12.5,12.5 0 1,1 0,-12.5A12.5,12.5 0 0,1 12.5,0Z" style="opacity: 1; stroke-width: 5px; fill: rgb(152, 199, 133); fill-opacity: 1; stroke: rgb(152, 199, 133); stroke-opacity: 1;"/><path class="point" transform="translate(154.3,54.21)" d="M12.5,0A12.5,12.5 0 1,1 0,-12.5A12.5,12.5 0 0,1 12.5,0Z" style="opacity: 1; stroke-width: 5px; fill: rgb(152, 199, 133); fill-opacity: 1; stroke: rgb(152, 199, 133); stroke-opacity: 1;"/><path class="point" transform="translate(73.48,22.63)" d="M12.5,0A12.5,12.5 0 1,1 0,-12.5A12.5,12.5 0 0,1 12.5,0Z" style="opacity: 1; stroke-width: 5px; fill: rgb(152, 199, 133); fill-opacity: 1; stroke: rgb(152, 199, 133); stroke-opacity: 1;"/><path class="point" transform="translate(154.3,22.63)" d="M12.5,0A12.5,12.5 0 1,1 0,-12.5A12.5,12.5 0 0,1 12.5,0Z" style="opacity: 1; stroke-width: 5px; fill: rgb(152, 199, 133); fill-opacity: 1; stroke: rgb(152, 199, 133); stroke-opacity: 1;"/></g><g class="text"/></g><g class="trace scatter trace609e85" style="stroke-miterlimit: 2; opacity: 1;"><g class="fills"/><g class="errorbars"/><g class="lines"/><g class="points"><path class="point" transform="translate(194.7,117.38)" d="M12.5,0A12.5,12.5 0 1,1 0,-12.5A12.5,12.5 0 0,1 12.5,0Z" style="opacity: 1; stroke-width: 5px; fill: rgb(255, 127, 127); fill-opacity: 1; stroke: rgb(255, 127, 127); stroke-opacity: 1;"/><path class="point" transform="translate(235.11,117.38)" d="M12.5,0A12.5,12.5 0 1,1 0,-12.5A12.5,12.5 0 0,1 12.5,0Z" style="opacity: 1; stroke-width: 5px; fill: rgb(255, 127, 127); fill-opacity: 1; stroke: rgb(255, 127, 127); stroke-opacity: 1;"/><path class="point" transform="translate(33.08,85.79)" d="M12.5,0A12.5,12.5 0 1,1 0,-12.5A12.5,12.5 0 0,1 12.5,0Z" style="opacity: 1; stroke-width: 5px; fill: rgb(255, 127, 127); fill-opacity: 1; stroke: rgb(255, 127, 127); stroke-opacity: 1;"/><path class="point" transform="translate(73.48,85.79)" d="M12.5,0A12.5,12.5 0 1,1 0,-12.5A12.5,12.5 0 0,1 12.5,0Z" style="opacity: 1; stroke-width: 5px; fill: rgb(255, 127, 127); fill-opacity: 1; stroke: rgb(255, 127, 127); stroke-opacity: 1;"/><path class="point" transform="translate(113.89,85.79)" d="M12.5,0A12.5,12.5 0 1,1 0,-12.5A12.5,12.5 0 0,1 12.5,0Z" style="opacity: 1; stroke-width: 5px; fill: rgb(255, 127, 127); fill-opacity: 1; stroke: rgb(255, 127, 127); stroke-opacity: 1;"/><path class="point" transform="translate(194.7,85.79)" d="M12.5,0A12.5,12.5 0 1,1 0,-12.5A12.5,12.5 0 0,1 12.5,0Z" style="opacity: 1; stroke-width: 5px; fill: rgb(255, 127, 127); fill-opacity: 1; stroke: rgb(255, 127, 127); stroke-opacity: 1;"/><path class="point" transform="translate(235.11,85.79)" d="M12.5,0A12.5,12.5 0 1,1 0,-12.5A12.5,12.5 0 0,1 12.5,0Z" style="opacity: 1; stroke-width: 5px; fill: rgb(255, 127, 127); fill-opacity: 1; stroke: rgb(255, 127, 127); stroke-opacity: 1;"/><path class="point" transform="translate(73.48,54.21)" d="M12.5,0A12.5,12.5 0 1,1 0,-12.5A12.5,12.5 0 0,1 12.5,0Z" style="opacity: 1; stroke-width: 5px; fill: rgb(255, 127, 127); fill-opacity: 1; stroke: rgb(255, 127, 127); stroke-opacity: 1;"/><path class="point" transform="translate(113.89,54.21)" d="M12.5,0A12.5,12.5 0 1,1 0,-12.5A12.5,12.5 0 0,1 12.5,0Z" style="opacity: 1; stroke-width: 5px; fill: rgb(255, 127, 127); fill-opacity: 1; stroke: rgb(255, 127, 127); stroke-opacity: 1;"/><path class="point" transform="translate(194.7,54.21)" d="M12.5,0A12.5,12.5 0 1,1 0,-12.5A12.5,12.5 0 0,1 12.5,0Z" style="opacity: 1; stroke-width: 5px; fill: rgb(255, 127, 127); fill-opacity: 1; stroke: rgb(255, 127, 127); stroke-opacity: 1;"/><path class="point" transform="translate(235.11,54.21)" d="M12.5,0A12.5,12.5 0 1,1 0,-12.5A12.5,12.5 0 0,1 12.5,0Z" style="opacity: 1; stroke-width: 5px; fill: rgb(255, 127, 127); fill-opacity: 1; stroke: rgb(255, 127, 127); stroke-opacity: 1;"/><path class="point" transform="translate(33.08,22.63)" d="M12.5,0A12.5,12.5 0 1,1 0,-12.5A12.5,12.5 0 0,1 12.5,0Z" style="opacity: 1; stroke-width: 5px; fill: rgb(255, 127, 127); fill-opacity: 1; stroke: rgb(255, 127, 127); stroke-opacity: 1;"/><path class="point" transform="translate(113.89,22.63)" d="M12.5,0A12.5,12.5 0 1,1 0,-12.5A12.5,12.5 0 0,1 12.5,0Z" style="opacity: 1; stroke-width: 5px; fill: rgb(255, 127, 127); fill-opacity: 1; stroke: rgb(255, 127, 127); stroke-opacity: 1;"/><path class="point" transform="translate(194.7,22.63)" d="M12.5,0A12.5,12.5 0 1,1 0,-12.5A12.5,12.5 0 0,1 12.5,0Z" style="opacity: 1; stroke-width: 5px; fill: rgb(255, 127, 127); fill-opacity: 1; stroke: rgb(255, 127, 127); stroke-opacity: 1;"/><path class="point" transform="translate(235.11,22.63)" d="M12.5,0A12.5,12.5 0 1,1 0,-12.5A12.5,12.5 0 0,1 12.5,0Z" style="opacity: 1; stroke-width: 5px; fill: rgb(255, 127, 127); fill-opacity: 1; stroke: rgb(255, 127, 127); stroke-opacity: 1;"/></g><g class="text"/></g><g class="trace scatter trace7e5c10" style="stroke-miterlimit: 2; opacity: 1;"><g class="fills"/><g class="errorbars"/><g class="lines"/><g class="points"><path class="point" transform="translate(275.52,117.38)" d="M12.5,0A12.5,12.5 0 1,1 0,-12.5A12.5,12.5 0 0,1 12.5,0Z" style="opacity: 1; stroke-width: 5px; fill: rgb(228, 228, 228); fill-opacity: 1; stroke: rgb(152, 199, 133); stroke-opacity: 1;"/></g><g class="text"/></g><g class="trace scatter trace7411f5" style="stroke-miterlimit: 2; opacity: 1;"><g class="fills"/><g class="errorbars"/><g class="lines"/><g class="points"><path class="point" transform="translate(315.93,117.38)" d="M12.5,0A12.5,12.5 0 1,1 0,-12.5A12.5,12.5 0 0,1 12.5,0Z" style="opacity: 1; stroke-width: 5px; fill: rgb(228, 228, 228); fill-opacity: 1; stroke: rgb(255, 127, 127); stroke-opacity: 1;"/><path class="point" transform="translate(315.93,85.79)" d="M12.5,0A12.5,12.5 0 1,1 0,-12.5A12.5,12.5 0 0,1 12.5,0Z" style="opacity: 1; stroke-width: 5px; fill: rgb(228, 228, 228); fill-opacity: 1; stroke: rgb(255, 127, 127); stroke-opacity: 1;"/><path class="point" transform="translate(275.52,85.79)" d="M12.5,0A12.5,12.5 0 1,1 0,-12.5A12.5,12.5 0 0,1 12.5,0Z" style="opacity: 1; stroke-width: 5px; fill: rgb(228, 228, 228); fill-opacity: 1; stroke: rgb(255, 127, 127); stroke-opacity: 1;"/><path class="point" transform="translate(315.93,54.21)" d="M12.5,0A12.5,12.5 0 1,1 0,-12.5A12.5,12.5 0 0,1 12.5,0Z" style="opacity: 1; stroke-width: 5px; fill: rgb(228, 228, 228); fill-opacity: 1; stroke: rgb(255, 127, 127); stroke-opacity: 1;"/><path class="point" transform="translate(275.52,54.21)" d="M12.5,0A12.5,12.5 0 1,1 0,-12.5A12.5,12.5 0 0,1 12.5,0Z" style="opacity: 1; stroke-width: 5px; fill: rgb(228, 228, 228); fill-opacity: 1; stroke: rgb(255, 127, 127); stroke-opacity: 1;"/><path class="point" transform="translate(315.93,22.63)" d="M12.5,0A12.5,12.5 0 1,1 0,-12.5A12.5,12.5 0 0,1 12.5,0Z" style="opacity: 1; stroke-width: 5px; fill: rgb(228, 228, 228); fill-opacity: 1; stroke: rgb(255, 127, 127); stroke-opacity: 1;"/><path class="point" transform="translate(275.52,22.63)" d="M12.5,0A12.5,12.5 0 1,1 0,-12.5A12.5,12.5 0 0,1 12.5,0Z" style="opacity: 1; stroke-width: 5px; fill: rgb(228, 228, 228); fill-opacity: 1; stroke: rgb(255, 127, 127); stroke-opacity: 1;"/></g><g class="text"/></g></g></g><g class="overplot"/><path class="xlines-above crisp" d="M0,0" style="fill: none;"/><path class="ylines-above crisp" d="M0,0" style="fill: none;"/><g class="overlines-above"/><g class="xaxislayer-above"><g class="xtick"><text text-anchor="start" x="2.0999999999999996" y="247" transform="translate(329.08,0) rotate(90,2.0999999999999996,241)" style="font-family: 'Open Sans', verdana, arial, sans-serif; font-size: 12px; fill: rgb(42, 63, 95); fill-opacity: 1; white-space: pre; opacity: 1;">Chlorophyll-<tspan style="font-style:italic">a</tspan></text></g><g class="xtick"><text text-anchor="start" x="2.0999999999999996" y="247" transform="translate(369.48,0) rotate(90,2.0999999999999996,241)translate(0,-7.800000000000001)" style="font-family: 'Open Sans', verdana, arial, sans-serif; font-size: 12px; fill: rgb(42, 63, 95); fill-opacity: 1; white-space: pre; opacity: 1;"><tspan class="line" dy="0em" x="2.0999999999999996" y="247">Faecal Coliforms </tspan><tspan class="line" dy="1.3em" x="2.0999999999999996" y="247">(median value)</tspan></text></g><g class="xtick"><text text-anchor="start" x="2.0999999999999996" y="247" transform="translate(409.89,0) rotate(90,2.0999999999999996,241)translate(0,-7.800000000000001)" style="font-family: 'Open Sans', verdana, arial, sans-serif; font-size: 12px; fill: rgb(42, 63, 95); fill-opacity: 1; white-space: pre; opacity: 1;"><tspan class="line" dy="0em" x="2.0999999999999996" y="247">Faecal Coliforms </tspan><tspan class="line" dy="1.3em" x="2.0999999999999996" y="247">(90th percentile)</tspan></text></g><g class="xtick"><text text-anchor="start" x="2.0999999999999996" y="247" transform="translate(450.3,0) rotate(90,2.0999999999999996,241)" style="font-family: 'Open Sans', verdana, arial, sans-serif; font-size: 12px; fill: rgb(42, 63, 95); fill-opacity: 1; white-space: pre; opacity: 1;">Ammoniacal Nitrogen</text></g><g class="xtick"><text text-anchor="start" x="2.0999999999999996" y="247" transform="translate(490.7,0) rotate(90,2.0999999999999996,241)" style="font-family: 'Open Sans', verdana, arial, sans-serif; font-size: 12px; fill: rgb(42, 63, 95); fill-opacity: 1; white-space: pre; opacity: 1;">Total Nitrogen</text></g><g class="xtick"><text text-anchor="start" x="2.0999999999999996" y="247" transform="translate(531.11,0) rotate(90,2.0999999999999996,241)" style="font-family: 'Open Sans', verdana, arial, sans-serif; font-size: 12px; fill: rgb(42, 63, 95); fill-opacity: 1; white-space: pre; opacity: 1;">Total Phosphorus</text></g><g class="xtick"><text text-anchor="start" x="2.0999999999999996" y="247" transform="translate(571.52,0) rotate(90,2.0999999999999996,241)translate(0,-7.800000000000001)" style="font-family: 'Open Sans', verdana, arial, sans-serif; font-size: 12px; fill: rgb(42, 63, 95); fill-opacity: 1; white-space: pre; opacity: 1;"><tspan class="line" dy="0em" x="2.0999999999999996" y="247">Enterococci </tspan><tspan class="line" dy="1.3em" x="2.0999999999999996" y="247">(all year)</tspan></text></g><g class="xtick"><text text-anchor="start" x="2.0999999999999996" y="247" transform="translate(611.9300000000001,0) rotate(90,2.0999999999999996,241)translate(0,-7.800000000000001)" style="font-family: 'Open Sans', verdana, arial, sans-serif; font-size: 12px; fill: rgb(42, 63, 95); fill-opacity: 1; white-space: pre; opacity: 1;"><tspan class="line" dy="0em" x="2.0999999999999996" y="247">Enterococci </tspan><tspan class="line" dy="1.3em" x="2.0999999999999996" y="247">(bathing season)</tspan></text></g></g><g class="yaxislayer-above"><g class="ytick"><text text-anchor="end" x="295" y="4.199999999999999" transform="translate(0,217.38)" style="font-family: 'Open Sans', verdana, arial, sans-serif; font-size: 12px; fill: rgb(42, 63, 95); fill-opacity: 1; white-space: pre; opacity: 1;">Akitio Beach at Surf Club</text></g><g class="ytick"><text text-anchor="end" x="295" y="4.199999999999999" transform="translate(0,185.79000000000002)" style="font-family: 'Open Sans', verdana, arial, sans-serif; font-size: 12px; fill: rgb(42, 63, 95); fill-opacity: 1; white-space: pre; opacity: 1;">Himatangi Beach at Surf Beach</text></g><g class="ytick"><text text-anchor="end" x="295" y="4.199999999999999" transform="translate(0,154.21)" style="font-family: 'Open Sans', verdana, arial, sans-serif; font-size: 12px; fill: rgb(42, 63, 95); fill-opacity: 1; white-space: pre; opacity: 1;">Kai Iwi Beach at Kai Iwi Stream Bridge</text></g><g class="ytick"><text text-anchor="end" x="295" y="4.199999999999999" transform="translate(0,122.63)" style="font-family: 'Open Sans', verdana, arial, sans-serif; font-size: 12px; fill: rgb(42, 63, 95); fill-opacity: 1; white-space: pre; opacity: 1;">Waitarere Beach at Waitarere Surf Beach</text></g></g><g class="overaxes-above"/></g></g><g class="polarlayer"/><g class="smithlayer"/><g class="ternarylayer"/><g class="geolayer"/><g class="funnelarealayer"/><g class="pielayer"/><g class="iciclelayer"/><g class="treemaplayer"/><g class="sunburstlayer"/><g class="glimages"/><defs id="topdefs-112022"><g class="clips"/><clipPath id="legend112022"><rect width="146" height="86" x="0" y="0"/></clipPath></defs><g class="layer-above"><g class="imagelayer"/><g class="shapelayer"/></g><g class="infolayer"><g class="legend" pointer-events="all" transform="translate(662.45,100)"><rect class="bg" shape-rendering="crispEdges" width="146" height="86" x="0" y="0" style="stroke: rgb(68, 68, 68); stroke-opacity: 1; fill: rgb(255, 255, 255); fill-opacity: 1; stroke-width: 0px;"/><g class="scrollbox" transform="" clip-path="url(#legend112022)"><g class="groups"><g class="traces" transform="translate(0,14.5)" style="opacity: 1;"><text class="legendtext" text-anchor="start" x="50" y="4.680000000000001" style="font-family: 'Open Sans', verdana, arial, sans-serif; font-size: 12px; fill: rgb(42, 63, 95); fill-opacity: 1; white-space: pre;">PASS (Final)</text><g class="layers" style="opacity: 1;"><g class="legendfill"/><g class="legendlines"/><g class="legendsymbols"><g class="legendpoints"><path class="scatterpts" transform="translate(25,0)" d="M6,0A6,6 0 1,1 0,-6A6,6 0 0,1 6,0Z" style="opacity: 1; stroke-width: 2px; fill: rgb(152, 199, 133); fill-opacity: 1; stroke: rgb(152, 199, 133); stroke-opacity: 1;"/></g></g></g><rect class="legendtoggle" x="0" y="-9.5" width="141" height="19" style="fill: rgb(0, 0, 0); fill-opacity: 0;"/></g><g class="traces" transform="translate(0,33.5)" style="opacity: 1;"><text class="legendtext" text-anchor="start" x="50" y="4.680000000000001" style="font-family: 'Open Sans', verdana, arial, sans-serif; font-size: 12px; fill: rgb(42, 63, 95); fill-opacity: 1; white-space: pre;">FAIL (Final)</text><g class="layers" style="opacity: 1;"><g class="legendfill"/><g class="legendlines"/><g class="legendsymbols"><g class="legendpoints"><path class="scatterpts" transform="translate(25,0)" d="M6,0A6,6 0 1,1 0,-6A6,6 0 0,1 6,0Z" style="opacity: 1; stroke-width: 2px; fill: rgb(255, 127, 127); fill-opacity: 1; stroke: rgb(255, 127, 127); stroke-opacity: 1;"/></g></g></g><rect class="legendtoggle" x="0" y="-9.5" width="141" height="19" style="fill: rgb(0, 0, 0); fill-opacity: 0;"/></g><g class="traces" transform="translate(0,52.5)" style="opacity: 1;"><text class="legendtext" text-anchor="start" x="50" y="4.680000000000001" style="font-family: 'Open Sans', verdana, arial, sans-serif; font-size: 12px; fill: rgb(42, 63, 95); fill-opacity: 1; white-space: pre;">PASS (Interim)</text><g class="layers" style="opacity: 1;"><g class="legendfill"/><g class="legendlines"/><g class="legendsymbols"><g class="legendpoints"><path class="scatterpts" transform="translate(25,0)" d="M6,0A6,6 0 1,1 0,-6A6,6 0 0,1 6,0Z" style="opacity: 1; stroke-width: 2px; fill: rgb(228, 228, 228); fill-opacity: 1; stroke: rgb(152, 199, 133); stroke-opacity: 1;"/></g></g></g><rect class="legendtoggle" x="0" y="-9.5" width="141" height="19" style="fill: rgb(0, 0, 0); fill-opacity: 0;"/></g><g class="traces" transform="translate(0,71.5)" style="opacity: 1;"><text class="legendtext" text-anchor="start" x="50" y="4.680000000000001" style="font-family: 'Open Sans', verdana, arial, sans-serif; font-size: 12px; fill: rgb(42, 63, 95); fill-opacity: 1; white-space: pre;">FAIL (Interim)</text><g class="layers" style="opacity: 1;"><g class="legendfill"/><g class="legendlines"/><g class="legendsymbols"><g class="legendpoints"><path class="scatterpts" transform="translate(25,0)" d="M6,0A6,6 0 1,1 0,-6A6,6 0 0,1 6,0Z" style="opacity: 1; stroke-width: 2px; fill: rgb(228, 228, 228); fill-opacity: 1; stroke: rgb(255, 127, 127); stroke-opacity: 1;"/></g></g></g><rect class="legendtoggle" x="0" y="-9.5" width="141" height="19" style="fill: rgb(0, 0, 0); fill-opacity: 0;"/></g></g></g><rect class="scrollbar" rx="20" ry="3" width="0" height="0" x="0" y="0" style="fill: rgb(128, 139, 164); fill-opacity: 1;"/></g><g class="g-gtitle"/><g class="g-xtitle"/><g class="g-ytitle"/></g></svg>