<svg class="main-svg" xmlns="http://www.w3.org/2000/svg" xmlns:xlink="http://www.w3.org/1999/xlink" width="750" height="800" style="" viewBox="0 0 750 800"><rect x="0" y="0" width="750" height="800" style="fill: rgb(255, 255, 255); fill-opacity: 1;"/><defs id="defs-46253c"><g class="clips"><clipPath id="clip46253cxyplot" class="plotclip"><rect width="369" height="507"/></clipPath><clipPath class="axesclip" id="clip46253cx"><rect x="205" y="0" width="369" height="800"/></clipPath><clipPath class="axesclip" id="clip46253cy"><rect x="0" y="100" width="750" height="507"/></clipPath><clipPath class="axesclip" id="clip46253cxy"><rect x="205" y="100" width="369" height="507"/></clipPath></g><g class="gradients"/><g class="patterns"/></defs><g class="bglayer"/><g class="layer-below"><g class="imagelayer"/><g class="shapelayer"/></g><g class="cartesianlayer"><g class="subplot xy"><g class="layer-subplot"><g class="shapelayer"/><g class="imagelayer"/></g><g class="minor-gridlayer"><g class="x"/><g class="y"/></g><g class="gridlayer"><g class="x"><path class="xgrid crisp" transform="translate(239.07999999999998,0)" d="M0,100v507" style="stroke: rgb(235, 240, 248); stroke-opacity: 1; stroke-width: 1px;"/><path class="xgrid crisp" transform="translate(282.05,0)" d="M0,100v507" style="stroke: rgb(235, 240, 248); stroke-opacity: 1; stroke-width: 1px;"/><path class="xgrid crisp" transform="translate(325.03,0)" d="M0,100v507" style="stroke: rgb(235, 240, 248); stroke-opacity: 1; stroke-width: 1px;"/><path class="xgrid crisp" transform="translate(368.01,0)" d="M0,100v507" style="stroke: rgb(235, 240, 248); stroke-opacity: 1; stroke-width: 1px;"/><path class="xgrid crisp" transform="translate(410.99,0)" d="M0,100v507" style="stroke: rgb(235, 240, 248); stroke-opacity: 1; stroke-width: 1px;"/><path class="xgrid crisp" transform="translate(453.97,0)" d="M0,100v507" style="stroke: rgb(235, 240, 248); stroke-opacity: 1; stroke-width: 1px;"/><path class="xgrid crisp" transform="translate(496.95,0)" d="M0,100v507" style="stroke: rgb(235, 240, 248); stroke-opacity: 1; stroke-width: 1px;"/><path class="xgrid crisp" transform="translate(539.9300000000001,0)" d="M0,100v507" style="stroke: rgb(235, 240, 248); stroke-opacity: 1; stroke-width: 1px;"/></g><g class="y"><path class="ygrid crisp" transform="translate(0,566.03)" d="M205,0h369" style="stroke: rgb(235, 240, 248); stroke-opacity: 1; stroke-width: 1px;"/><path class="ygrid crisp" transform="translate(0,535.6600000000001)" d="M205,0h369" style="stroke: rgb(235, 240, 248); stroke-opacity: 1; stroke-width: 1px;"/><path class="ygrid crisp" transform="translate(0,505.3)" d="M205,0h369" style="stroke: rgb(235, 240, 248); stroke-opacity: 1; stroke-width: 1px;"/><path class="ygrid crisp" transform="translate(0,474.94)" d="M205,0h369" style="stroke: rgb(235, 240, 248); stroke-opacity: 1; stroke-width: 1px;"/><path class="ygrid crisp" transform="translate(0,444.58)" d="M205,0h369" style="stroke: rgb(235, 240, 248); stroke-opacity: 1; stroke-width: 1px;"/><path class="ygrid crisp" transform="translate(0,414.22)" d="M205,0h369" style="stroke: rgb(235, 240, 248); stroke-opacity: 1; stroke-width: 1px;"/><path class="ygrid crisp" transform="translate(0,383.86)" d="M205,0h369" style="stroke: rgb(235, 240, 248); stroke-opacity: 1; stroke-width: 1px;"/><path class="ygrid crisp" transform="translate(0,353.5)" d="M205,0h369" style="stroke: rgb(235, 240, 248); stroke-opacity: 1; stroke-width: 1px;"/><path class="ygrid crisp" transform="translate(0,323.14)" d="M205,0h369" style="stroke: rgb(235, 240, 248); stroke-opacity: 1; stroke-width: 1px;"/><path class="ygrid crisp" transform="translate(0,292.78)" d="M205,0h369" style="stroke: rgb(235, 240, 248); stroke-opacity: 1; stroke-width: 1px;"/><path class="ygrid crisp" transform="translate(0,262.41999999999996)" d="M205,0h369" style="stroke: rgb(235, 240, 248); stroke-opacity: 1; stroke-width: 1px;"/><path class="ygrid crisp" transform="translate(0,232.06)" d="M205,0h369" style="stroke: rgb(235, 240, 248); stroke-opacity: 1; stroke-width: 1px;"/><path class="ygrid crisp" transform="translate(0,201.7)" d="M205,0h369" style="stroke: rgb(235, 240, 248); stroke-opacity: 1; stroke-width: 1px;"/><path class="ygrid crisp" transform="translate(0,171.34)" d="M205,0h369" style="stroke: rgb(235, 240, 248); stroke-opacity: 1; stroke-width: 1px;"/><path class="ygrid crisp" transform="translate(0,140.98)" d="M205,0h369" style="stroke: rgb(235, 240, 248); stroke-opacity: 1; stroke-width: 1px;"/></g></g><g class="zerolinelayer"/><path class="xlines-below"/><path class="ylines-below"/><g class="overlines-below"/><g class="xaxislayer-below"/><g class="yaxislayer-below"/><g class="overaxes-below"/><g class="plot" transform="translate(205,100)" clip-path="url(#clip46253cxyplot)"><g class="scatterlayer mlayer"><g class="trace scatter tracea9434d" style="stroke-miterlimit: 2; opacity: 1;"><g class="fills"/><g class="errorbars"/><g class="lines"/><g class="points"><path class="point" transform="translate(34.08,435.66)" d="M12.5,0A12.5,12.5 0 1,1 0,-12.5A12.5,12.5 0 0,1 12.5,0Z" style="opacity: 1; stroke-width: 5px; fill: rgb(255, 127, 127); fill-opacity: 1; stroke: rgb(255, 127, 127); stroke-opacity: 1;"/><path class="point" transform="translate(77.05,435.66)" d="M12.5,0A12.5,12.5 0 1,1 0,-12.5A12.5,12.5 0 0,1 12.5,0Z" style="opacity: 1; stroke-width: 5px; fill: rgb(255, 127, 127); fill-opacity: 1; stroke: rgb(255, 127, 127); stroke-opacity: 1;"/><path class="point" transform="translate(120.03,435.66)" d="M12.5,0A12.5,12.5 0 1,1 0,-12.5A12.5,12.5 0 0,1 12.5,0Z" style="opacity: 1; stroke-width: 5px; fill: rgb(255, 127, 127); fill-opacity: 1; stroke: rgb(255, 127, 127); stroke-opacity: 1;"/><path class="point" transform="translate(163.01,435.66)" d="M12.5,0A12.5,12.5 0 1,1 0,-12.5A12.5,12.5 0 0,1 12.5,0Z" style="opacity: 1; stroke-width: 5px; fill: rgb(255, 127, 127); fill-opacity: 1; stroke: rgb(255, 127, 127); stroke-opacity: 1;"/><path class="point" transform="translate(205.99,435.66)" d="M12.5,0A12.5,12.5 0 1,1 0,-12.5A12.5,12.5 0 0,1 12.5,0Z" style="opacity: 1; stroke-width: 5px; fill: rgb(255, 127, 127); fill-opacity: 1; stroke: rgb(255, 127, 127); stroke-opacity: 1;"/><path class="point" transform="translate(34.08,344.58)" d="M12.5,0A12.5,12.5 0 1,1 0,-12.5A12.5,12.5 0 0,1 12.5,0Z" style="opacity: 1; stroke-width: 5px; fill: rgb(255, 127, 127); fill-opacity: 1; stroke: rgb(255, 127, 127); stroke-opacity: 1;"/><path class="point" transform="translate(77.05,344.58)" d="M12.5,0A12.5,12.5 0 1,1 0,-12.5A12.5,12.5 0 0,1 12.5,0Z" style="opacity: 1; stroke-width: 5px; fill: rgb(255, 127, 127); fill-opacity: 1; stroke: rgb(255, 127, 127); stroke-opacity: 1;"/><path class="point" transform="translate(120.03,344.58)" d="M12.5,0A12.5,12.5 0 1,1 0,-12.5A12.5,12.5 0 0,1 12.5,0Z" style="opacity: 1; stroke-width: 5px; fill: rgb(255, 127, 127); fill-opacity: 1; stroke: rgb(255, 127, 127); stroke-opacity: 1;"/><path class="point" transform="translate(163.01,344.58)" d="M12.5,0A12.5,12.5 0 1,1 0,-12.5A12.5,12.5 0 0,1 12.5,0Z" style="opacity: 1; stroke-width: 5px; fill: rgb(255, 127, 127); fill-opacity: 1; stroke: rgb(255, 127, 127); stroke-opacity: 1;"/><path class="point" transform="translate(34.08,223.14)" d="M12.5,0A12.5,12.5 0 1,1 0,-12.5A12.5,12.5 0 0,1 12.5,0Z" style="opacity: 1; stroke-width: 5px; fill: rgb(255, 127, 127); fill-opacity: 1; stroke: rgb(255, 127, 127); stroke-opacity: 1;"/><path class="point" transform="translate(77.05,223.14)" d="M12.5,0A12.5,12.5 0 1,1 0,-12.5A12.5,12.5 0 0,1 12.5,0Z" style="opacity: 1; stroke-width: 5px; fill: rgb(255, 127, 127); fill-opacity: 1; stroke: rgb(255, 127, 127); stroke-opacity: 1;"/><path class="point" transform="translate(120.03,223.14)" d="M12.5,0A12.5,12.5 0 1,1 0,-12.5A12.5,12.5 0 0,1 12.5,0Z" style="opacity: 1; stroke-width: 5px; fill: rgb(255, 127, 127); fill-opacity: 1; stroke: rgb(255, 127, 127); stroke-opacity: 1;"/><path class="point" transform="translate(163.01,223.14)" d="M12.5,0A12.5,12.5 0 1,1 0,-12.5A12.5,12.5 0 0,1 12.5,0Z" style="opacity: 1; stroke-width: 5px; fill: rgb(255, 127, 127); fill-opacity: 1; stroke: rgb(255, 127, 127); stroke-opacity: 1;"/><path class="point" transform="translate(205.99,223.14)" d="M12.5,0A12.5,12.5 0 1,1 0,-12.5A12.5,12.5 0 0,1 12.5,0Z" style="opacity: 1; stroke-width: 5px; fill: rgb(255, 127, 127); fill-opacity: 1; stroke: rgb(255, 127, 127); stroke-opacity: 1;"/><path class="point" transform="translate(34.08,101.7)" d="M12.5,0A12.5,12.5 0 1,1 0,-12.5A12.5,12.5 0 0,1 12.5,0Z" style="opacity: 1; stroke-width: 5px; fill: rgb(255, 127, 127); fill-opacity: 1; stroke: rgb(255, 127, 127); stroke-opacity: 1;"/><path class="point" transform="translate(77.05,101.7)" d="M12.5,0A12.5,12.5 0 1,1 0,-12.5A12.5,12.5 0 0,1 12.5,0Z" style="opacity: 1; stroke-width: 5px; fill: rgb(255, 127, 127); fill-opacity: 1; stroke: rgb(255, 127, 127); stroke-opacity: 1;"/><path class="point" transform="translate(120.03,101.7)" d="M12.5,0A12.5,12.5 0 1,1 0,-12.5A12.5,12.5 0 0,1 12.5,0Z" style="opacity: 1; stroke-width: 5px; fill: rgb(255, 127, 127); fill-opacity: 1; stroke: rgb(255, 127, 127); stroke-opacity: 1;"/><path class="point" transform="translate(163.01,101.7)" d="M12.5,0A12.5,12.5 0 1,1 0,-12.5A12.5,12.5 0 0,1 12.5,0Z" style="opacity: 1; stroke-width: 5px; fill: rgb(255, 127, 127); fill-opacity: 1; stroke: rgb(255, 127, 127); stroke-opacity: 1;"/><path class="point" transform="translate(205.99,101.7)" d="M12.5,0A12.5,12.5 0 1,1 0,-12.5A12.5,12.5 0 0,1 12.5,0Z" style="opacity: 1; stroke-width: 5px; fill: rgb(255, 127, 127); fill-opacity: 1; stroke: rgb(255, 127, 127); stroke-opacity: 1;"/></g><g class="text"/></g><g class="trace scatter trace6f62ec" style="stroke-miterlimit: 2; opacity: 1;"><g class="fills"/><g class="errorbars"/><g class="lines"/><g class="points"><path class="point" transform="translate(248.97,466.03)" d="M12.5,0A12.5,12.5 0 1,1 0,-12.5A12.5,12.5 0 0,1 12.5,0Z" style="opacity: 1; stroke-width: 5px; fill: rgb(228, 228, 228); fill-opacity: 1; stroke: rgb(152, 199, 133); stroke-opacity: 1;"/><path class="point" transform="translate(291.95,435.66)" d="M12.5,0A12.5,12.5 0 1,1 0,-12.5A12.5,12.5 0 0,1 12.5,0Z" style="opacity: 1; stroke-width: 5px; fill: rgb(228, 228, 228); fill-opacity: 1; stroke: rgb(152, 199, 133); stroke-opacity: 1;"/><path class="point" transform="translate(334.93,435.66)" d="M12.5,0A12.5,12.5 0 1,1 0,-12.5A12.5,12.5 0 0,1 12.5,0Z" style="opacity: 1; stroke-width: 5px; fill: rgb(228, 228, 228); fill-opacity: 1; stroke: rgb(152, 199, 133); stroke-opacity: 1;"/><path class="point" transform="translate(248.97,405.3)" d="M12.5,0A12.5,12.5 0 1,1 0,-12.5A12.5,12.5 0 0,1 12.5,0Z" style="opacity: 1; stroke-width: 5px; fill: rgb(228, 228, 228); fill-opacity: 1; stroke: rgb(152, 199, 133); stroke-opacity: 1;"/><path class="point" transform="translate(248.97,344.58)" d="M12.5,0A12.5,12.5 0 1,1 0,-12.5A12.5,12.5 0 0,1 12.5,0Z" style="opacity: 1; stroke-width: 5px; fill: rgb(228, 228, 228); fill-opacity: 1; stroke: rgb(152, 199, 133); stroke-opacity: 1;"/><path class="point" transform="translate(334.93,344.58)" d="M12.5,0A12.5,12.5 0 1,1 0,-12.5A12.5,12.5 0 0,1 12.5,0Z" style="opacity: 1; stroke-width: 5px; fill: rgb(228, 228, 228); fill-opacity: 1; stroke: rgb(152, 199, 133); stroke-opacity: 1;"/><path class="point" transform="translate(248.97,314.22)" d="M12.5,0A12.5,12.5 0 1,1 0,-12.5A12.5,12.5 0 0,1 12.5,0Z" style="opacity: 1; stroke-width: 5px; fill: rgb(228, 228, 228); fill-opacity: 1; stroke: rgb(152, 199, 133); stroke-opacity: 1;"/><path class="point" transform="translate(34.08,283.86)" d="M12.5,0A12.5,12.5 0 1,1 0,-12.5A12.5,12.5 0 0,1 12.5,0Z" style="opacity: 1; stroke-width: 5px; fill: rgb(228, 228, 228); fill-opacity: 1; stroke: rgb(152, 199, 133); stroke-opacity: 1;"/><path class="point" transform="translate(77.05,283.86)" d="M12.5,0A12.5,12.5 0 1,1 0,-12.5A12.5,12.5 0 0,1 12.5,0Z" style="opacity: 1; stroke-width: 5px; fill: rgb(228, 228, 228); fill-opacity: 1; stroke: rgb(152, 199, 133); stroke-opacity: 1;"/><path class="point" transform="translate(248.97,283.86)" d="M12.5,0A12.5,12.5 0 1,1 0,-12.5A12.5,12.5 0 0,1 12.5,0Z" style="opacity: 1; stroke-width: 5px; fill: rgb(228, 228, 228); fill-opacity: 1; stroke: rgb(152, 199, 133); stroke-opacity: 1;"/><path class="point" transform="translate(120.03,283.86)" d="M12.5,0A12.5,12.5 0 1,1 0,-12.5A12.5,12.5 0 0,1 12.5,0Z" style="opacity: 1; stroke-width: 5px; fill: rgb(228, 228, 228); fill-opacity: 1; stroke: rgb(152, 199, 133); stroke-opacity: 1;"/><path class="point" transform="translate(248.97,253.5)" d="M12.5,0A12.5,12.5 0 1,1 0,-12.5A12.5,12.5 0 0,1 12.5,0Z" style="opacity: 1; stroke-width: 5px; fill: rgb(228, 228, 228); fill-opacity: 1; stroke: rgb(152, 199, 133); stroke-opacity: 1;"/><path class="point" transform="translate(248.97,223.14)" d="M12.5,0A12.5,12.5 0 1,1 0,-12.5A12.5,12.5 0 0,1 12.5,0Z" style="opacity: 1; stroke-width: 5px; fill: rgb(228, 228, 228); fill-opacity: 1; stroke: rgb(152, 199, 133); stroke-opacity: 1;"/><path class="point" transform="translate(291.95,223.14)" d="M12.5,0A12.5,12.5 0 1,1 0,-12.5A12.5,12.5 0 0,1 12.5,0Z" style="opacity: 1; stroke-width: 5px; fill: rgb(228, 228, 228); fill-opacity: 1; stroke: rgb(152, 199, 133); stroke-opacity: 1;"/><path class="point" transform="translate(248.97,162.42)" d="M12.5,0A12.5,12.5 0 1,1 0,-12.5A12.5,12.5 0 0,1 12.5,0Z" style="opacity: 1; stroke-width: 5px; fill: rgb(228, 228, 228); fill-opacity: 1; stroke: rgb(152, 199, 133); stroke-opacity: 1;"/><path class="point" transform="translate(248.97,132.06)" d="M12.5,0A12.5,12.5 0 1,1 0,-12.5A12.5,12.5 0 0,1 12.5,0Z" style="opacity: 1; stroke-width: 5px; fill: rgb(228, 228, 228); fill-opacity: 1; stroke: rgb(152, 199, 133); stroke-opacity: 1;"/><path class="point" transform="translate(291.95,101.7)" d="M12.5,0A12.5,12.5 0 1,1 0,-12.5A12.5,12.5 0 0,1 12.5,0Z" style="opacity: 1; stroke-width: 5px; fill: rgb(228, 228, 228); fill-opacity: 1; stroke: rgb(152, 199, 133); stroke-opacity: 1;"/></g><g class="text"/></g><g class="trace scatter trace33ba65" style="stroke-miterlimit: 2; opacity: 1;"><g class="fills"/><g class="errorbars"/><g class="lines"/><g class="points"><path class="point" transform="translate(34.08,466.03)" d="M12.5,0A12.5,12.5 0 1,1 0,-12.5A12.5,12.5 0 0,1 12.5,0Z" style="opacity: 1; stroke-width: 5px; fill: rgb(228, 228, 228); fill-opacity: 1; stroke: rgb(255, 127, 127); stroke-opacity: 1;"/><path class="point" transform="translate(77.05,466.03)" d="M12.5,0A12.5,12.5 0 1,1 0,-12.5A12.5,12.5 0 0,1 12.5,0Z" style="opacity: 1; stroke-width: 5px; fill: rgb(228, 228, 228); fill-opacity: 1; stroke: rgb(255, 127, 127); stroke-opacity: 1;"/><path class="point" transform="translate(120.03,466.03)" d="M12.5,0A12.5,12.5 0 1,1 0,-12.5A12.5,12.5 0 0,1 12.5,0Z" style="opacity: 1; stroke-width: 5px; fill: rgb(228, 228, 228); fill-opacity: 1; stroke: rgb(255, 127, 127); stroke-opacity: 1;"/><path class="point" transform="translate(163.01,466.03)" d="M12.5,0A12.5,12.5 0 1,1 0,-12.5A12.5,12.5 0 0,1 12.5,0Z" style="opacity: 1; stroke-width: 5px; fill: rgb(228, 228, 228); fill-opacity: 1; stroke: rgb(255, 127, 127); stroke-opacity: 1;"/><path class="point" transform="translate(248.97,435.66)" d="M12.5,0A12.5,12.5 0 1,1 0,-12.5A12.5,12.5 0 0,1 12.5,0Z" style="opacity: 1; stroke-width: 5px; fill: rgb(228, 228, 228); fill-opacity: 1; stroke: rgb(255, 127, 127); stroke-opacity: 1;"/><path class="point" transform="translate(34.08,405.3)" d="M12.5,0A12.5,12.5 0 1,1 0,-12.5A12.5,12.5 0 0,1 12.5,0Z" style="opacity: 1; stroke-width: 5px; fill: rgb(228, 228, 228); fill-opacity: 1; stroke: rgb(255, 127, 127); stroke-opacity: 1;"/><path class="point" transform="translate(77.05,405.3)" d="M12.5,0A12.5,12.5 0 1,1 0,-12.5A12.5,12.5 0 0,1 12.5,0Z" style="opacity: 1; stroke-width: 5px; fill: rgb(228, 228, 228); fill-opacity: 1; stroke: rgb(255, 127, 127); stroke-opacity: 1;"/><path class="point" transform="translate(120.03,405.3)" d="M12.5,0A12.5,12.5 0 1,1 0,-12.5A12.5,12.5 0 0,1 12.5,0Z" style="opacity: 1; stroke-width: 5px; fill: rgb(228, 228, 228); fill-opacity: 1; stroke: rgb(255, 127, 127); stroke-opacity: 1;"/><path class="point" transform="translate(163.01,405.3)" d="M12.5,0A12.5,12.5 0 1,1 0,-12.5A12.5,12.5 0 0,1 12.5,0Z" style="opacity: 1; stroke-width: 5px; fill: rgb(228, 228, 228); fill-opacity: 1; stroke: rgb(255, 127, 127); stroke-opacity: 1;"/><path class="point" transform="translate(34.08,374.94)" d="M12.5,0A12.5,12.5 0 1,1 0,-12.5A12.5,12.5 0 0,1 12.5,0Z" style="opacity: 1; stroke-width: 5px; fill: rgb(228, 228, 228); fill-opacity: 1; stroke: rgb(255, 127, 127); stroke-opacity: 1;"/><path class="point" transform="translate(77.05,374.94)" d="M12.5,0A12.5,12.5 0 1,1 0,-12.5A12.5,12.5 0 0,1 12.5,0Z" style="opacity: 1; stroke-width: 5px; fill: rgb(228, 228, 228); fill-opacity: 1; stroke: rgb(255, 127, 127); stroke-opacity: 1;"/><path class="point" transform="translate(248.97,374.94)" d="M12.5,0A12.5,12.5 0 1,1 0,-12.5A12.5,12.5 0 0,1 12.5,0Z" style="opacity: 1; stroke-width: 5px; fill: rgb(228, 228, 228); fill-opacity: 1; stroke: rgb(255, 127, 127); stroke-opacity: 1;"/><path class="point" transform="translate(120.03,374.94)" d="M12.5,0A12.5,12.5 0 1,1 0,-12.5A12.5,12.5 0 0,1 12.5,0Z" style="opacity: 1; stroke-width: 5px; fill: rgb(228, 228, 228); fill-opacity: 1; stroke: rgb(255, 127, 127); stroke-opacity: 1;"/><path class="point" transform="translate(163.01,374.94)" d="M12.5,0A12.5,12.5 0 1,1 0,-12.5A12.5,12.5 0 0,1 12.5,0Z" style="opacity: 1; stroke-width: 5px; fill: rgb(228, 228, 228); fill-opacity: 1; stroke: rgb(255, 127, 127); stroke-opacity: 1;"/><path class="point" transform="translate(291.95,344.58)" d="M12.5,0A12.5,12.5 0 1,1 0,-12.5A12.5,12.5 0 0,1 12.5,0Z" style="opacity: 1; stroke-width: 5px; fill: rgb(228, 228, 228); fill-opacity: 1; stroke: rgb(255, 127, 127); stroke-opacity: 1;"/><path class="point" transform="translate(205.99,344.58)" d="M12.5,0A12.5,12.5 0 1,1 0,-12.5A12.5,12.5 0 0,1 12.5,0Z" style="opacity: 1; stroke-width: 5px; fill: rgb(228, 228, 228); fill-opacity: 1; stroke: rgb(255, 127, 127); stroke-opacity: 1;"/><path class="point" transform="translate(34.08,314.22)" d="M12.5,0A12.5,12.5 0 1,1 0,-12.5A12.5,12.5 0 0,1 12.5,0Z" style="opacity: 1; stroke-width: 5px; fill: rgb(228, 228, 228); fill-opacity: 1; stroke: rgb(255, 127, 127); stroke-opacity: 1;"/><path class="point" transform="translate(77.05,314.22)" d="M12.5,0A12.5,12.5 0 1,1 0,-12.5A12.5,12.5 0 0,1 12.5,0Z" style="opacity: 1; stroke-width: 5px; fill: rgb(228, 228, 228); fill-opacity: 1; stroke: rgb(255, 127, 127); stroke-opacity: 1;"/><path class="point" transform="translate(120.03,314.22)" d="M12.5,0A12.5,12.5 0 1,1 0,-12.5A12.5,12.5 0 0,1 12.5,0Z" style="opacity: 1; stroke-width: 5px; fill: rgb(228, 228, 228); fill-opacity: 1; stroke: rgb(255, 127, 127); stroke-opacity: 1;"/><path class="point" transform="translate(163.01,314.22)" d="M12.5,0A12.5,12.5 0 1,1 0,-12.5A12.5,12.5 0 0,1 12.5,0Z" style="opacity: 1; stroke-width: 5px; fill: rgb(228, 228, 228); fill-opacity: 1; stroke: rgb(255, 127, 127); stroke-opacity: 1;"/><path class="point" transform="translate(163.01,283.86)" d="M12.5,0A12.5,12.5 0 1,1 0,-12.5A12.5,12.5 0 0,1 12.5,0Z" style="opacity: 1; stroke-width: 5px; fill: rgb(228, 228, 228); fill-opacity: 1; stroke: rgb(255, 127, 127); stroke-opacity: 1;"/><path class="point" transform="translate(34.08,253.5)" d="M12.5,0A12.5,12.5 0 1,1 0,-12.5A12.5,12.5 0 0,1 12.5,0Z" style="opacity: 1; stroke-width: 5px; fill: rgb(228, 228, 228); fill-opacity: 1; stroke: rgb(255, 127, 127); stroke-opacity: 1;"/><path class="point" transform="translate(77.05,253.5)" d="M12.5,0A12.5,12.5 0 1,1 0,-12.5A12.5,12.5 0 0,1 12.5,0Z" style="opacity: 1; stroke-width: 5px; fill: rgb(228, 228, 228); fill-opacity: 1; stroke: rgb(255, 127, 127); stroke-opacity: 1;"/><path class="point" transform="translate(120.03,253.5)" d="M12.5,0A12.5,12.5 0 1,1 0,-12.5A12.5,12.5 0 0,1 12.5,0Z" style="opacity: 1; stroke-width: 5px; fill: rgb(228, 228, 228); fill-opacity: 1; stroke: rgb(255, 127, 127); stroke-opacity: 1;"/><path class="point" transform="translate(163.01,253.5)" d="M12.5,0A12.5,12.5 0 1,1 0,-12.5A12.5,12.5 0 0,1 12.5,0Z" style="opacity: 1; stroke-width: 5px; fill: rgb(228, 228, 228); fill-opacity: 1; stroke: rgb(255, 127, 127); stroke-opacity: 1;"/><path class="point" transform="translate(34.08,192.78)" d="M12.5,0A12.5,12.5 0 1,1 0,-12.5A12.5,12.5 0 0,1 12.5,0Z" style="opacity: 1; stroke-width: 5px; fill: rgb(228, 228, 228); fill-opacity: 1; stroke: rgb(255, 127, 127); stroke-opacity: 1;"/><path class="point" transform="translate(77.05,192.78)" d="M12.5,0A12.5,12.5 0 1,1 0,-12.5A12.5,12.5 0 0,1 12.5,0Z" style="opacity: 1; stroke-width: 5px; fill: rgb(228, 228, 228); fill-opacity: 1; stroke: rgb(255, 127, 127); stroke-opacity: 1;"/><path class="point" transform="translate(248.97,192.78)" d="M12.5,0A12.5,12.5 0 1,1 0,-12.5A12.5,12.5 0 0,1 12.5,0Z" style="opacity: 1; stroke-width: 5px; fill: rgb(228, 228, 228); fill-opacity: 1; stroke: rgb(255, 127, 127); stroke-opacity: 1;"/><path class="point" transform="translate(120.03,192.78)" d="M12.5,0A12.5,12.5 0 1,1 0,-12.5A12.5,12.5 0 0,1 12.5,0Z" style="opacity: 1; stroke-width: 5px; fill: rgb(228, 228, 228); fill-opacity: 1; stroke: rgb(255, 127, 127); stroke-opacity: 1;"/><path class="point" transform="translate(163.01,192.78)" d="M12.5,0A12.5,12.5 0 1,1 0,-12.5A12.5,12.5 0 0,1 12.5,0Z" style="opacity: 1; stroke-width: 5px; fill: rgb(228, 228, 228); fill-opacity: 1; stroke: rgb(255, 127, 127); stroke-opacity: 1;"/><path class="point" transform="translate(34.08,162.42)" d="M12.5,0A12.5,12.5 0 1,1 0,-12.5A12.5,12.5 0 0,1 12.5,0Z" style="opacity: 1; stroke-width: 5px; fill: rgb(228, 228, 228); fill-opacity: 1; stroke: rgb(255, 127, 127); stroke-opacity: 1;"/><path class="point" transform="translate(77.05,162.42)" d="M12.5,0A12.5,12.5 0 1,1 0,-12.5A12.5,12.5 0 0,1 12.5,0Z" style="opacity: 1; stroke-width: 5px; fill: rgb(228, 228, 228); fill-opacity: 1; stroke: rgb(255, 127, 127); stroke-opacity: 1;"/><path class="point" transform="translate(120.03,162.42)" d="M12.5,0A12.5,12.5 0 1,1 0,-12.5A12.5,12.5 0 0,1 12.5,0Z" style="opacity: 1; stroke-width: 5px; fill: rgb(228, 228, 228); fill-opacity: 1; stroke: rgb(255, 127, 127); stroke-opacity: 1;"/><path class="point" transform="translate(163.01,162.42)" d="M12.5,0A12.5,12.5 0 1,1 0,-12.5A12.5,12.5 0 0,1 12.5,0Z" style="opacity: 1; stroke-width: 5px; fill: rgb(228, 228, 228); fill-opacity: 1; stroke: rgb(255, 127, 127); stroke-opacity: 1;"/><path class="point" transform="translate(34.08,132.06)" d="M12.5,0A12.5,12.5 0 1,1 0,-12.5A12.5,12.5 0 0,1 12.5,0Z" style="opacity: 1; stroke-width: 5px; fill: rgb(228, 228, 228); fill-opacity: 1; stroke: rgb(255, 127, 127); stroke-opacity: 1;"/><path class="point" transform="translate(77.05,132.06)" d="M12.5,0A12.5,12.5 0 1,1 0,-12.5A12.5,12.5 0 0,1 12.5,0Z" style="opacity: 1; stroke-width: 5px; fill: rgb(228, 228, 228); fill-opacity: 1; stroke: rgb(255, 127, 127); stroke-opacity: 1;"/><path class="point" transform="translate(120.03,132.06)" d="M12.5,0A12.5,12.5 0 1,1 0,-12.5A12.5,12.5 0 0,1 12.5,0Z" style="opacity: 1; stroke-width: 5px; fill: rgb(228, 228, 228); fill-opacity: 1; stroke: rgb(255, 127, 127); stroke-opacity: 1;"/><path class="point" transform="translate(163.01,132.06)" d="M12.5,0A12.5,12.5 0 1,1 0,-12.5A12.5,12.5 0 0,1 12.5,0Z" style="opacity: 1; stroke-width: 5px; fill: rgb(228, 228, 228); fill-opacity: 1; stroke: rgb(255, 127, 127); stroke-opacity: 1;"/><path class="point" transform="translate(248.97,101.7)" d="M12.5,0A12.5,12.5 0 1,1 0,-12.5A12.5,12.5 0 0,1 12.5,0Z" style="opacity: 1; stroke-width: 5px; fill: rgb(228, 228, 228); fill-opacity: 1; stroke: rgb(255, 127, 127); stroke-opacity: 1;"/><path class="point" transform="translate(34.08,71.34)" d="M12.5,0A12.5,12.5 0 1,1 0,-12.5A12.5,12.5 0 0,1 12.5,0Z" style="opacity: 1; stroke-width: 5px; fill: rgb(228, 228, 228); fill-opacity: 1; stroke: rgb(255, 127, 127); stroke-opacity: 1;"/><path class="point" transform="translate(77.05,71.34)" d="M12.5,0A12.5,12.5 0 1,1 0,-12.5A12.5,12.5 0 0,1 12.5,0Z" style="opacity: 1; stroke-width: 5px; fill: rgb(228, 228, 228); fill-opacity: 1; stroke: rgb(255, 127, 127); stroke-opacity: 1;"/><path class="point" transform="translate(248.97,71.34)" d="M12.5,0A12.5,12.5 0 1,1 0,-12.5A12.5,12.5 0 0,1 12.5,0Z" style="opacity: 1; stroke-width: 5px; fill: rgb(228, 228, 228); fill-opacity: 1; stroke: rgb(255, 127, 127); stroke-opacity: 1;"/><path class="point" transform="translate(120.03,71.34)" d="M12.5,0A12.5,12.5 0 1,1 0,-12.5A12.5,12.5 0 0,1 12.5,0Z" style="opacity: 1; stroke-width: 5px; fill: rgb(228, 228, 228); fill-opacity: 1; stroke: rgb(255, 127, 127); stroke-opacity: 1;"/><path class="point" transform="translate(163.01,71.34)" d="M12.5,0A12.5,12.5 0 1,1 0,-12.5A12.5,12.5 0 0,1 12.5,0Z" style="opacity: 1; stroke-width: 5px; fill: rgb(228, 228, 228); fill-opacity: 1; stroke: rgb(255, 127, 127); stroke-opacity: 1;"/><path class="point" transform="translate(34.08,40.98)" d="M12.5,0A12.5,12.5 0 1,1 0,-12.5A12.5,12.5 0 0,1 12.5,0Z" style="opacity: 1; stroke-width: 5px; fill: rgb(228, 228, 228); fill-opacity: 1; stroke: rgb(255, 127, 127); stroke-opacity: 1;"/><path class="point" transform="translate(77.05,40.98)" d="M12.5,0A12.5,12.5 0 1,1 0,-12.5A12.5,12.5 0 0,1 12.5,0Z" style="opacity: 1; stroke-width: 5px; fill: rgb(228, 228, 228); fill-opacity: 1; stroke: rgb(255, 127, 127); stroke-opacity: 1;"/><path class="point" transform="translate(248.97,40.98)" d="M12.5,0A12.5,12.5 0 1,1 0,-12.5A12.5,12.5 0 0,1 12.5,0Z" style="opacity: 1; stroke-width: 5px; fill: rgb(228, 228, 228); fill-opacity: 1; stroke: rgb(255, 127, 127); stroke-opacity: 1;"/><path class="point" transform="translate(120.03,40.98)" d="M12.5,0A12.5,12.5 0 1,1 0,-12.5A12.5,12.5 0 0,1 12.5,0Z" style="opacity: 1; stroke-width: 5px; fill: rgb(228, 228, 228); fill-opacity: 1; stroke: rgb(255, 127, 127); stroke-opacity: 1;"/><path class="point" transform="translate(163.01,40.98)" d="M12.5,0A12.5,12.5 0 1,1 0,-12.5A12.5,12.5 0 0,1 12.5,0Z" style="opacity: 1; stroke-width: 5px; fill: rgb(228, 228, 228); fill-opacity: 1; stroke: rgb(255, 127, 127); stroke-opacity: 1;"/></g><g class="text"/></g></g></g><g class="overplot"/><path class="xlines-above crisp" d="M0,0" style="fill: none;"/><path class="ylines-above crisp" d="M0,0" style="fill: none;"/><g class="overlines-above"/><g class="xaxislayer-above"><g class="xtick"><text text-anchor="start" x="2.0999999999999996" y="614" transform="translate(239.07999999999998,0) rotate(90,2.0999999999999996,608)" style="font-family: 'Open Sans', verdana, arial, sans-serif; font-size: 12px; fill: rgb(42, 63, 95); fill-opacity: 1; white-space: pre; opacity: 1;">Chlorophyll-<tspan style="font-style:italic">a</tspan> (maximum)</text></g><g class="xtick"><text text-anchor="start" x="2.0999999999999996" y="614" transform="translate(282.05,0) rotate(90,2.0999999999999996,608)" style="font-family: 'Open Sans', verdana, arial, sans-serif; font-size: 12px; fill: rgb(42, 63, 95); fill-opacity: 1; white-space: pre; opacity: 1;">Chlorophyll-<tspan style="font-style:italic">a</tspan> (mean)</text></g><g class="xtick"><text text-anchor="start" x="2.0999999999999996" y="614" transform="translate(325.03,0) rotate(90,2.0999999999999996,608)" style="font-family: 'Open Sans', verdana, arial, sans-serif; font-size: 12px; fill: rgb(42, 63, 95); fill-opacity: 1; white-space: pre; opacity: 1;">Total Phosphorus</text></g><g class="xtick"><text text-anchor="start" x="2.0999999999999996" y="614" transform="translate(368.01,0) rotate(90,2.0999999999999996,608)" style="font-family: 'Open Sans', verdana, arial, sans-serif; font-size: 12px; fill: rgb(42, 63, 95); fill-opacity: 1; white-space: pre; opacity: 1;">Total Nitrogen</text></g><g class="xtick"><text text-anchor="start" x="2.0999999999999996" y="614" transform="translate(410.99,0) rotate(90,2.0999999999999996,608)" style="font-family: 'Open Sans', verdana, arial, sans-serif; font-size: 12px; fill: rgb(42, 63, 95); fill-opacity: 1; white-space: pre; opacity: 1;">Visual Clarity</text></g><g class="xtick"><text text-anchor="start" x="2.0999999999999996" y="614" transform="translate(453.97,0) rotate(90,2.0999999999999996,608)translate(0,-7.800000000000001)" style="font-family: 'Open Sans', verdana, arial, sans-serif; font-size: 12px; fill: rgb(42, 63, 95); fill-opacity: 1; white-space: pre; opacity: 1;"><tspan class="line" dy="0em" x="2.0999999999999996" y="614"><tspan style="font-style:italic">E. coli</tspan> </tspan><tspan class="line" dy="1.3em" x="2.0999999999999996" y="614">(bathing season)</tspan></text></g><g class="xtick"><text text-anchor="start" x="2.0999999999999996" y="614" transform="translate(496.95,0) rotate(90,2.0999999999999996,608)translate(0,-7.800000000000001)" style="font-family: 'Open Sans', verdana, arial, sans-serif; font-size: 12px; fill: rgb(42, 63, 95); fill-opacity: 1; white-space: pre; opacity: 1;"><tspan class="line" dy="0em" x="2.0999999999999996" y="614">E. <tspan style="font-style:italic">coli</tspan> </tspan><tspan class="line" dy="1.3em" x="2.0999999999999996" y="614">(all year)</tspan></text></g><g class="xtick"><text text-anchor="start" x="2.0999999999999996" y="614" transform="translate(539.9300000000001,0) rotate(90,2.0999999999999996,608)" style="font-family: 'Open Sans', verdana, arial, sans-serif; font-size: 12px; fill: rgb(42, 63, 95); fill-opacity: 1; white-space: pre; opacity: 1;">Ammoniacal Nitrogen</text></g></g><g class="yaxislayer-above"><g class="ytick"><text text-anchor="end" x="204" y="4.199999999999999" transform="translate(0,566.03)" style="font-family: 'Open Sans', verdana, arial, sans-serif; font-size: 12px; fill: rgb(42, 63, 95); fill-opacity: 1; white-space: pre; opacity: 1;">Lake Alice</text></g><g class="ytick"><text text-anchor="end" x="204" y="4.199999999999999" transform="translate(0,535.6600000000001)" style="font-family: 'Open Sans', verdana, arial, sans-serif; font-size: 12px; fill: rgb(42, 63, 95); fill-opacity: 1; white-space: pre; opacity: 1;">Lake Dudding (Composite)</text></g><g class="ytick"><text text-anchor="end" x="204" y="4.199999999999999" transform="translate(0,505.3)" style="font-family: 'Open Sans', verdana, arial, sans-serif; font-size: 12px; fill: rgb(42, 63, 95); fill-opacity: 1; white-space: pre; opacity: 1;">Lake Heaton</text></g><g class="ytick"><text text-anchor="end" x="204" y="4.199999999999999" transform="translate(0,474.94)" style="font-family: 'Open Sans', verdana, arial, sans-serif; font-size: 12px; fill: rgb(42, 63, 95); fill-opacity: 1; white-space: pre; opacity: 1;">Lake Herbert</text></g><g class="ytick"><text text-anchor="end" x="204" y="4.199999999999999" transform="translate(0,444.58)" style="font-family: 'Open Sans', verdana, arial, sans-serif; font-size: 12px; fill: rgb(42, 63, 95); fill-opacity: 1; white-space: pre; opacity: 1;">Lake Horowhenua at Buoy</text></g><g class="ytick"><text text-anchor="end" x="204" y="4.199999999999999" transform="translate(0,414.22)" style="font-family: 'Open Sans', verdana, arial, sans-serif; font-size: 12px; fill: rgb(42, 63, 95); fill-opacity: 1; white-space: pre; opacity: 1;">Lake Kohata</text></g><g class="ytick"><text text-anchor="end" x="204" y="4.199999999999999" transform="translate(0,383.86)" style="font-family: 'Open Sans', verdana, arial, sans-serif; font-size: 12px; fill: rgb(42, 63, 95); fill-opacity: 1; white-space: pre; opacity: 1;">Lake Koitiata</text></g><g class="ytick"><text text-anchor="end" x="204" y="4.199999999999999" transform="translate(0,353.5)" style="font-family: 'Open Sans', verdana, arial, sans-serif; font-size: 12px; fill: rgb(42, 63, 95); fill-opacity: 1; white-space: pre; opacity: 1;">Lake Koputara</text></g><g class="ytick"><text text-anchor="end" x="204" y="4.199999999999999" transform="translate(0,323.14)" style="font-family: 'Open Sans', verdana, arial, sans-serif; font-size: 12px; fill: rgb(42, 63, 95); fill-opacity: 1; white-space: pre; opacity: 1;">Lake Pauri (Composite)</text></g><g class="ytick"><text text-anchor="end" x="204" y="4.199999999999999" transform="translate(0,292.78)" style="font-family: 'Open Sans', verdana, arial, sans-serif; font-size: 12px; fill: rgb(42, 63, 95); fill-opacity: 1; white-space: pre; opacity: 1;">Lake Waipu</text></g><g class="ytick"><text text-anchor="end" x="204" y="4.199999999999999" transform="translate(0,262.41999999999996)" style="font-family: 'Open Sans', verdana, arial, sans-serif; font-size: 12px; fill: rgb(42, 63, 95); fill-opacity: 1; white-space: pre; opacity: 1;">Lake Westmere</text></g><g class="ytick"><text text-anchor="end" x="204" y="4.199999999999999" transform="translate(0,232.06)" style="font-family: 'Open Sans', verdana, arial, sans-serif; font-size: 12px; fill: rgb(42, 63, 95); fill-opacity: 1; white-space: pre; opacity: 1;">Lake William</text></g><g class="ytick"><text text-anchor="end" x="204" y="4.199999999999999" transform="translate(0,201.7)" style="font-family: 'Open Sans', verdana, arial, sans-serif; font-size: 12px; fill: rgb(42, 63, 95); fill-opacity: 1; white-space: pre; opacity: 1;">Lake Wiritoa (Composite)</text></g><g class="ytick"><text text-anchor="end" x="204" y="4.199999999999999" transform="translate(0,171.34)" style="font-family: 'Open Sans', verdana, arial, sans-serif; font-size: 12px; fill: rgb(42, 63, 95); fill-opacity: 1; white-space: pre; opacity: 1;">Omanuka Lagoon</text></g><g class="ytick"><text text-anchor="end" x="204" y="4.199999999999999" transform="translate(0,140.98)" style="font-family: 'Open Sans', verdana, arial, sans-serif; font-size: 12px; fill: rgb(42, 63, 95); fill-opacity: 1; white-space: pre; opacity: 1;">Pukepuke Lagoon</text></g></g><g class="overaxes-above"/></g></g><g class="polarlayer"/><g class="smithlayer"/><g class="ternarylayer"/><g class="geolayer"/><g class="funnelarealayer"/><g class="pielayer"/><g class="iciclelayer"/><g class="treemaplayer"/><g class="sunburstlayer"/><g class="glimages"/><defs id="topdefs-46253c"><g class="clips"/><clipPath id="legend46253c"><rect width="146" height="67" x="0" y="0"/></clipPath></defs><g class="layer-above"><g class="imagelayer"/><g class="shapelayer"/></g><g class="infolayer"><g class="legend" pointer-events="all" transform="translate(592.45,100)"><rect class="bg" shape-rendering="crispEdges" width="146" height="67" x="0" y="0" style="stroke: rgb(68, 68, 68); stroke-opacity: 1; fill: rgb(255, 255, 255); fill-opacity: 1; stroke-width: 0px;"/><g class="scrollbox" transform="" clip-path="url(#legend46253c)"><g class="groups"><g class="traces" transform="translate(0,14.5)" style="opacity: 1;"><text class="legendtext" text-anchor="start" x="50" y="4.680000000000001" style="font-family: 'Open Sans', verdana, arial, sans-serif; font-size: 12px; fill: rgb(42, 63, 95); fill-opacity: 1; white-space: pre;">FAIL (Final)</text><g class="layers" style="opacity: 1;"><g class="legendfill"/><g class="legendlines"/><g class="legendsymbols"><g class="legendpoints"><path class="scatterpts" transform="translate(25,0)" d="M6,0A6,6 0 1,1 0,-6A6,6 0 0,1 6,0Z" style="opacity: 1; stroke-width: 2px; fill: rgb(255, 127, 127); fill-opacity: 1; stroke: rgb(255, 127, 127); stroke-opacity: 1;"/></g></g></g><rect class="legendtoggle" x="0" y="-9.5" width="141" height="19" style="fill: rgb(0, 0, 0); fill-opacity: 0;"/></g><g class="traces" transform="translate(0,33.5)" style="opacity: 1;"><text class="legendtext" text-anchor="start" x="50" y="4.680000000000001" style="font-family: 'Open Sans', verdana, arial, sans-serif; font-size: 12px; fill: rgb(42, 63, 95); fill-opacity: 1; white-space: pre;">PASS (Interim)</text><g class="layers" style="opacity: 1;"><g class="legendfill"/><g class="legendlines"/><g class="legendsymbols"><g class="legendpoints"><path class="scatterpts" transform="translate(25,0)" d="M6,0A6,6 0 1,1 0,-6A6,6 0 0,1 6,0Z" style="opacity: 1; stroke-width: 2px; fill: rgb(228, 228, 228); fill-opacity: 1; stroke: rgb(152, 199, 133); stroke-opacity: 1;"/></g></g></g><rect class="legendtoggle" x="0" y="-9.5" width="141" height="19" style="fill: rgb(0, 0, 0); fill-opacity: 0;"/></g><g class="traces" transform="translate(0,52.5)" style="opacity: 1;"><text class="legendtext" text-anchor="start" x="50" y="4.680000000000001" style="font-family: 'Open Sans', verdana, arial, sans-serif; font-size: 12px; fill: rgb(42, 63, 95); fill-opacity: 1; white-space: pre;">FAIL (Interim)</text><g class="layers" style="opacity: 1;"><g class="legendfill"/><g class="legendlines"/><g class="legendsymbols"><g class="legendpoints"><path class="scatterpts" transform="translate(25,0)" d="M6,0A6,6 0 1,1 0,-6A6,6 0 0,1 6,0Z" style="opacity: 1; stroke-width: 2px; fill: rgb(228, 228, 228); fill-opacity: 1; stroke: rgb(255, 127, 127); stroke-opacity: 1;"/></g></g></g><rect class="legendtoggle" x="0" y="-9.5" width="141" height="19" style="fill: rgb(0, 0, 0); fill-opacity: 0;"/></g></g></g><rect class="scrollbar" rx="20" ry="3" width="0" height="0" x="0" y="0" style="fill: rgb(128, 139, 164); fill-opacity: 1;"/></g><g class="g-gtitle"/><g class="g-xtitle"/><g class="g-ytitle"/></g></svg>