<svg class="main-svg" xmlns="http://www.w3.org/2000/svg" xmlns:xlink="http://www.w3.org/1999/xlink" width="600" height="900" style="" viewBox="0 0 600 900"><rect x="0" y="0" width="600" height="900" style="fill: rgb(255, 255, 255); fill-opacity: 1;"/><defs id="defs-d9cdb9"><g class="clips"/><g class="gradients"/><g class="patterns"/></defs><g class="bglayer"/><g class="layer-below"><g class="imagelayer"/><g class="shapelayer"/></g><g class="cartesianlayer"/><g class="polarlayer"/><g class="smithlayer"/><g class="ternarylayer"/><g class="geolayer"/><g class="funnelarealayer"/><g class="pielayer"><g class="trace" stroke-linejoin="round" style="opacity: 1;"><g class="slice"><path class="surface" d="M78.80439623868453,151.9495125106531a58.1875,58.1875 0 1 0 57.57060376131547,-49.73701251065302l0,-58.1875a116.375,116.375 0 1 1 -115.14120752263094,99.47402502130603Z" style="pointer-events: none; fill: rgb(255, 127, 127); fill-opacity: 1; stroke-width: 0; stroke: rgb(68, 68, 68); stroke-opacity: 1;"/><g class="slicetext"><text data-notex="1" class="slicetext" transform="translate(193.43489368546506,231.9468404555883)" text-anchor="middle" x="0" y="0" style="font-family: 'Open Sans', verdana, arial, sans-serif; font-size: 14px; fill: rgb(68, 68, 68); fill-opacity: 1; white-space: pre;">77.3%</text></g></g><g class="slice"><path class="surface" d="M136.375,102.21250000000009a58.1875,58.1875 0 0 0 -57.57060376131547,49.737012510653045l-57.57060376131547,-8.450487489346958a116.375,116.375 0 0 1 115.14120752263094,-99.47402502130609Z" style="pointer-events: none; fill: rgb(196, 223, 185); fill-opacity: 1; stroke-width: 0; stroke: rgb(68, 68, 68); stroke-opacity: 1;"/><g class="slicetext"><text data-notex="1" class="slicetext" transform="translate(79.31510631453493,99.85315954441188)" text-anchor="middle" x="0" y="0" style="font-family: 'Open Sans', verdana, arial, sans-serif; font-size: 14px; fill: rgb(68, 68, 68); fill-opacity: 1; white-space: pre;">22.7%</text></g></g></g><g class="trace" stroke-linejoin="round" style="opacity: 1;"><g class="slice"><path class="surface" d="M325.9113604682154,185.0385341196078a58.1875,58.1875 0 1 0 52.71363953178463,-82.8260341196077l0,-58.1875a116.375,116.375 0 1 1 -105.42727906356926,165.6520682392154Z" style="pointer-events: none; fill: rgb(255, 127, 127); fill-opacity: 1; stroke-width: 0; stroke: rgb(68, 68, 68); stroke-opacity: 1;"/><g class="slicetext"><text data-notex="1" class="slicetext" transform="translate(452.2583473561844,212.76306390630046)" text-anchor="middle" x="0" y="0" style="font-family: 'Open Sans', verdana, arial, sans-serif; font-size: 14px; fill: rgb(68, 68, 68); fill-opacity: 1; white-space: pre;">68%</text></g></g><g class="slice"><path class="surface" d="M378.625,102.21250000000009a58.1875,58.1875 0 0 0 -52.71363953178462,82.82603411960771l-52.71363953178462,24.638534119607712a116.375,116.375 0 0 1 105.42727906356924,-165.65206823921542Z" style="pointer-events: none; fill: rgb(196, 223, 185); fill-opacity: 1; stroke-width: 0; stroke: rgb(68, 68, 68); stroke-opacity: 1;"/><g class="slicetext"><text data-notex="1" class="slicetext" transform="translate(304.9916526438156,119.03693609369972)" text-anchor="middle" x="0" y="0" style="font-family: 'Open Sans', verdana, arial, sans-serif; font-size: 14px; fill: rgb(68, 68, 68); fill-opacity: 1; white-space: pre;">32%</text></g></g></g><g class="trace" stroke-linejoin="round" style="opacity: 1;"><g class="slice"><path class="surface" d="M116.82112593227714,405.1964310907252a58.1875,58.1875 0 1 0 19.553874067722862,-3.383931090725163l0,-58.1875a116.375,116.375 0 1 1 -39.107748135445725,6.767862181450326Z" style="pointer-events: none; fill: rgb(196, 223, 185); fill-opacity: 1; stroke-width: 0; stroke: rgb(68, 68, 68); stroke-opacity: 1;"/><g class="slicetext"><text data-notex="1" class="slicetext" transform="translate(151.2583901257162,551.5029144850814)" text-anchor="middle" x="0" y="0" style="font-family: 'Open Sans', verdana, arial, sans-serif; font-size: 14px; fill: rgb(68, 68, 68); fill-opacity: 1; white-space: pre;">94.5%</text></g></g><g class="slice"><path class="surface" d="M136.375,401.8125a58.1875,58.1875 0 0 0 -19.553874067722838,3.383931090725156l-19.553874067722838,-54.803568909274844a116.375,116.375 0 0 1 39.107748135445675,-6.767862181450312Z" style="pointer-events: none; fill: rgb(255, 127, 127); fill-opacity: 1; stroke-width: 0; stroke: rgb(68, 68, 68); stroke-opacity: 1;"/><g class="slicetext"><text data-notex="1" class="slicetext" transform="translate(116.02102465047548,374.63945272646816)rotate(80.18181818181813)" text-anchor="middle" x="0" y="0" style="font-family: 'Open Sans', verdana, arial, sans-serif; font-size: 14px; fill: rgb(68, 68, 68); fill-opacity: 1; white-space: pre;">5.45%</text></g></g></g><g class="trace" stroke-linejoin="round" style="opacity: 1;"><g class="slice"><path class="surface" d="M362.23168684878925,404.16950259780646a58.1875,58.1875 0 1 0 16.393313151210744,-2.3570025978064493l0,-58.1875a116.375,116.375 0 1 1 -32.78662630242149,4.7140051956128985Z" style="pointer-events: none; fill: rgb(196, 223, 185); fill-opacity: 1; stroke-width: 0; stroke: rgb(68, 68, 68); stroke-opacity: 1;"/><g class="slicetext"><text data-notex="1" class="slicetext" transform="translate(391.0464169780402,551.8928527241701)" text-anchor="middle" x="0" y="0" style="font-family: 'Open Sans', verdana, arial, sans-serif; font-size: 14px; fill: rgb(68, 68, 68); fill-opacity: 1; white-space: pre;">95.5%</text></g></g><g class="slice"><path class="surface" d="M378.625,401.8125a58.1875,58.1875 0 0 0 -16.393313151210688,2.357002597806435l-16.393313151210688,-55.830497402193565a116.375,116.375 0 0 1 32.786626302421375,-4.71400519561287Z" style="pointer-events: none; fill: rgb(255, 127, 127); fill-opacity: 1; stroke-width: 0; stroke: rgb(68, 68, 68); stroke-opacity: 1;"/><g class="slicetext"><text data-notex="1" class="slicetext" transform="translate(360.3277943242426,371.3868472368737)rotate(81.81818181818187)" text-anchor="middle" x="0" y="0" style="font-family: 'Open Sans', verdana, arial, sans-serif; font-size: 14px; fill: rgb(68, 68, 68); fill-opacity: 1; white-space: pre;">4.55%</text></g></g></g><g class="trace" stroke-linejoin="round" style="opacity: 1;"><g class="slice"><path class="surface" d="M116.88919256680073,704.7721925942112a58.1875,58.1875 0 1 0 19.485807433199273,-3.3596925942111397l0,-58.1875a116.375,116.375 0 1 1 -38.971614866398546,6.7193851884222795Z" style="pointer-events: none; fill: rgb(255, 127, 127); fill-opacity: 1; stroke-width: 0; stroke: rgb(68, 68, 68); stroke-opacity: 1;"/><g class="slicetext"><text data-notex="1" class="slicetext" transform="translate(151.20499079328332,851.1121385307541)" text-anchor="middle" x="0" y="0" style="font-family: 'Open Sans', verdana, arial, sans-serif; font-size: 14px; fill: rgb(68, 68, 68); fill-opacity: 1; white-space: pre;">94.6%</text></g></g><g class="slice"><path class="surface" d="M136.375,701.4125a58.1875,58.1875 0 0 0 -19.485807433199255,3.3596925942111326l-19.485807433199255,-54.82780740578887a116.375,116.375 0 0 1 38.97161486639851,-6.719385188422265Z" style="pointer-events: none; fill: rgb(196, 223, 185); fill-opacity: 1; stroke-width: 0; stroke: rgb(68, 68, 68); stroke-opacity: 1;"/><g class="slicetext"><text data-notex="1" class="slicetext" transform="translate(116.06470039403843,674.1727434380556)rotate(80.21739130434787)" text-anchor="middle" x="0" y="0" style="font-family: 'Open Sans', verdana, arial, sans-serif; font-size: 14px; fill: rgb(68, 68, 68); fill-opacity: 1; white-space: pre;">5.43%</text></g></g></g><g class="trace" stroke-linejoin="round" style="opacity: 1;"><g class="slice"><path class="surface" d="M378.625,701.4125a58.1875,58.1875 0 1 0 7.125913562538661e-15,116.375a58.1875,58.1875 0 1 0 -7.125913562538661e-15,-116.375ZM378.625,643.225a116.375,116.375 0 1 1 1.4251827125077322e-14,232.75a116.375,116.375 0 1 1 -1.4251827125077322e-14,-232.75Z" style="pointer-events: none; fill: rgb(255, 127, 127); fill-opacity: 1; stroke-width: 0; stroke: rgb(68, 68, 68); stroke-opacity: 1;"/><g class="slicetext"><text data-notex="1" class="slicetext" transform="translate(378.625,852.38125)" text-anchor="middle" x="0" y="0" style="font-family: 'Open Sans', verdana, arial, sans-serif; font-size: 14px; fill: rgb(68, 68, 68); fill-opacity: 1; white-space: pre;">100%</text></g></g><g class="slice"><path class="surface" d="M378.625,701.4125a58.1875,58.1875 0 0 0 0,0l0,-58.1875a116.375,116.375 0 0 1 0,0Z" style="pointer-events: none; fill: rgb(196, 223, 185); fill-opacity: 1; stroke-width: 0; stroke: rgb(68, 68, 68); stroke-opacity: 1;"/><g class="slicetext"><text data-notex="1" class="slicetext" transform="translate(394.875,640.225)" text-anchor="middle" x="0" y="0" style="font-family: 'Open Sans', verdana, arial, sans-serif; font-size: 14px; fill: rgb(42, 63, 95); fill-opacity: 1; white-space: pre;">0%</text></g></g></g></g><g class="iciclelayer"/><g class="treemaplayer"/><g class="sunburstlayer"/><g class="glimages"/><defs id="topdefs-d9cdb9"><g class="clips"/><clipPath id="legendd9cdb9"><rect width="83" height="53" x="0" y="0"/></clipPath></defs><g class="layer-above"><g class="imagelayer"/><g class="shapelayer"/></g><g class="infolayer"><g class="legend" pointer-events="all" transform="translate(504.5,40)"><rect class="bg" shape-rendering="crispEdges" width="83" height="53" x="0" y="0" style="stroke: rgb(68, 68, 68); stroke-opacity: 1; fill: rgb(255, 255, 255); fill-opacity: 1; stroke-width: 0px;"/><g class="scrollbox" transform="" clip-path="url(#legendd9cdb9)"><g class="groups"><g class="traces" transform="translate(0,15.6)" style="opacity: 1;"><text class="legendtext" text-anchor="start" x="40" y="5.46" style="font-family: 'Open Sans', verdana, arial, sans-serif; font-size: 14px; fill: rgb(42, 63, 95); fill-opacity: 1; white-space: pre;">FAIL</text><g class="layers" style="opacity: 1;"><g class="legendfill"/><g class="legendlines"/><g class="legendsymbols"><g class="legendpoints"><path class="legendpie" d="M6,6H-6V-6H6Z" transform="translate(20,0)" style="fill: rgb(255, 127, 127); fill-opacity: 1; stroke-width: 0; stroke: rgb(68, 68, 68); stroke-opacity: 1;"/></g></g></g><rect class="legendtoggle" x="0" y="-10.6" width="78" height="21.2" style="fill: rgb(0, 0, 0); fill-opacity: 0;"/></g><g class="traces" transform="translate(0,36.8)" style="opacity: 1;"><text class="legendtext" text-anchor="start" x="40" y="5.46" style="font-family: 'Open Sans', verdana, arial, sans-serif; font-size: 14px; fill: rgb(42, 63, 95); fill-opacity: 1; white-space: pre;">PASS</text><g class="layers" style="opacity: 1;"><g class="legendfill"/><g class="legendlines"/><g class="legendsymbols"><g class="legendpoints"><path class="legendpie" d="M6,6H-6V-6H6Z" transform="translate(20,0)" style="fill: rgb(196, 223, 185); fill-opacity: 1; stroke-width: 0; stroke: rgb(68, 68, 68); stroke-opacity: 1;"/></g></g></g><rect class="legendtoggle" x="0" y="-10.6" width="78" height="21.2" style="fill: rgb(0, 0, 0); fill-opacity: 0;"/></g></g></g><rect class="scrollbar" rx="20" ry="3" width="0" height="0" x="0" y="0" style="fill: rgb(128, 139, 164); fill-opacity: 1;"/></g><g class="g-gtitle"/><g class="annotation" data-index="0" style="opacity: 1;"><g class="annotation-text-g" transform="rotate(0,136.375,619.7)"><g class="cursor-pointer" transform="translate(104,600)"><rect class="bg" x="0.5" y="0.5" width="64" height="38" style="stroke-width: 1px; stroke: rgb(0, 0, 0); stroke-opacity: 0; fill: rgb(0, 0, 0); fill-opacity: 0;"/><text class="annotation-text" text-anchor="middle" x="32.5" y="16" style="font-family: 'Open Sans', verdana, arial, sans-serif; font-size: 14px; fill: rgb(42, 63, 95); fill-opacity: 1; white-space: pre;"><tspan class="line" dy="0em" x="32.5" y="16"><tspan style="font-style:italic">E. coli</tspan> </tspan><tspan class="line" dy="1.3em" x="32.5" y="16">(all year)</tspan></text></g></g></g><g class="annotation" data-index="1" style="opacity: 1;"><g class="annotation-text-g" transform="rotate(0,378.625,619.7)"><g class="cursor-pointer" transform="translate(329,600)"><rect class="bg" x="0.5" y="0.5" width="98" height="38" style="stroke-width: 1px; stroke: rgb(0, 0, 0); stroke-opacity: 0; fill: rgb(0, 0, 0); fill-opacity: 0;"/><text class="annotation-text" text-anchor="middle" x="49.5" y="16" style="font-family: 'Open Sans', verdana, arial, sans-serif; font-size: 14px; fill: rgb(42, 63, 95); fill-opacity: 1; white-space: pre;"><tspan class="line" dy="0em" x="49.5" y="16">Visual Clarity </tspan><tspan class="line" dy="1.3em" x="49.5" y="16"> </tspan></text></g></g></g><g class="annotation" data-index="2" style="opacity: 1;"><g class="annotation-text-g" transform="rotate(0,136.375,320.1)"><g class="cursor-pointer" transform="translate(58,301)"><rect class="bg" x="0.5" y="0.5" width="156" height="38" style="stroke-width: 1px; stroke: rgb(0, 0, 0); stroke-opacity: 0; fill: rgb(0, 0, 0); fill-opacity: 0;"/><text class="annotation-text" text-anchor="middle" x="78.5" y="16" style="font-family: 'Open Sans', verdana, arial, sans-serif; font-size: 14px; fill: rgb(42, 63, 95); fill-opacity: 1; white-space: pre;"><tspan class="line" dy="0em" x="78.5" y="16">Ammoniacal Nitrogen </tspan><tspan class="line" dy="1.3em" x="78.5" y="16">(maximum value)</tspan></text></g></g></g><g class="annotation" data-index="3" style="opacity: 1;"><g class="annotation-text-g" transform="rotate(0,378.625,320.1)"><g class="cursor-pointer" transform="translate(300,301)"><rect class="bg" x="0.5" y="0.5" width="156" height="38" style="stroke-width: 1px; stroke: rgb(0, 0, 0); stroke-opacity: 0; fill: rgb(0, 0, 0); fill-opacity: 0;"/><text class="annotation-text" text-anchor="middle" x="78.5" y="16" style="font-family: 'Open Sans', verdana, arial, sans-serif; font-size: 14px; fill: rgb(42, 63, 95); fill-opacity: 1; white-space: pre;"><tspan class="line" dy="0em" x="78.5" y="16">Ammoniacal Nitrogen </tspan><tspan class="line" dy="1.3em" x="78.5" y="16">(average value)</tspan></text></g></g></g><g class="annotation" data-index="4" style="opacity: 1;"><g class="annotation-text-g" transform="rotate(0,136.375,29.500000000000085)"><g class="cursor-pointer" transform="translate(25,19)"><rect class="bg" x="0.5" y="0.5" width="222" height="20" style="stroke-width: 1px; stroke: rgb(0, 0, 0); stroke-opacity: 0; fill: rgb(0, 0, 0); fill-opacity: 0;"/><text class="annotation-text" text-anchor="middle" x="111.5" y="16" style="font-family: 'Open Sans', verdana, arial, sans-serif; font-size: 14px; fill: rgb(42, 63, 95); fill-opacity: 1; white-space: pre;">Dissolved Reactive Phosphorus</text></g></g></g><g class="annotation" data-index="5" style="opacity: 1;"><g class="annotation-text-g" transform="rotate(0,378.625,29.500000000000085)"><g class="cursor-pointer" transform="translate(284,19)"><rect class="bg" x="0.5" y="0.5" width="189" height="20" style="stroke-width: 1px; stroke: rgb(0, 0, 0); stroke-opacity: 0; fill: rgb(0, 0, 0); fill-opacity: 0;"/><text class="annotation-text" text-anchor="middle" x="95" y="16" style="font-family: 'Open Sans', verdana, arial, sans-serif; font-size: 14px; fill: rgb(42, 63, 95); fill-opacity: 1; white-space: pre;">Soluble Inorganic Nitrogen</text></g></g></g></g></svg>