<svg class="main-svg" xmlns="http://www.w3.org/2000/svg" xmlns:xlink="http://www.w3.org/1999/xlink" width="675" height="1200" style="" viewBox="0 0 675 1200"><rect x="0" y="0" width="675" height="1200" style="fill: rgb(255, 255, 255); fill-opacity: 1;"/><defs id="defs-f00245"><g class="clips"/><g class="gradients"/><g class="patterns"><pattern id="pf00245-cc7993-0" width="8px" height="8px" patternUnits="userSpaceOnUse" patternTransform=""><rect width="8px" height="8px" fill="rgb(255, 255, 255)" fill-opacity="1"/><circle cx="4" cy="4" r="2.472154892948413" opacity="1" fill="rgb(255, 127, 127)"/></pattern><pattern id="pf00245-54c6b2-1" width="8px" height="8px" patternUnits="userSpaceOnUse" patternTransform=""><rect width="8px" height="8px" fill="rgb(255, 255, 255)" fill-opacity="1"/><circle cx="4" cy="4" r="2.472154892948413" opacity="1" fill="rgb(196, 223, 185)"/></pattern><pattern id="pf00245-54c6b2-0" width="8px" height="8px" patternUnits="userSpaceOnUse" patternTransform=""><rect width="8px" height="8px" fill="rgb(255, 255, 255)" fill-opacity="1"/><circle cx="4" cy="4" r="2.472154892948413" opacity="1" fill="rgb(255, 127, 127)"/></pattern></g></defs><g class="bglayer"/><g class="layer-below"><g class="imagelayer"/><g class="shapelayer"/></g><g class="cartesianlayer"/><g class="polarlayer"/><g class="smithlayer"/><g class="ternarylayer"/><g class="geolayer"/><g class="funnelarealayer"/><g class="pielayer"><g class="trace" stroke-linejoin="round" style="opacity: 1;"><g class="slice"><path class="surface" d="M141.765,221.6875a60.56250000000001,60.56250000000001 0 0 0 -7.416767177336158e-15,-121.12500000000001l0,-60.56250000000001a121.12500000000001,121.12500000000001 0 0 1 1.4833534354672317e-14,242.25000000000003Z" style="pointer-events: none; stroke-width: 0; fill: rgb(255, 127, 127); fill-opacity: 1; stroke: rgb(68, 68, 68); stroke-opacity: 1;"/><g class="slicetext"><text data-notex="1" class="slicetext" transform="translate(232.60875,166.125)" text-anchor="middle" x="0" y="0" style="font-family: 'Open Sans', verdana, arial, sans-serif; font-size: 12px; fill: rgb(68, 68, 68); fill-opacity: 1; white-space: pre;">50%</text></g></g><g class="slice"><path class="surface" d="M141.765,100.5625a60.56250000000001,60.56250000000001 0 0 0 -7.416767177336158e-15,121.12500000000001l-7.416767177336158e-15,60.56250000000001a121.12500000000001,121.12500000000001 0 0 1 1.4833534354672317e-14,-242.25000000000003Z" style="pointer-events: none; stroke-width: 0; fill: rgb(196, 223, 185); fill-opacity: 1; stroke: rgb(68, 68, 68); stroke-opacity: 1;"/><g class="slicetext"><text data-notex="1" class="slicetext" transform="translate(50.92124999999997,166.125)" text-anchor="middle" x="0" y="0" style="font-family: 'Open Sans', verdana, arial, sans-serif; font-size: 12px; fill: rgb(68, 68, 68); fill-opacity: 1; white-space: pre;">50%</text></g></g></g><g class="trace" stroke-linejoin="round" style="opacity: 1;"><g class="slice"><path class="surface" d="M395.235,221.6875a60.56250000000001,60.56250000000001 0 0 0 -7.416767177336158e-15,-121.12500000000001l0,-60.56250000000001a121.12500000000001,121.12500000000001 0 0 1 1.4833534354672317e-14,242.25000000000003Z" style="pointer-events: none; stroke-width: 0; fill: rgb(255, 127, 127); fill-opacity: 1; stroke: rgb(68, 68, 68); stroke-opacity: 1;"/><g class="slicetext"><text data-notex="1" class="slicetext" transform="translate(486.07875,166.125)" text-anchor="middle" x="0" y="0" style="font-family: 'Open Sans', verdana, arial, sans-serif; font-size: 12px; fill: rgb(68, 68, 68); fill-opacity: 1; white-space: pre;">50%</text></g></g><g class="slice"><path class="surface" d="M395.235,100.5625a60.56250000000001,60.56250000000001 0 0 0 -7.416767177336158e-15,121.12500000000001l-7.416767177336158e-15,60.56250000000001a121.12500000000001,121.12500000000001 0 0 1 1.4833534354672317e-14,-242.25000000000003Z" style="pointer-events: none; stroke-width: 0; fill: rgb(196, 223, 185); fill-opacity: 1; stroke: rgb(68, 68, 68); stroke-opacity: 1;"/><g class="slicetext"><text data-notex="1" class="slicetext" transform="translate(304.39125,166.125)" text-anchor="middle" x="0" y="0" style="font-family: 'Open Sans', verdana, arial, sans-serif; font-size: 12px; fill: rgb(68, 68, 68); fill-opacity: 1; white-space: pre;">50%</text></g></g></g><g class="trace" stroke-linejoin="round" style="opacity: 1;"><g class="slice"><path class="surface" d="M81.20249999999999,460.375a60.56250000000001,60.56250000000001 0 1 0 60.56250000000001,-60.56250000000002l0,-60.56250000000001a121.12500000000001,121.12500000000001 0 1 1 -121.12500000000001,121.12500000000004Z" style="pointer-events: none; stroke-width: 0; fill: rgb(255, 127, 127); fill-opacity: 1; stroke: rgb(68, 68, 68); stroke-opacity: 1;"/><g class="slicetext"><text data-notex="1" class="slicetext" transform="translate(206.0012316534154,529.6112316534154)" text-anchor="middle" x="0" y="0" style="font-family: 'Open Sans', verdana, arial, sans-serif; font-size: 12px; fill: rgb(68, 68, 68); fill-opacity: 1; white-space: pre;">75%</text></g></g><g class="slice"><path class="surface" d="M141.765,399.8125a60.56250000000001,60.56250000000001 0 0 0 -60.56250000000001,60.5625l-60.56250000000001,-3.708383588668079e-15a121.12500000000001,121.12500000000001 0 0 1 121.12500000000001,-121.125Z" style="pointer-events: none; stroke-width: 0; fill: rgb(196, 223, 185); fill-opacity: 1; stroke: rgb(68, 68, 68); stroke-opacity: 1;"/><g class="slicetext"><text data-notex="1" class="slicetext" transform="translate(77.52876834658456,401.1387683465846)" text-anchor="middle" x="0" y="0" style="font-family: 'Open Sans', verdana, arial, sans-serif; font-size: 12px; fill: rgb(68, 68, 68); fill-opacity: 1; white-space: pre;">25%</text></g></g></g><g class="trace" stroke-linejoin="round" style="opacity: 1;"><g class="slice"><path class="surface pattern_filled" d="M395.235,399.8125a60.56250000000001,60.56250000000001 0 1 0 7.416767177336158e-15,121.12500000000001a60.56250000000001,60.56250000000001 0 1 0 -7.416767177336158e-15,-121.12500000000001ZM395.235,339.25a121.12500000000001,121.12500000000001 0 1 1 1.4833534354672317e-14,242.25000000000003a121.12500000000001,121.12500000000001 0 1 1 -1.4833534354672317e-14,-242.25000000000003Z" style="pointer-events: none; stroke-width: 0; fill: url('#pf00245-cc7993-0'); stroke: rgb(68, 68, 68); stroke-opacity: 1;"/><g class="slicetext"><text data-notex="1" class="slicetext" transform="translate(395.235,556.21875)" text-anchor="middle" x="0" y="0" style="font-family: 'Open Sans', verdana, arial, sans-serif; font-size: 12px; fill: rgb(68, 68, 68); fill-opacity: 1; white-space: pre;">100%</text></g></g></g><g class="trace" stroke-linejoin="round" style="opacity: 1;"><g class="slice"><path class="surface pattern_filled" d="M81.20249999999999,759.625a60.56249999999999,60.56249999999999 0 1 0 60.56249999999999,-60.56250000000001l0,-60.56249999999999a121.12499999999999,121.12499999999999 0 1 1 -121.12499999999999,121.12500000000001Z" style="pointer-events: none; stroke-width: 0; fill: url('#pf00245-54c6b2-0'); stroke: rgb(68, 68, 68); stroke-opacity: 1;"/><g class="slicetext"><text data-notex="1" class="slicetext" transform="translate(206.0012316534154,828.8612316534154)" text-anchor="middle" x="0" y="0" style="font-family: 'Open Sans', verdana, arial, sans-serif; font-size: 12px; fill: rgb(68, 68, 68); fill-opacity: 1; white-space: pre;">75%</text></g></g><g class="slice"><path class="surface pattern_filled" d="M141.765,699.0625a60.56249999999999,60.56249999999999 0 0 0 -60.56249999999999,60.562499999999986l-60.56249999999999,-3.7083835886680784e-15a121.12499999999999,121.12499999999999 0 0 1 121.12499999999999,-121.12499999999997Z" style="pointer-events: none; stroke-width: 0; fill: url('#pf00245-54c6b2-1'); stroke: rgb(68, 68, 68); stroke-opacity: 1;"/><g class="slicetext"><text data-notex="1" class="slicetext" transform="translate(77.52876834658457,700.3887683465846)" text-anchor="middle" x="0" y="0" style="font-family: 'Open Sans', verdana, arial, sans-serif; font-size: 12px; fill: rgb(68, 68, 68); fill-opacity: 1; white-space: pre;">25%</text></g></g></g><g class="trace" stroke-linejoin="round" style="opacity: 1;"><g class="slice"><path class="surface" d="M395.235,699.0625a60.56249999999999,60.56249999999999 0 1 0 7.416767177336157e-15,121.12499999999999a60.56249999999999,60.56249999999999 0 1 0 -7.416767177336157e-15,-121.12499999999999ZM395.235,638.5a121.12499999999999,121.12499999999999 0 1 1 1.4833534354672314e-14,242.24999999999997a121.12499999999999,121.12499999999999 0 1 1 -1.4833534354672314e-14,-242.24999999999997Z" style="pointer-events: none; stroke-width: 0; fill: rgb(196, 223, 185); fill-opacity: 1; stroke: rgb(68, 68, 68); stroke-opacity: 1;"/><g class="slicetext"><text data-notex="1" class="slicetext" transform="translate(395.235,855.46875)" text-anchor="middle" x="0" y="0" style="font-family: 'Open Sans', verdana, arial, sans-serif; font-size: 12px; fill: rgb(68, 68, 68); fill-opacity: 1; white-space: pre;">100%</text></g></g></g><g class="trace" stroke-linejoin="round" style="opacity: 1;"><g class="slice"><path class="surface" d="M141.765,998.3125a60.5625,60.5625 0 1 0 7.416767177336158e-15,121.125a60.5625,60.5625 0 1 0 -7.416767177336158e-15,-121.125ZM141.765,937.75a121.125,121.125 0 1 1 1.4833534354672317e-14,242.25a121.125,121.125 0 1 1 -1.4833534354672317e-14,-242.25Z" style="pointer-events: none; stroke-width: 0; fill: rgb(255, 127, 127); fill-opacity: 1; stroke: rgb(68, 68, 68); stroke-opacity: 1;"/><g class="slicetext"><text data-notex="1" class="slicetext" transform="translate(141.765,1154.71875)" text-anchor="middle" x="0" y="0" style="font-family: 'Open Sans', verdana, arial, sans-serif; font-size: 12px; fill: rgb(68, 68, 68); fill-opacity: 1; white-space: pre;">100%</text></g></g></g><g class="trace" stroke-linejoin="round" style="opacity: 1;"><g class="slice"><path class="surface" d="M395.235,998.3125a60.5625,60.5625 0 1 0 7.416767177336158e-15,121.125a60.5625,60.5625 0 1 0 -7.416767177336158e-15,-121.125ZM395.235,937.75a121.125,121.125 0 1 1 1.4833534354672317e-14,242.25a121.125,121.125 0 1 1 -1.4833534354672317e-14,-242.25Z" style="pointer-events: none; stroke-width: 0; fill: rgb(255, 127, 127); fill-opacity: 1; stroke: rgb(68, 68, 68); stroke-opacity: 1;"/><g class="slicetext"><text data-notex="1" class="slicetext" transform="translate(395.235,1154.71875)" text-anchor="middle" x="0" y="0" style="font-family: 'Open Sans', verdana, arial, sans-serif; font-size: 12px; fill: rgb(68, 68, 68); fill-opacity: 1; white-space: pre;">100%</text></g></g></g></g><g class="iciclelayer"/><g class="treemaplayer"/><g class="sunburstlayer"/><g class="glimages"/><defs id="topdefs-f00245"><g class="clips"/><clipPath id="legendf00245"><rect width="136" height="86" x="0" y="0"/></clipPath></defs><g class="layer-above"><g class="imagelayer"/><g class="shapelayer"/></g><g class="infolayer"><g class="legend" pointer-events="all" transform="translate(526.94,40)"><rect class="bg" shape-rendering="crispEdges" width="136" height="86" x="0" y="0" style="stroke: rgb(68, 68, 68); stroke-opacity: 1; fill: rgb(255, 255, 255); fill-opacity: 1; stroke-width: 0px;"/><g class="scrollbox" transform="" clip-path="url(#legendf00245)"><g class="groups"><g class="traces" transform="translate(0,14.5)" style="opacity: 1;"><text class="legendtext" text-anchor="start" x="40" y="4.680000000000001" style="font-family: 'Open Sans', verdana, arial, sans-serif; font-size: 12px; fill: rgb(42, 63, 95); fill-opacity: 1; white-space: pre;">FAIL (Final)</text><g class="layers" style="opacity: 1;"><g class="legendfill"/><g class="legendlines"/><g class="legendsymbols"><g class="legendpoints"><path class="legendpie" d="M6,6H-6V-6H6Z" transform="translate(20,0)" style="stroke-width: 0; fill: rgb(255, 127, 127); fill-opacity: 1; stroke: rgb(68, 68, 68); stroke-opacity: 1;"/></g></g></g><rect class="legendtoggle" x="0" y="-9.5" width="131" height="19" style="fill: rgb(0, 0, 0); fill-opacity: 0;"/></g><g class="traces" transform="translate(0,33.5)" style="opacity: 1;"><text class="legendtext" text-anchor="start" x="40" y="4.680000000000001" style="font-family: 'Open Sans', verdana, arial, sans-serif; font-size: 12px; fill: rgb(42, 63, 95); fill-opacity: 1; white-space: pre;">PASS (Final)</text><g class="layers" style="opacity: 1;"><g class="legendfill"/><g class="legendlines"/><g class="legendsymbols"><g class="legendpoints"><path class="legendpie" d="M6,6H-6V-6H6Z" transform="translate(20,0)" style="stroke-width: 0; fill: rgb(196, 223, 185); fill-opacity: 1; stroke: rgb(68, 68, 68); stroke-opacity: 1;"/></g></g></g><rect class="legendtoggle" x="0" y="-9.5" width="131" height="19" style="fill: rgb(0, 0, 0); fill-opacity: 0;"/></g><g class="traces" transform="translate(0,52.5)" style="opacity: 1;"><text class="legendtext" text-anchor="start" x="40" y="4.680000000000001" style="font-family: 'Open Sans', verdana, arial, sans-serif; font-size: 12px; fill: rgb(42, 63, 95); fill-opacity: 1; white-space: pre;">FAIL (Interim)</text><g class="layers" style="opacity: 1;"><g class="legendfill"/><g class="legendlines"/><g class="legendsymbols"><g class="legendpoints"><path class="legendpie pattern_filled" d="M6,6H-6V-6H6Z" transform="translate(20,0)" style="stroke-width: 0; fill: url('#pf00245-cc7993-0'); stroke: rgb(68, 68, 68); stroke-opacity: 1;"/></g></g></g><rect class="legendtoggle" x="0" y="-9.5" width="131" height="19" style="fill: rgb(0, 0, 0); fill-opacity: 0;"/></g><g class="traces" transform="translate(0,71.5)" style="opacity: 1;"><text class="legendtext" text-anchor="start" x="40" y="4.680000000000001" style="font-family: 'Open Sans', verdana, arial, sans-serif; font-size: 12px; fill: rgb(42, 63, 95); fill-opacity: 1; white-space: pre;">PASS (Interim)</text><g class="layers" style="opacity: 1;"><g class="legendfill"/><g class="legendlines"/><g class="legendsymbols"><g class="legendpoints"><path class="legendpie pattern_filled" d="M6,6H-6V-6H6Z" transform="translate(20,0)" style="stroke-width: 0; fill: url('#pf00245-54c6b2-1'); stroke: rgb(68, 68, 68); stroke-opacity: 1;"/></g></g></g><rect class="legendtoggle" x="0" y="-9.5" width="131" height="19" style="fill: rgb(0, 0, 0); fill-opacity: 0;"/></g></g></g><rect class="scrollbar" rx="20" ry="3" width="0" height="0" x="0" y="0" style="fill: rgb(128, 139, 164); fill-opacity: 1;"/></g><g class="g-gtitle"/><g class="annotation" data-index="0" style="opacity: 1;"><g class="annotation-text-g" transform="rotate(0,144.25,29.499999999999996)"><g class="cursor-pointer" transform="translate(96,19)"><rect class="bg" x="0.5" y="0.5" width="96" height="20" style="stroke-width: 1px; stroke: rgb(0, 0, 0); stroke-opacity: 0; fill: rgb(0, 0, 0); fill-opacity: 0;"/><text class="annotation-text" text-anchor="middle" x="48.5" y="16" style="font-family: 'Open Sans', verdana, arial, sans-serif; font-size: 14px; fill: rgb(42, 63, 95); fill-opacity: 1; white-space: pre;">Chlorophyll-<tspan style="font-style:italic">a</tspan></text></g></g></g><g class="annotation" data-index="1" style="opacity: 1;"><g class="annotation-text-g" transform="rotate(0,392.75,20.499999999999996)"><g class="cursor-pointer" transform="translate(332,1)"><rect class="bg" x="0.5" y="0.5" width="120" height="38" style="stroke-width: 1px; stroke: rgb(0, 0, 0); stroke-opacity: 0; fill: rgb(0, 0, 0); fill-opacity: 0;"/><text class="annotation-text" text-anchor="middle" x="60.5" y="16" style="font-family: 'Open Sans', verdana, arial, sans-serif; font-size: 14px; fill: rgb(42, 63, 95); fill-opacity: 1; white-space: pre;"><tspan class="line" dy="0em" x="60.5" y="16">Faecal Coliforms </tspan><tspan class="line" dy="1.3em" x="60.5" y="16">(median value)</tspan></text></g></g></g><g class="annotation" data-index="2" style="opacity: 1;"><g class="annotation-text-g" transform="rotate(0,144.25,316.90000000000003)"><g class="cursor-pointer" transform="translate(84,297)"><rect class="bg" x="0.5" y="0.5" width="120" height="38" style="stroke-width: 1px; stroke: rgb(0, 0, 0); stroke-opacity: 0; fill: rgb(0, 0, 0); fill-opacity: 0;"/><text class="annotation-text" text-anchor="middle" x="60.5" y="16" style="font-family: 'Open Sans', verdana, arial, sans-serif; font-size: 14px; fill: rgb(42, 63, 95); fill-opacity: 1; white-space: pre;"><tspan class="line" dy="0em" x="60.5" y="16">Faecal Coliforms </tspan><tspan class="line" dy="1.3em" x="60.5" y="16">(90th percentile)</tspan></text></g></g></g><g class="annotation" data-index="3" style="opacity: 1;"><g class="annotation-text-g" transform="rotate(0,392.75,316.90000000000003)"><g class="cursor-pointer" transform="translate(331,297)"><rect class="bg" x="0.5" y="0.5" width="123" height="38" style="stroke-width: 1px; stroke: rgb(0, 0, 0); stroke-opacity: 0; fill: rgb(0, 0, 0); fill-opacity: 0;"/><text class="annotation-text" text-anchor="middle" x="62" y="16" style="font-family: 'Open Sans', verdana, arial, sans-serif; font-size: 14px; fill: rgb(42, 63, 95); fill-opacity: 1; white-space: pre;"><tspan class="line" dy="0em" x="62" y="16">Enterococci </tspan><tspan class="line" dy="1.3em" x="62" y="16">(bathing season)</tspan></text></g></g></g><g class="annotation" data-index="4" style="opacity: 1;"><g class="annotation-text-g" transform="rotate(0,144.25,613.3000000000001)"><g class="cursor-pointer" transform="translate(100,594)"><rect class="bg" x="0.5" y="0.5" width="88" height="38" style="stroke-width: 1px; stroke: rgb(0, 0, 0); stroke-opacity: 0; fill: rgb(0, 0, 0); fill-opacity: 0;"/><text class="annotation-text" text-anchor="middle" x="44.5" y="16" style="font-family: 'Open Sans', verdana, arial, sans-serif; font-size: 14px; fill: rgb(42, 63, 95); fill-opacity: 1; white-space: pre;"><tspan class="line" dy="0em" x="44.5" y="16">Enterococci </tspan><tspan class="line" dy="1.3em" x="44.5" y="16">(all year)</tspan></text></g></g></g><g class="annotation" data-index="5" style="opacity: 1;"><g class="annotation-text-g" transform="rotate(0,392.75,622.3000000000001)"><g class="cursor-pointer" transform="translate(317,612)"><rect class="bg" x="0.5" y="0.5" width="151" height="20" style="stroke-width: 1px; stroke: rgb(0, 0, 0); stroke-opacity: 0; fill: rgb(0, 0, 0); fill-opacity: 0;"/><text class="annotation-text" text-anchor="middle" x="76" y="16" style="font-family: 'Open Sans', verdana, arial, sans-serif; font-size: 14px; fill: rgb(42, 63, 95); fill-opacity: 1; white-space: pre;">Ammoniacal Nitrogen</text></g></g></g><g class="annotation" data-index="6" style="opacity: 1;"><g class="annotation-text-g" transform="rotate(0,144.25,918.7)"><g class="cursor-pointer" transform="translate(93,908)"><rect class="bg" x="0.5" y="0.5" width="101" height="20" style="stroke-width: 1px; stroke: rgb(0, 0, 0); stroke-opacity: 0; fill: rgb(0, 0, 0); fill-opacity: 0;"/><text class="annotation-text" text-anchor="middle" x="51" y="16" style="font-family: 'Open Sans', verdana, arial, sans-serif; font-size: 14px; fill: rgb(42, 63, 95); fill-opacity: 1; white-space: pre;">Total Nitrogen</text></g></g></g><g class="annotation" data-index="7" style="opacity: 1;"><g class="annotation-text-g" transform="rotate(0,392.75,918.7)"><g class="cursor-pointer" transform="translate(330,908)"><rect class="bg" x="0.5" y="0.5" width="125" height="20" style="stroke-width: 1px; stroke: rgb(0, 0, 0); stroke-opacity: 0; fill: rgb(0, 0, 0); fill-opacity: 0;"/><text class="annotation-text" text-anchor="middle" x="63" y="16" style="font-family: 'Open Sans', verdana, arial, sans-serif; font-size: 14px; fill: rgb(42, 63, 95); fill-opacity: 1; white-space: pre;">Total Phosphorus</text></g></g></g></g></svg>