<svg class="main-svg" xmlns="http://www.w3.org/2000/svg" xmlns:xlink="http://www.w3.org/1999/xlink" width="675" height="1200" style="" viewBox="0 0 675 1200"><rect x="0" y="0" width="675" height="1200" style="fill: rgb(255, 255, 255); fill-opacity: 1;"/><defs id="defs-72d7ed"><g class="clips"/><g class="gradients"/><g class="patterns"><pattern id="p72d7ed-bed6a0-1" width="8px" height="8px" patternUnits="userSpaceOnUse" patternTransform=""><rect width="8px" height="8px" fill="rgb(255, 255, 255)" fill-opacity="1"/><circle cx="4" cy="4" r="2.472154892948413" opacity="1" fill="rgb(255, 127, 127)"/></pattern><pattern id="p72d7ed-bed6a0-2" width="8px" height="8px" patternUnits="userSpaceOnUse" patternTransform=""><rect width="8px" height="8px" fill="rgb(255, 255, 255)" fill-opacity="1"/><circle cx="4" cy="4" r="2.472154892948413" opacity="1" fill="rgb(196, 223, 185)"/></pattern><pattern id="p72d7ed-424fc0-1" width="8px" height="8px" patternUnits="userSpaceOnUse" patternTransform=""><rect width="8px" height="8px" fill="rgb(255, 255, 255)" fill-opacity="1"/><circle cx="4" cy="4" r="2.472154892948413" opacity="1" fill="rgb(255, 127, 127)"/></pattern><pattern id="p72d7ed-424fc0-2" width="8px" height="8px" patternUnits="userSpaceOnUse" patternTransform=""><rect width="8px" height="8px" fill="rgb(255, 255, 255)" fill-opacity="1"/><circle cx="4" cy="4" r="2.472154892948413" opacity="1" fill="rgb(196, 223, 185)"/></pattern><pattern id="p72d7ed-bcece3-1" width="8px" height="8px" patternUnits="userSpaceOnUse" patternTransform=""><rect width="8px" height="8px" fill="rgb(255, 255, 255)" fill-opacity="1"/><circle cx="4" cy="4" r="2.472154892948413" opacity="1" fill="rgb(196, 223, 185)"/></pattern><pattern id="p72d7ed-bcece3-0" width="8px" height="8px" patternUnits="userSpaceOnUse" patternTransform=""><rect width="8px" height="8px" fill="rgb(255, 255, 255)" fill-opacity="1"/><circle cx="4" cy="4" r="2.472154892948413" opacity="1" fill="rgb(255, 127, 127)"/></pattern><pattern id="p72d7ed-b5e678-1" width="8px" height="8px" patternUnits="userSpaceOnUse" patternTransform=""><rect width="8px" height="8px" fill="rgb(255, 255, 255)" fill-opacity="1"/><circle cx="4" cy="4" r="2.472154892948413" opacity="1" fill="rgb(196, 223, 185)"/></pattern><pattern id="p72d7ed-b5e678-0" width="8px" height="8px" patternUnits="userSpaceOnUse" patternTransform=""><rect width="8px" height="8px" fill="rgb(255, 255, 255)" fill-opacity="1"/><circle cx="4" cy="4" r="2.472154892948413" opacity="1" fill="rgb(255, 127, 127)"/></pattern><pattern id="p72d7ed-8ecae8-1" width="8px" height="8px" patternUnits="userSpaceOnUse" patternTransform=""><rect width="8px" height="8px" fill="rgb(255, 255, 255)" fill-opacity="1"/><circle cx="4" cy="4" r="2.472154892948413" opacity="1" fill="rgb(255, 127, 127)"/></pattern><pattern id="p72d7ed-8ecae8-2" width="8px" height="8px" patternUnits="userSpaceOnUse" patternTransform=""><rect width="8px" height="8px" fill="rgb(255, 255, 255)" fill-opacity="1"/><circle cx="4" cy="4" r="2.472154892948413" opacity="1" fill="rgb(196, 223, 185)"/></pattern><pattern id="p72d7ed-182d2f-1" width="8px" height="8px" patternUnits="userSpaceOnUse" patternTransform=""><rect width="8px" height="8px" fill="rgb(255, 255, 255)" fill-opacity="1"/><circle cx="4" cy="4" r="2.472154892948413" opacity="1" fill="rgb(255, 127, 127)"/></pattern><pattern id="p72d7ed-784340-1" width="8px" height="8px" patternUnits="userSpaceOnUse" patternTransform=""><rect width="8px" height="8px" fill="rgb(255, 255, 255)" fill-opacity="1"/><circle cx="4" cy="4" r="2.472154892948413" opacity="1" fill="rgb(255, 127, 127)"/></pattern><pattern id="p72d7ed-2eb4b6-0" width="8px" height="8px" patternUnits="userSpaceOnUse" patternTransform=""><rect width="8px" height="8px" fill="rgb(255, 255, 255)" fill-opacity="1"/><circle cx="4" cy="4" r="2.472154892948413" opacity="1" fill="rgb(196, 223, 185)"/></pattern></g></defs><g class="bglayer"/><g class="layer-below"><g class="imagelayer"/><g class="shapelayer"/></g><g class="cartesianlayer"/><g class="polarlayer"/><g class="smithlayer"/><g class="ternarylayer"/><g class="geolayer"/><g class="funnelarealayer"/><g class="pielayer"><g class="trace" stroke-linejoin="round" style="opacity: 1;"><g class="slice"><path class="surface pattern_filled" d="M89.31633648330492,191.40625000000003a60.56250000000001,60.56250000000001 0 1 0 52.44866351669506,-90.84375000000004l0,-60.56250000000001a121.12500000000001,121.12500000000001 0 1 1 -104.89732703339013,181.68750000000009Z" style="pointer-events: none; stroke-width: 0; fill: url('#p72d7ed-bed6a0-1'); stroke: rgb(68, 68, 68); stroke-opacity: 1;"/><g class="slicetext"><text data-notex="1" class="slicetext" transform="translate(220.4379952750426,211.546875)" text-anchor="middle" x="0" y="0" style="font-family: 'Open Sans', verdana, arial, sans-serif; font-size: 12px; fill: rgb(68, 68, 68); fill-opacity: 1; white-space: pre;">66.7%</text></g></g><g class="slice"><path class="surface" d="M141.765,100.5625a60.56250000000001,60.56250000000001 0 0 0 -60.230732288241065,66.89300505664727l-60.230732288241065,6.330505056647255a121.12500000000001,121.12500000000001 0 0 1 120.46146457648213,-133.78601011329454Z" style="pointer-events: none; stroke-width: 0; fill: rgb(255, 127, 127); fill-opacity: 1; stroke: rgb(68, 68, 68); stroke-opacity: 1;"/><g class="slicetext"><text data-notex="1" class="slicetext" transform="translate(74.25493726053794,105.33866647858747)" text-anchor="middle" x="0" y="0" style="font-family: 'Open Sans', verdana, arial, sans-serif; font-size: 12px; fill: rgb(68, 68, 68); fill-opacity: 1; white-space: pre;">26.7%</text></g></g><g class="slice"><path class="surface pattern_filled" d="M81.53426771175893,167.45550505664727a60.56250000000001,60.56250000000001 0 0 0 7.782068771545987,23.950744943352735l-52.44866351669508,30.28124999999999a121.12500000000001,121.12500000000001 0 0 1 -15.564137543091974,-47.90148988670547Z" style="pointer-events: none; stroke-width: 0; fill: url('#p72d7ed-bed6a0-2'); stroke: rgb(68, 68, 68); stroke-opacity: 1;"/><g class="slicetext"><text data-notex="1" class="slicetext" transform="translate(57.1191619189433,193.88541111786805)rotate(-18)" text-anchor="middle" x="0" y="0" style="font-family: 'Open Sans', verdana, arial, sans-serif; font-size: 12px; fill: rgb(68, 68, 68); fill-opacity: 1; white-space: pre;">6.67%</text></g></g></g><g class="trace" stroke-linejoin="round" style="opacity: 1;"><g class="slice"><path class="surface pattern_filled" d="M342.7863364833049,191.40625000000003a60.56250000000001,60.56250000000001 0 1 0 52.44866351669506,-90.84375000000004l0,-60.56250000000001a121.12500000000001,121.12500000000001 0 1 1 -104.89732703339013,181.68750000000009Z" style="pointer-events: none; stroke-width: 0; fill: url('#p72d7ed-424fc0-1'); stroke: rgb(68, 68, 68); stroke-opacity: 1;"/><g class="slicetext"><text data-notex="1" class="slicetext" transform="translate(473.9079952750426,211.546875)" text-anchor="middle" x="0" y="0" style="font-family: 'Open Sans', verdana, arial, sans-serif; font-size: 12px; fill: rgb(68, 68, 68); fill-opacity: 1; white-space: pre;">66.7%</text></g></g><g class="slice"><path class="surface" d="M395.235,100.5625a60.56250000000001,60.56250000000001 0 0 0 -60.230732288241065,66.89300505664727l-60.230732288241065,6.330505056647255a121.12500000000001,121.12500000000001 0 0 1 120.46146457648213,-133.78601011329454Z" style="pointer-events: none; stroke-width: 0; fill: rgb(255, 127, 127); fill-opacity: 1; stroke: rgb(68, 68, 68); stroke-opacity: 1;"/><g class="slicetext"><text data-notex="1" class="slicetext" transform="translate(327.72493726053796,105.33866647858747)" text-anchor="middle" x="0" y="0" style="font-family: 'Open Sans', verdana, arial, sans-serif; font-size: 12px; fill: rgb(68, 68, 68); fill-opacity: 1; white-space: pre;">26.7%</text></g></g><g class="slice"><path class="surface pattern_filled" d="M335.0042677117589,167.45550505664727a60.56250000000001,60.56250000000001 0 0 0 7.782068771545987,23.950744943352735l-52.44866351669508,30.28124999999999a121.12500000000001,121.12500000000001 0 0 1 -15.564137543091974,-47.90148988670547Z" style="pointer-events: none; stroke-width: 0; fill: url('#p72d7ed-424fc0-2'); stroke: rgb(68, 68, 68); stroke-opacity: 1;"/><g class="slicetext"><text data-notex="1" class="slicetext" transform="translate(310.5891619189433,193.88541111786805)rotate(-18)" text-anchor="middle" x="0" y="0" style="font-family: 'Open Sans', verdana, arial, sans-serif; font-size: 12px; fill: rgb(68, 68, 68); fill-opacity: 1; white-space: pre;">6.67%</text></g></g></g><g class="trace" stroke-linejoin="round" style="opacity: 1;"><g class="slice"><path class="surface pattern_filled" d="M106.16725565803708,509.3710917218328a60.56250000000001,60.56250000000001 0 1 0 35.5977443419629,-109.55859172183277l0,-60.56250000000001a121.12500000000001,121.12500000000001 0 1 1 -71.1954886839258,219.11718344366554Z" style="pointer-events: none; stroke-width: 0; fill: url('#p72d7ed-bcece3-1'); stroke: rgb(68, 68, 68); stroke-opacity: 1;"/><g class="slicetext"><text data-notex="1" class="slicetext" transform="translate(228.16254040218786,493.44726258274915)" text-anchor="middle" x="0" y="0" style="font-family: 'Open Sans', verdana, arial, sans-serif; font-size: 12px; fill: rgb(68, 68, 68); fill-opacity: 1; white-space: pre;">60%</text></g></g><g class="slice"><path class="surface pattern_filled" d="M141.765,399.8125a60.56250000000001,60.56250000000001 0 0 0 -35.597744341962915,109.55859172183276l-35.597744341962915,48.996091721832755a121.12500000000001,121.12500000000001 0 0 1 71.19548868392583,-219.1171834436655Z" style="pointer-events: none; stroke-width: 0; fill: url('#p72d7ed-bcece3-0'); stroke: rgb(68, 68, 68); stroke-opacity: 1;"/><g class="slicetext"><text data-notex="1" class="slicetext" transform="translate(55.36745959781213,437.30273741725085)" text-anchor="middle" x="0" y="0" style="font-family: 'Open Sans', verdana, arial, sans-serif; font-size: 12px; fill: rgb(68, 68, 68); fill-opacity: 1; white-space: pre;">40%</text></g></g></g><g class="trace" stroke-linejoin="round" style="opacity: 1;"><g class="slice"><path class="surface pattern_filled" d="M334.6725,460.375a60.56250000000001,60.56250000000001 0 1 0 60.56250000000001,-60.56250000000002l0,-60.56250000000001a121.12500000000001,121.12500000000001 0 1 1 -121.12500000000001,121.12500000000004Z" style="pointer-events: none; stroke-width: 0; fill: url('#p72d7ed-b5e678-1'); stroke: rgb(68, 68, 68); stroke-opacity: 1;"/><g class="slicetext"><text data-notex="1" class="slicetext" transform="translate(459.47123165341543,529.6112316534154)" text-anchor="middle" x="0" y="0" style="font-family: 'Open Sans', verdana, arial, sans-serif; font-size: 12px; fill: rgb(68, 68, 68); fill-opacity: 1; white-space: pre;">75%</text></g></g><g class="slice"><path class="surface pattern_filled" d="M395.235,399.8125a60.56250000000001,60.56250000000001 0 0 0 -60.56250000000001,60.5625l-60.56250000000001,-3.708383588668079e-15a121.12500000000001,121.12500000000001 0 0 1 121.12500000000001,-121.125Z" style="pointer-events: none; stroke-width: 0; fill: url('#p72d7ed-b5e678-0'); stroke: rgb(68, 68, 68); stroke-opacity: 1;"/><g class="slicetext"><text data-notex="1" class="slicetext" transform="translate(330.9987683465846,401.1387683465846)" text-anchor="middle" x="0" y="0" style="font-family: 'Open Sans', verdana, arial, sans-serif; font-size: 12px; fill: rgb(68, 68, 68); fill-opacity: 1; white-space: pre;">25%</text></g></g></g><g class="trace" stroke-linejoin="round" style="opacity: 1;"><g class="slice"><path class="surface pattern_filled" d="M89.31633648330494,789.90625a60.56249999999999,60.56249999999999 0 1 0 52.44866351669505,-90.84375000000001l0,-60.56249999999999a121.12499999999999,121.12499999999999 0 1 1 -104.8973270333901,181.68750000000003Z" style="pointer-events: none; stroke-width: 0; fill: url('#p72d7ed-8ecae8-1'); stroke: rgb(68, 68, 68); stroke-opacity: 1;"/><g class="slicetext"><text data-notex="1" class="slicetext" transform="translate(220.43799527504257,810.046875)" text-anchor="middle" x="0" y="0" style="font-family: 'Open Sans', verdana, arial, sans-serif; font-size: 12px; fill: rgb(68, 68, 68); fill-opacity: 1; white-space: pre;">66.7%</text></g></g><g class="slice"><path class="surface" d="M141.765,699.0625a60.56249999999999,60.56249999999999 0 0 0 -60.23073228824105,66.89300505664724l-60.23073228824105,6.3305050566472545a121.12499999999999,121.12499999999999 0 0 1 120.4614645764821,-133.78601011329448Z" style="pointer-events: none; stroke-width: 0; fill: rgb(255, 127, 127); fill-opacity: 1; stroke: rgb(68, 68, 68); stroke-opacity: 1;"/><g class="slicetext"><text data-notex="1" class="slicetext" transform="translate(74.25493726053796,703.8386664785875)" text-anchor="middle" x="0" y="0" style="font-family: 'Open Sans', verdana, arial, sans-serif; font-size: 12px; fill: rgb(68, 68, 68); fill-opacity: 1; white-space: pre;">26.7%</text></g></g><g class="slice"><path class="surface pattern_filled" d="M81.53426771175893,765.9555050566472a60.56249999999999,60.56249999999999 0 0 0 7.782068771545987,23.950744943352728l-52.44866351669506,30.281249999999982a121.12499999999999,121.12499999999999 0 0 1 -15.564137543091974,-47.901489886705455Z" style="pointer-events: none; stroke-width: 0; fill: url('#p72d7ed-8ecae8-2'); stroke: rgb(68, 68, 68); stroke-opacity: 1;"/><g class="slicetext"><text data-notex="1" class="slicetext" transform="translate(57.11916191894331,792.385411117868)rotate(-18)" text-anchor="middle" x="0" y="0" style="font-family: 'Open Sans', verdana, arial, sans-serif; font-size: 12px; fill: rgb(68, 68, 68); fill-opacity: 1; white-space: pre;">6.67%</text></g></g></g><g class="trace" stroke-linejoin="round" style="opacity: 1;"><g class="slice"><path class="surface pattern_filled" d="M335.004267711759,765.9555050566473a60.56249999999999,60.56249999999999 0 1 0 60.23073228824104,-66.8930050566473l0,-60.56249999999999a121.12499999999999,121.12499999999999 0 1 1 -120.46146457648209,133.7860101132946Z" style="pointer-events: none; stroke-width: 0; fill: url('#p72d7ed-182d2f-1'); stroke: rgb(68, 68, 68); stroke-opacity: 1;"/><g class="slicetext"><text data-notex="1" class="slicetext" transform="translate(462.74506273946207,825.4113335214125)" text-anchor="middle" x="0" y="0" style="font-family: 'Open Sans', verdana, arial, sans-serif; font-size: 12px; fill: rgb(68, 68, 68); fill-opacity: 1; white-space: pre;">73.3%</text></g></g><g class="slice"><path class="surface" d="M395.235,699.0625a60.56249999999999,60.56249999999999 0 0 0 -60.23073228824105,66.89300505664724l-60.23073228824105,6.3305050566472545a121.12499999999999,121.12499999999999 0 0 1 120.4614645764821,-133.78601011329448Z" style="pointer-events: none; stroke-width: 0; fill: rgb(255, 127, 127); fill-opacity: 1; stroke: rgb(68, 68, 68); stroke-opacity: 1;"/><g class="slicetext"><text data-notex="1" class="slicetext" transform="translate(327.724937260538,703.8386664785875)" text-anchor="middle" x="0" y="0" style="font-family: 'Open Sans', verdana, arial, sans-serif; font-size: 12px; fill: rgb(68, 68, 68); fill-opacity: 1; white-space: pre;">26.7%</text></g></g></g><g class="trace" stroke-linejoin="round" style="opacity: 1;"><g class="slice"><path class="surface" d="M81.20249999999999,1058.875a60.5625,60.5625 0 1 0 60.5625,-60.562500000000014l0,-60.5625a121.125,121.125 0 1 1 -121.125,121.12500000000003Z" style="pointer-events: none; stroke-width: 0; fill: rgb(255, 127, 127); fill-opacity: 1; stroke: rgb(68, 68, 68); stroke-opacity: 1;"/><g class="slicetext"><text data-notex="1" class="slicetext" transform="translate(206.0012316534154,1128.1112316534154)" text-anchor="middle" x="0" y="0" style="font-family: 'Open Sans', verdana, arial, sans-serif; font-size: 12px; fill: rgb(68, 68, 68); fill-opacity: 1; white-space: pre;">75%</text></g></g><g class="slice"><path class="surface pattern_filled" d="M141.765,998.3125a60.5625,60.5625 0 0 0 -60.5625,60.56249999999999l-60.5625,-3.708383588668079e-15a121.125,121.125 0 0 1 121.125,-121.12499999999999Z" style="pointer-events: none; stroke-width: 0; fill: url('#p72d7ed-784340-1'); stroke: rgb(68, 68, 68); stroke-opacity: 1;"/><g class="slicetext"><text data-notex="1" class="slicetext" transform="translate(77.52876834658457,999.6387683465846)" text-anchor="middle" x="0" y="0" style="font-family: 'Open Sans', verdana, arial, sans-serif; font-size: 12px; fill: rgb(68, 68, 68); fill-opacity: 1; white-space: pre;">25%</text></g></g></g><g class="trace" stroke-linejoin="round" style="opacity: 1;"><g class="slice"><path class="surface pattern_filled" d="M395.235,998.3125a60.5625,60.5625 0 1 0 7.416767177336158e-15,121.125a60.5625,60.5625 0 1 0 -7.416767177336158e-15,-121.125ZM395.235,937.75a121.125,121.125 0 1 1 1.4833534354672317e-14,242.25a121.125,121.125 0 1 1 -1.4833534354672317e-14,-242.25Z" style="pointer-events: none; stroke-width: 0; fill: url('#p72d7ed-2eb4b6-0'); stroke: rgb(68, 68, 68); stroke-opacity: 1;"/><g class="slicetext"><text data-notex="1" class="slicetext" transform="translate(395.235,1154.71875)" text-anchor="middle" x="0" y="0" style="font-family: 'Open Sans', verdana, arial, sans-serif; font-size: 12px; fill: rgb(68, 68, 68); fill-opacity: 1; white-space: pre;">100%</text></g></g></g></g><g class="iciclelayer"/><g class="treemaplayer"/><g class="sunburstlayer"/><g class="glimages"/><defs id="topdefs-72d7ed"><g class="clips"/><clipPath id="legend72d7ed"><rect width="136" height="67" x="0" y="0"/></clipPath></defs><g class="layer-above"><g class="imagelayer"/><g class="shapelayer"/></g><g class="infolayer"><g class="legend" pointer-events="all" transform="translate(526.94,40)"><rect class="bg" shape-rendering="crispEdges" width="136" height="67" x="0" y="0" style="stroke: rgb(68, 68, 68); stroke-opacity: 1; fill: rgb(255, 255, 255); fill-opacity: 1; stroke-width: 0px;"/><g class="scrollbox" transform="" clip-path="url(#legend72d7ed)"><g class="groups"><g class="traces" transform="translate(0,14.5)" style="opacity: 1;"><text class="legendtext" text-anchor="start" x="40" y="4.680000000000001" style="font-family: 'Open Sans', verdana, arial, sans-serif; font-size: 12px; fill: rgb(42, 63, 95); fill-opacity: 1; white-space: pre;">FAIL (Interim)</text><g class="layers" style="opacity: 1;"><g class="legendfill"/><g class="legendlines"/><g class="legendsymbols"><g class="legendpoints"><path class="legendpie pattern_filled" d="M6,6H-6V-6H6Z" transform="translate(20,0)" style="stroke-width: 0; fill: url('#p72d7ed-bed6a0-1'); stroke: rgb(68, 68, 68); stroke-opacity: 1;"/></g></g></g><rect class="legendtoggle" x="0" y="-9.5" width="131" height="19" style="fill: rgb(0, 0, 0); fill-opacity: 0;"/></g><g class="traces" transform="translate(0,33.5)" style="opacity: 1;"><text class="legendtext" text-anchor="start" x="40" y="4.680000000000001" style="font-family: 'Open Sans', verdana, arial, sans-serif; font-size: 12px; fill: rgb(42, 63, 95); fill-opacity: 1; white-space: pre;">FAIL (Final)</text><g class="layers" style="opacity: 1;"><g class="legendfill"/><g class="legendlines"/><g class="legendsymbols"><g class="legendpoints"><path class="legendpie" d="M6,6H-6V-6H6Z" transform="translate(20,0)" style="stroke-width: 0; fill: rgb(255, 127, 127); fill-opacity: 1; stroke: rgb(68, 68, 68); stroke-opacity: 1;"/></g></g></g><rect class="legendtoggle" x="0" y="-9.5" width="131" height="19" style="fill: rgb(0, 0, 0); fill-opacity: 0;"/></g><g class="traces" transform="translate(0,52.5)" style="opacity: 1;"><text class="legendtext" text-anchor="start" x="40" y="4.680000000000001" style="font-family: 'Open Sans', verdana, arial, sans-serif; font-size: 12px; fill: rgb(42, 63, 95); fill-opacity: 1; white-space: pre;">PASS (Interim)</text><g class="layers" style="opacity: 1;"><g class="legendfill"/><g class="legendlines"/><g class="legendsymbols"><g class="legendpoints"><path class="legendpie pattern_filled" d="M6,6H-6V-6H6Z" transform="translate(20,0)" style="stroke-width: 0; fill: url('#p72d7ed-bed6a0-2'); stroke: rgb(68, 68, 68); stroke-opacity: 1;"/></g></g></g><rect class="legendtoggle" x="0" y="-9.5" width="131" height="19" style="fill: rgb(0, 0, 0); fill-opacity: 0;"/></g></g></g><rect class="scrollbar" rx="20" ry="3" width="0" height="0" x="0" y="0" style="fill: rgb(128, 139, 164); fill-opacity: 1;"/></g><g class="g-gtitle"/><g class="annotation" data-index="0" style="opacity: 1;"><g class="annotation-text-g" transform="rotate(0,144.25,29.499999999999993)"><g class="cursor-pointer" transform="translate(53,19)"><rect class="bg" x="0.5" y="0.5" width="181" height="20" style="stroke-width: 1px; stroke: rgb(0, 0, 0); stroke-opacity: 0; fill: rgb(0, 0, 0); fill-opacity: 0;"/><text class="annotation-text" text-anchor="middle" x="91" y="16" style="font-family: 'Open Sans', verdana, arial, sans-serif; font-size: 14px; fill: rgb(42, 63, 95); fill-opacity: 1; white-space: pre;">Chlorophyll-<tspan style="font-style:italic">a</tspan> (maximum)</text></g></g></g><g class="annotation" data-index="1" style="opacity: 1;"><g class="annotation-text-g" transform="rotate(0,392.75,29.499999999999993)"><g class="cursor-pointer" transform="translate(317,19)"><rect class="bg" x="0.5" y="0.5" width="151" height="20" style="stroke-width: 1px; stroke: rgb(0, 0, 0); stroke-opacity: 0; fill: rgb(0, 0, 0); fill-opacity: 0;"/><text class="annotation-text" text-anchor="middle" x="76" y="16" style="font-family: 'Open Sans', verdana, arial, sans-serif; font-size: 14px; fill: rgb(42, 63, 95); fill-opacity: 1; white-space: pre;">Chlorophyll-<tspan style="font-style:italic">a</tspan> (mean)</text></g></g></g><g class="annotation" data-index="2" style="opacity: 1;"><g class="annotation-text-g" transform="rotate(0,144.25,316.90000000000003)"><g class="cursor-pointer" transform="translate(82,297)"><rect class="bg" x="0.5" y="0.5" width="123" height="38" style="stroke-width: 1px; stroke: rgb(0, 0, 0); stroke-opacity: 0; fill: rgb(0, 0, 0); fill-opacity: 0;"/><text class="annotation-text" text-anchor="middle" x="62" y="16" style="font-family: 'Open Sans', verdana, arial, sans-serif; font-size: 14px; fill: rgb(42, 63, 95); fill-opacity: 1; white-space: pre;"><tspan class="line" dy="0em" x="62" y="16"><tspan style="font-style:italic">E. coli</tspan> </tspan><tspan class="line" dy="1.3em" x="62" y="16">(bathing season)</tspan></text></g></g></g><g class="annotation" data-index="3" style="opacity: 1;"><g class="annotation-text-g" transform="rotate(0,392.75,316.90000000000003)"><g class="cursor-pointer" transform="translate(360,297)"><rect class="bg" x="0.5" y="0.5" width="64" height="38" style="stroke-width: 1px; stroke: rgb(0, 0, 0); stroke-opacity: 0; fill: rgb(0, 0, 0); fill-opacity: 0;"/><text class="annotation-text" text-anchor="middle" x="32.5" y="16" style="font-family: 'Open Sans', verdana, arial, sans-serif; font-size: 14px; fill: rgb(42, 63, 95); fill-opacity: 1; white-space: pre;"><tspan class="line" dy="0em" x="32.5" y="16">E. <tspan style="font-style:italic">coli</tspan> </tspan><tspan class="line" dy="1.3em" x="32.5" y="16">(all year)</tspan></text></g></g></g><g class="annotation" data-index="4" style="opacity: 1;"><g class="annotation-text-g" transform="rotate(0,144.25,622.3000000000001)"><g class="cursor-pointer" transform="translate(81,612)"><rect class="bg" x="0.5" y="0.5" width="125" height="20" style="stroke-width: 1px; stroke: rgb(0, 0, 0); stroke-opacity: 0; fill: rgb(0, 0, 0); fill-opacity: 0;"/><text class="annotation-text" text-anchor="middle" x="63" y="16" style="font-family: 'Open Sans', verdana, arial, sans-serif; font-size: 14px; fill: rgb(42, 63, 95); fill-opacity: 1; white-space: pre;">Total Phosphorus</text></g></g></g><g class="annotation" data-index="5" style="opacity: 1;"><g class="annotation-text-g" transform="rotate(0,392.75,622.3000000000001)"><g class="cursor-pointer" transform="translate(342,612)"><rect class="bg" x="0.5" y="0.5" width="101" height="20" style="stroke-width: 1px; stroke: rgb(0, 0, 0); stroke-opacity: 0; fill: rgb(0, 0, 0); fill-opacity: 0;"/><text class="annotation-text" text-anchor="middle" x="51" y="16" style="font-family: 'Open Sans', verdana, arial, sans-serif; font-size: 14px; fill: rgb(42, 63, 95); fill-opacity: 1; white-space: pre;">Total Nitrogen</text></g></g></g><g class="annotation" data-index="6" style="opacity: 1;"><g class="annotation-text-g" transform="rotate(0,144.25,918.7)"><g class="cursor-pointer" transform="translate(97,908)"><rect class="bg" x="0.5" y="0.5" width="93" height="20" style="stroke-width: 1px; stroke: rgb(0, 0, 0); stroke-opacity: 0; fill: rgb(0, 0, 0); fill-opacity: 0;"/><text class="annotation-text" text-anchor="middle" x="47" y="16" style="font-family: 'Open Sans', verdana, arial, sans-serif; font-size: 14px; fill: rgb(42, 63, 95); fill-opacity: 1; white-space: pre;">Visual Clarity</text></g></g></g><g class="annotation" data-index="7" style="opacity: 1;"><g class="annotation-text-g" transform="rotate(0,392.75,918.7)"><g class="cursor-pointer" transform="translate(317,908)"><rect class="bg" x="0.5" y="0.5" width="151" height="20" style="stroke-width: 1px; stroke: rgb(0, 0, 0); stroke-opacity: 0; fill: rgb(0, 0, 0); fill-opacity: 0;"/><text class="annotation-text" text-anchor="middle" x="76" y="16" style="font-family: 'Open Sans', verdana, arial, sans-serif; font-size: 14px; fill: rgb(42, 63, 95); fill-opacity: 1; white-space: pre;">Ammoniacal Nitrogen</text></g></g></g></g></svg>