<svg class="main-svg" xmlns="http://www.w3.org/2000/svg" xmlns:xlink="http://www.w3.org/1999/xlink" width="675" height="1350" style="" viewBox="0 0 675 1350"><rect x="0" y="0" width="675" height="1350" style="fill: rgb(255, 255, 255); fill-opacity: 1;"/><defs id="defs-f2baf7"><g class="clips"/><g class="gradients"/><g class="patterns"><pattern id="pf2baf7-d035cf-1" width="8px" height="8px" patternUnits="userSpaceOnUse" patternTransform=""><rect width="8px" height="8px" fill="rgb(255, 255, 255)" fill-opacity="1"/><circle cx="4" cy="4" r="2.472154892948413" opacity="1" fill="rgb(255, 127, 127)"/></pattern><pattern id="pf2baf7-5456ee-2" width="8px" height="8px" patternUnits="userSpaceOnUse" patternTransform=""><rect width="8px" height="8px" fill="rgb(255, 255, 255)" fill-opacity="1"/><circle cx="4" cy="4" r="2.472154892948413" opacity="1" fill="rgb(196, 223, 185)"/></pattern></g></defs><g class="bglayer"/><g class="layer-below"><g class="imagelayer"/><g class="shapelayer"/></g><g class="cartesianlayer"/><g class="polarlayer"/><g class="smithlayer"/><g class="ternarylayer"/><g class="geolayer"/><g class="funnelarealayer"/><g class="pielayer"><g class="trace" stroke-linejoin="round" style="opacity: 1;"><g class="slice"><path class="surface" d="M97.07808916472298,168.99999999999994a51.59999999999997,51.59999999999997 0 1 0 44.686910835277004,-77.39999999999998l0,-51.59999999999997a103.19999999999995,103.19999999999995 0 1 1 -89.37382167055401,154.79999999999995Z" style="pointer-events: none; stroke-width: 0; fill: rgb(196, 223, 185); fill-opacity: 1; stroke: rgb(68, 68, 68); stroke-opacity: 1;"/><g class="slicetext"><text data-notex="1" class="slicetext" transform="translate(208.7953662529155,186.8999999999999)" text-anchor="middle" x="0" y="0" style="font-family: 'Open Sans', verdana, arial, sans-serif; font-size: 12px; fill: rgb(68, 68, 68); fill-opacity: 1; white-space: pre;">66.7%</text></g></g><g class="slice"><path class="surface" d="M141.765,91.59999999999997a51.59999999999997,51.59999999999997 0 0 0 -44.68691083527701,77.39999999999995l-44.68691083527701,25.799999999999976a103.19999999999995,103.19999999999995 0 0 1 89.37382167055402,-154.7999999999999Z" style="pointer-events: none; stroke-width: 0; fill: rgb(255, 127, 127); fill-opacity: 1; stroke: rgb(68, 68, 68); stroke-opacity: 1;"/><g class="slicetext"><text data-notex="1" class="slicetext" transform="translate(74.73463374708447,109.49999999999994)" text-anchor="middle" x="0" y="0" style="font-family: 'Open Sans', verdana, arial, sans-serif; font-size: 12px; fill: rgb(68, 68, 68); fill-opacity: 1; white-space: pre;">33.3%</text></g></g></g><g class="trace" stroke-linejoin="round" style="opacity: 1;"><g class="slice"><path class="surface" d="M395.235,91.59999999999997a51.59999999999997,51.59999999999997 0 1 0 6.319177483600339e-15,103.19999999999995a51.59999999999997,51.59999999999997 0 1 0 -6.319177483600339e-15,-103.19999999999995ZM395.235,39.999999999999986a103.19999999999995,103.19999999999995 0 1 1 1.2638354967200678e-14,206.3999999999999a103.19999999999995,103.19999999999995 0 1 1 -1.2638354967200678e-14,-206.3999999999999Z" style="pointer-events: none; stroke-width: 0; fill: rgb(255, 127, 127); fill-opacity: 1; stroke: rgb(68, 68, 68); stroke-opacity: 1;"/><g class="slicetext"><text data-notex="1" class="slicetext" transform="translate(395.235,225.5999999999999)" text-anchor="middle" x="0" y="0" style="font-family: 'Open Sans', verdana, arial, sans-serif; font-size: 12px; fill: rgb(68, 68, 68); fill-opacity: 1; white-space: pre;">100%</text></g></g></g><g class="trace" stroke-linejoin="round" style="opacity: 1;"><g class="slice"><path class="surface" d="M119.376599061534,460.58999358376474a51.60000000000001,51.60000000000001 0 1 0 22.388400938465995,-98.08999358376485l0,-51.60000000000001a103.20000000000002,103.20000000000002 0 1 1 -44.77680187693199,196.1799871675297Z" style="pointer-events: none; stroke-width: 0; fill: rgb(255, 127, 127); fill-opacity: 1; stroke: rgb(68, 68, 68); stroke-opacity: 1;"/><g class="slicetext"><text data-notex="1" class="slicetext" transform="translate(217.22442040287314,436.32312028821866)" text-anchor="middle" x="0" y="0" style="font-family: 'Open Sans', verdana, arial, sans-serif; font-size: 12px; fill: rgb(68, 68, 68); fill-opacity: 1; white-space: pre;">57.1%</text></g></g><g class="slice"><path class="surface" d="M141.765,362.4999999999999a51.60000000000001,51.60000000000001 0 0 0 -22.38840093846601,98.08999358376484l-22.38840093846601,46.48999358376483a103.20000000000002,103.20000000000002 0 0 1 44.77680187693202,-196.17998716752967Z" style="pointer-events: none; stroke-width: 0; fill: rgb(196, 223, 185); fill-opacity: 1; stroke: rgb(68, 68, 68); stroke-opacity: 1;"/><g class="slicetext"><text data-notex="1" class="slicetext" transform="translate(66.30557959712682,401.87687971178116)" text-anchor="middle" x="0" y="0" style="font-family: 'Open Sans', verdana, arial, sans-serif; font-size: 12px; fill: rgb(68, 68, 68); fill-opacity: 1; white-space: pre;">42.9%</text></g></g></g><g class="trace" stroke-linejoin="round" style="opacity: 1;"><g class="slice"><path class="surface" d="M344.9287197314179,425.5820801921457a51.60000000000001,51.60000000000001 0 1 0 50.30628026858211,-63.082080192145845l0,-51.60000000000001a103.20000000000002,103.20000000000002 0 1 1 -100.61256053716421,126.16416038429169Z" style="pointer-events: none; stroke-width: 0; fill: rgb(255, 127, 127); fill-opacity: 1; stroke: rgb(68, 68, 68); stroke-opacity: 1;"/><g class="slicetext"><text data-notex="1" class="slicetext" transform="translate(455.7487567430255,467.3581106638659)" text-anchor="middle" x="0" y="0" style="font-family: 'Open Sans', verdana, arial, sans-serif; font-size: 12px; fill: rgb(68, 68, 68); fill-opacity: 1; white-space: pre;">71.4%</text></g></g><g class="slice"><path class="surface" d="M395.235,362.4999999999999a51.60000000000001,51.60000000000001 0 0 0 -50.30628026858211,63.08208019214583l-50.30628026858211,11.48208019214582a103.20000000000002,103.20000000000002 0 0 1 100.61256053716421,-126.16416038429166Z" style="pointer-events: none; stroke-width: 0; fill: rgb(196, 223, 185); fill-opacity: 1; stroke: rgb(68, 68, 68); stroke-opacity: 1;"/><g class="slicetext"><text data-notex="1" class="slicetext" transform="translate(334.7212432569745,370.84188933613393)" text-anchor="middle" x="0" y="0" style="font-family: 'Open Sans', verdana, arial, sans-serif; font-size: 12px; fill: rgb(68, 68, 68); fill-opacity: 1; white-space: pre;">28.6%</text></g></g></g><g class="trace" stroke-linejoin="round" style="opacity: 1;"><g class="slice"><path class="surface" d="M141.765,633.3999999999999a51.60000000000001,51.60000000000001 0 1 0 6.319177483600344e-15,103.20000000000002a51.60000000000001,51.60000000000001 0 1 0 -6.319177483600344e-15,-103.20000000000002ZM141.765,581.7999999999998a103.20000000000002,103.20000000000002 0 1 1 1.2638354967200687e-14,206.40000000000003a103.20000000000002,103.20000000000002 0 1 1 -1.2638354967200687e-14,-206.40000000000003Z" style="pointer-events: none; stroke-width: 0; fill: rgb(255, 127, 127); fill-opacity: 1; stroke: rgb(68, 68, 68); stroke-opacity: 1;"/><g class="slicetext"><text data-notex="1" class="slicetext" transform="translate(141.765,767.3999999999999)" text-anchor="middle" x="0" y="0" style="font-family: 'Open Sans', verdana, arial, sans-serif; font-size: 12px; fill: rgb(68, 68, 68); fill-opacity: 1; white-space: pre;">100%</text></g></g></g><g class="trace" stroke-linejoin="round" style="opacity: 1;"><g class="slice"><path class="surface pattern_filled" d="M344.9287197314179,696.4820801921458a51.60000000000001,51.60000000000001 0 1 0 50.30628026858211,-63.082080192145845l0,-51.60000000000001a103.20000000000002,103.20000000000002 0 1 1 -100.61256053716421,126.16416038429169Z" style="pointer-events: none; stroke-width: 0; fill: url('#pf2baf7-d035cf-1'); stroke: rgb(68, 68, 68); stroke-opacity: 1;"/><g class="slicetext"><text data-notex="1" class="slicetext" transform="translate(455.7487567430255,738.2581106638659)" text-anchor="middle" x="0" y="0" style="font-family: 'Open Sans', verdana, arial, sans-serif; font-size: 12px; fill: rgb(68, 68, 68); fill-opacity: 1; white-space: pre;">71.4%</text></g></g><g class="slice"><path class="surface" d="M395.235,633.3999999999999a51.60000000000001,51.60000000000001 0 0 0 -50.30628026858211,63.08208019214583l-50.30628026858211,11.48208019214582a103.20000000000002,103.20000000000002 0 0 1 100.61256053716421,-126.16416038429166Z" style="pointer-events: none; stroke-width: 0; fill: rgb(255, 127, 127); fill-opacity: 1; stroke: rgb(68, 68, 68); stroke-opacity: 1;"/><g class="slicetext"><text data-notex="1" class="slicetext" transform="translate(334.7212432569745,641.7418893361339)" text-anchor="middle" x="0" y="0" style="font-family: 'Open Sans', verdana, arial, sans-serif; font-size: 12px; fill: rgb(68, 68, 68); fill-opacity: 1; white-space: pre;">28.6%</text></g></g></g><g class="trace" stroke-linejoin="round" style="opacity: 1;"><g class="slice"><path class="surface" d="M141.765,904.2999999999998a51.599999999999994,51.599999999999994 0 1 0 6.319177483600342e-15,103.19999999999999a51.599999999999994,51.599999999999994 0 1 0 -6.319177483600342e-15,-103.19999999999999ZM141.765,852.6999999999998a103.19999999999999,103.19999999999999 0 1 1 1.2638354967200684e-14,206.39999999999998a103.19999999999999,103.19999999999999 0 1 1 -1.2638354967200684e-14,-206.39999999999998Z" style="pointer-events: none; stroke-width: 0; fill: rgb(196, 223, 185); fill-opacity: 1; stroke: rgb(68, 68, 68); stroke-opacity: 1;"/><g class="slicetext"><text data-notex="1" class="slicetext" transform="translate(141.765,1038.3)" text-anchor="middle" x="0" y="0" style="font-family: 'Open Sans', verdana, arial, sans-serif; font-size: 12px; fill: rgb(68, 68, 68); fill-opacity: 1; white-space: pre;">100%</text></g></g></g><g class="trace" stroke-linejoin="round" style="opacity: 1;"><g class="slice"><path class="surface" d="M372.846599061534,1002.3899935837646a51.599999999999994,51.599999999999994 0 1 0 22.388400938465992,-98.08999358376482l0,-51.599999999999994a103.19999999999999,103.19999999999999 0 1 1 -44.776801876931984,196.17998716752965Z" style="pointer-events: none; stroke-width: 0; fill: rgb(255, 127, 127); fill-opacity: 1; stroke: rgb(68, 68, 68); stroke-opacity: 1;"/><g class="slicetext"><text data-notex="1" class="slicetext" transform="translate(470.69442040287316,978.1231202882186)" text-anchor="middle" x="0" y="0" style="font-family: 'Open Sans', verdana, arial, sans-serif; font-size: 12px; fill: rgb(68, 68, 68); fill-opacity: 1; white-space: pre;">57.1%</text></g></g><g class="slice"><path class="surface" d="M395.235,904.2999999999998a51.599999999999994,51.599999999999994 0 0 0 -50.30628026858209,63.08208019214581l-50.30628026858209,11.482080192145819a103.19999999999999,103.19999999999999 0 0 1 100.61256053716419,-126.16416038429162Z" style="pointer-events: none; stroke-width: 0; fill: rgb(196, 223, 185); fill-opacity: 1; stroke: rgb(68, 68, 68); stroke-opacity: 1;"/><g class="slicetext"><text data-notex="1" class="slicetext" transform="translate(334.7212432569745,912.6418893361339)" text-anchor="middle" x="0" y="0" style="font-family: 'Open Sans', verdana, arial, sans-serif; font-size: 12px; fill: rgb(68, 68, 68); fill-opacity: 1; white-space: pre;">28.6%</text></g></g><g class="slice"><path class="surface pattern_filled" d="M344.9287197314179,967.3820801921457a51.599999999999994,51.599999999999994 0 0 0 27.91787933011609,35.007913391619l-22.388400938466003,46.489993583764814a103.19999999999999,103.19999999999999 0 0 1 -55.83575866023218,-70.015826783238Z" style="pointer-events: none; stroke-width: 0; fill: url('#pf2baf7-5456ee-2'); stroke: rgb(68, 68, 68); stroke-opacity: 1;"/><g class="slicetext"><text data-notex="1" class="slicetext" transform="translate(334.7212432569745,1009.1581106638658)" text-anchor="middle" x="0" y="0" style="font-family: 'Open Sans', verdana, arial, sans-serif; font-size: 12px; fill: rgb(68, 68, 68); fill-opacity: 1; white-space: pre;">14.3%</text></g></g></g><g class="trace" stroke-linejoin="round" style="opacity: 1;"><g class="slice"><path class="surface" d="M119.376599061534,1273.2899935837647a51.6,51.6 0 1 0 22.388400938465995,-98.08999358376482l0,-51.6a103.2,103.2 0 1 1 -44.77680187693199,196.17998716752965Z" style="pointer-events: none; stroke-width: 0; fill: rgb(255, 127, 127); fill-opacity: 1; stroke: rgb(68, 68, 68); stroke-opacity: 1;"/><g class="slicetext"><text data-notex="1" class="slicetext" transform="translate(217.22442040287314,1249.0231202882187)" text-anchor="middle" x="0" y="0" style="font-family: 'Open Sans', verdana, arial, sans-serif; font-size: 12px; fill: rgb(68, 68, 68); fill-opacity: 1; white-space: pre;">57.1%</text></g></g><g class="slice"><path class="surface" d="M141.765,1175.2a51.6,51.6 0 0 0 -22.388400938466006,98.08999358376482l-22.388400938466006,46.48999358376482a103.2,103.2 0 0 1 44.77680187693201,-196.17998716752965Z" style="pointer-events: none; stroke-width: 0; fill: rgb(196, 223, 185); fill-opacity: 1; stroke: rgb(68, 68, 68); stroke-opacity: 1;"/><g class="slicetext"><text data-notex="1" class="slicetext" transform="translate(66.30557959712684,1214.5768797117812)" text-anchor="middle" x="0" y="0" style="font-family: 'Open Sans', verdana, arial, sans-serif; font-size: 12px; fill: rgb(68, 68, 68); fill-opacity: 1; white-space: pre;">42.9%</text></g></g></g></g><g class="iciclelayer"/><g class="treemaplayer"/><g class="sunburstlayer"/><g class="glimages"/><defs id="topdefs-f2baf7"><g class="clips"/><clipPath id="legendf2baf7"><rect width="136" height="86" x="0" y="0"/></clipPath></defs><g class="layer-above"><g class="imagelayer"/><g class="shapelayer"/></g><g class="infolayer"><g class="legend" pointer-events="all" transform="translate(526.94,40)"><rect class="bg" shape-rendering="crispEdges" width="136" height="86" x="0" y="0" style="stroke: rgb(68, 68, 68); stroke-opacity: 1; fill: rgb(255, 255, 255); fill-opacity: 1; stroke-width: 0px;"/><g class="scrollbox" transform="" clip-path="url(#legendf2baf7)"><g class="groups"><g class="traces" transform="translate(0,14.5)" style="opacity: 1;"><text class="legendtext" text-anchor="start" x="40" y="4.680000000000001" style="font-family: 'Open Sans', verdana, arial, sans-serif; font-size: 12px; fill: rgb(42, 63, 95); fill-opacity: 1; white-space: pre;">PASS (Final)</text><g class="layers" style="opacity: 1;"><g class="legendfill"/><g class="legendlines"/><g class="legendsymbols"><g class="legendpoints"><path class="legendpie" d="M6,6H-6V-6H6Z" transform="translate(20,0)" style="stroke-width: 0; fill: rgb(196, 223, 185); fill-opacity: 1; stroke: rgb(68, 68, 68); stroke-opacity: 1;"/></g></g></g><rect class="legendtoggle" x="0" y="-9.5" width="131" height="19" style="fill: rgb(0, 0, 0); fill-opacity: 0;"/></g><g class="traces" transform="translate(0,33.5)" style="opacity: 1;"><text class="legendtext" text-anchor="start" x="40" y="4.680000000000001" style="font-family: 'Open Sans', verdana, arial, sans-serif; font-size: 12px; fill: rgb(42, 63, 95); fill-opacity: 1; white-space: pre;">FAIL (Final)</text><g class="layers" style="opacity: 1;"><g class="legendfill"/><g class="legendlines"/><g class="legendsymbols"><g class="legendpoints"><path class="legendpie" d="M6,6H-6V-6H6Z" transform="translate(20,0)" style="stroke-width: 0; fill: rgb(255, 127, 127); fill-opacity: 1; stroke: rgb(68, 68, 68); stroke-opacity: 1;"/></g></g></g><rect class="legendtoggle" x="0" y="-9.5" width="131" height="19" style="fill: rgb(0, 0, 0); fill-opacity: 0;"/></g><g class="traces" transform="translate(0,52.5)" style="opacity: 1;"><text class="legendtext" text-anchor="start" x="40" y="4.680000000000001" style="font-family: 'Open Sans', verdana, arial, sans-serif; font-size: 12px; fill: rgb(42, 63, 95); fill-opacity: 1; white-space: pre;">FAIL (Interim)</text><g class="layers" style="opacity: 1;"><g class="legendfill"/><g class="legendlines"/><g class="legendsymbols"><g class="legendpoints"><path class="legendpie pattern_filled" d="M6,6H-6V-6H6Z" transform="translate(20,0)" style="stroke-width: 0; fill: url('#pf2baf7-d035cf-1'); stroke: rgb(68, 68, 68); stroke-opacity: 1;"/></g></g></g><rect class="legendtoggle" x="0" y="-9.5" width="131" height="19" style="fill: rgb(0, 0, 0); fill-opacity: 0;"/></g><g class="traces" transform="translate(0,71.5)" style="opacity: 1;"><text class="legendtext" text-anchor="start" x="40" y="4.680000000000001" style="font-family: 'Open Sans', verdana, arial, sans-serif; font-size: 12px; fill: rgb(42, 63, 95); fill-opacity: 1; white-space: pre;">PASS (Interim)</text><g class="layers" style="opacity: 1;"><g class="legendfill"/><g class="legendlines"/><g class="legendsymbols"><g class="legendpoints"><path class="legendpie pattern_filled" d="M6,6H-6V-6H6Z" transform="translate(20,0)" style="stroke-width: 0; fill: url('#pf2baf7-5456ee-2'); stroke: rgb(68, 68, 68); stroke-opacity: 1;"/></g></g></g><rect class="legendtoggle" x="0" y="-9.5" width="131" height="19" style="fill: rgb(0, 0, 0); fill-opacity: 0;"/></g></g></g><rect class="scrollbar" rx="20" ry="3" width="0" height="0" x="0" y="0" style="fill: rgb(128, 139, 164); fill-opacity: 1;"/></g><g class="g-gtitle"/><g class="annotation" data-index="0" style="opacity: 1;"><g class="annotation-text-g" transform="rotate(0,144.25,29.499999999999996)"><g class="cursor-pointer" transform="translate(96,19)"><rect class="bg" x="0.5" y="0.5" width="96" height="20" style="stroke-width: 1px; stroke: rgb(0, 0, 0); stroke-opacity: 0; fill: rgb(0, 0, 0); fill-opacity: 0;"/><text class="annotation-text" text-anchor="middle" x="48.5" y="16" style="font-family: 'Open Sans', verdana, arial, sans-serif; font-size: 14px; fill: rgb(42, 63, 95); fill-opacity: 1; white-space: pre;">Chlorophyll-<tspan style="font-style:italic">a</tspan></text></g></g></g><g class="annotation" data-index="1" style="opacity: 1;"><g class="annotation-text-g" transform="rotate(0,392.75,29.499999999999996)"><g class="cursor-pointer" transform="translate(346,19)"><rect class="bg" x="0.5" y="0.5" width="93" height="20" style="stroke-width: 1px; stroke: rgb(0, 0, 0); stroke-opacity: 0; fill: rgb(0, 0, 0); fill-opacity: 0;"/><text class="annotation-text" text-anchor="middle" x="47" y="16" style="font-family: 'Open Sans', verdana, arial, sans-serif; font-size: 14px; fill: rgb(42, 63, 95); fill-opacity: 1; white-space: pre;">Visual Clarity</text></g></g></g><g class="annotation" data-index="2" style="opacity: 1;"><g class="annotation-text-g" transform="rotate(0,144.25,300.4)"><g class="cursor-pointer" transform="translate(40,290)"><rect class="bg" x="0.5" y="0.5" width="208" height="20" style="stroke-width: 1px; stroke: rgb(0, 0, 0); stroke-opacity: 0; fill: rgb(0, 0, 0); fill-opacity: 0;"/><text class="annotation-text" text-anchor="middle" x="104.5" y="16" style="font-family: 'Open Sans', verdana, arial, sans-serif; font-size: 14px; fill: rgb(42, 63, 95); fill-opacity: 1; white-space: pre;">Dissolved Oxygen Saturation</text></g></g></g><g class="annotation" data-index="3" style="opacity: 1;"><g class="annotation-text-g" transform="rotate(0,392.75,300.4)"><g class="cursor-pointer" transform="translate(281,290)"><rect class="bg" x="0.5" y="0.5" width="222" height="20" style="stroke-width: 1px; stroke: rgb(0, 0, 0); stroke-opacity: 0; fill: rgb(0, 0, 0); fill-opacity: 0;"/><text class="annotation-text" text-anchor="middle" x="111.5" y="16" style="font-family: 'Open Sans', verdana, arial, sans-serif; font-size: 14px; fill: rgb(42, 63, 95); fill-opacity: 1; white-space: pre;">Dissolved Reactive Phosphorus</text></g></g></g><g class="annotation" data-index="4" style="opacity: 1;"><g class="annotation-text-g" transform="rotate(0,144.25,562.3000000000001)"><g class="cursor-pointer" transform="translate(112,543)"><rect class="bg" x="0.5" y="0.5" width="64" height="38" style="stroke-width: 1px; stroke: rgb(0, 0, 0); stroke-opacity: 0; fill: rgb(0, 0, 0); fill-opacity: 0;"/><text class="annotation-text" text-anchor="middle" x="32.5" y="16" style="font-family: 'Open Sans', verdana, arial, sans-serif; font-size: 14px; fill: rgb(42, 63, 95); fill-opacity: 1; white-space: pre;"><tspan class="line" dy="0em" x="32.5" y="16"><tspan style="font-style:italic">E. coli</tspan> </tspan><tspan class="line" dy="1.3em" x="32.5" y="16">(all year)</tspan></text></g></g></g><g class="annotation" data-index="5" style="opacity: 1;"><g class="annotation-text-g" transform="rotate(0,392.75,562.3000000000001)"><g class="cursor-pointer" transform="translate(331,543)"><rect class="bg" x="0.5" y="0.5" width="123" height="38" style="stroke-width: 1px; stroke: rgb(0, 0, 0); stroke-opacity: 0; fill: rgb(0, 0, 0); fill-opacity: 0;"/><text class="annotation-text" text-anchor="middle" x="62" y="16" style="font-family: 'Open Sans', verdana, arial, sans-serif; font-size: 14px; fill: rgb(42, 63, 95); fill-opacity: 1; white-space: pre;"><tspan class="line" dy="0em" x="62" y="16"><tspan style="font-style:italic">E. coli</tspan> </tspan><tspan class="line" dy="1.3em" x="62" y="16">(bathing season)</tspan></text></g></g></g><g class="annotation" data-index="6" style="opacity: 1;"><g class="annotation-text-g" transform="rotate(0,144.25,842.2)"><g class="cursor-pointer" transform="translate(68,832)"><rect class="bg" x="0.5" y="0.5" width="151" height="20" style="stroke-width: 1px; stroke: rgb(0, 0, 0); stroke-opacity: 0; fill: rgb(0, 0, 0); fill-opacity: 0;"/><text class="annotation-text" text-anchor="middle" x="76" y="16" style="font-family: 'Open Sans', verdana, arial, sans-serif; font-size: 14px; fill: rgb(42, 63, 95); fill-opacity: 1; white-space: pre;">Ammoniacal Nitrogen</text></g></g></g><g class="annotation" data-index="7" style="opacity: 1;"><g class="annotation-text-g" transform="rotate(0,392.75,842.2)"><g class="cursor-pointer" transform="translate(298,832)"><rect class="bg" x="0.5" y="0.5" width="189" height="20" style="stroke-width: 1px; stroke: rgb(0, 0, 0); stroke-opacity: 0; fill: rgb(0, 0, 0); fill-opacity: 0;"/><text class="annotation-text" text-anchor="middle" x="95" y="16" style="font-family: 'Open Sans', verdana, arial, sans-serif; font-size: 14px; fill: rgb(42, 63, 95); fill-opacity: 1; white-space: pre;">Soluble Inorganic Nitrogen</text></g></g></g><g class="annotation" data-index="8" style="opacity: 1;"><g class="annotation-text-g" transform="rotate(0,144.25,1113.1000000000001)"><g class="cursor-pointer" transform="translate(98,1103)"><rect class="bg" x="0.5" y="0.5" width="91" height="20" style="stroke-width: 1px; stroke: rgb(0, 0, 0); stroke-opacity: 0; fill: rgb(0, 0, 0); fill-opacity: 0;"/><text class="annotation-text" text-anchor="middle" x="46" y="16" style="font-family: 'Open Sans', verdana, arial, sans-serif; font-size: 14px; fill: rgb(42, 63, 95); fill-opacity: 1; white-space: pre;">Temperature</text></g></g></g></g></svg>